<svg width="30" height="30" viewBox="0 0 30 30" fill="none" xmlns="http://www.w3.org/2000/svg">
<mask id="mask0_1299_26548" style="mask-type:alpha" maskUnits="userSpaceOnUse" x="0" y="0" width="30" height="30">
<rect width="30" height="30" fill="#D9D9D9"/>
</mask>
<g mask="url(#mask0_1299_26548)">
<path d="M15 26.25C11.8542 26.25 9.1925 25.1612 7.015 22.9837C4.83833 20.8071 3.75 18.1458 3.75 15C3.75 12.125 4.6875 9.63 6.5625 7.515C8.4375 5.40083 10.8333 4.16667 13.75 3.8125C14.2708 3.75 14.6771 3.9375 14.9688 4.375C15.2604 4.8125 15.25 5.27083 14.9375 5.75C14.5833 6.29167 14.3175 6.86458 14.14 7.46875C13.9633 8.07292 13.875 8.70833 13.875 9.375C13.875 11.25 14.5312 12.8438 15.8438 14.1562C17.1562 15.4688 18.75 16.125 20.625 16.125C21.2708 16.125 21.9117 16.0313 22.5475 15.8438C23.1825 15.6563 23.75 15.3958 24.25 15.0625C24.6875 14.7708 25.1354 14.755 25.5938 15.015C26.0521 15.2758 26.25 15.6875 26.1875 16.25C25.8958 19.125 24.6721 21.5104 22.5163 23.4062C20.3596 25.3021 17.8542 26.25 15 26.25Z" fill="#EEF0F4"/>
</g>
</svg>
