<svg width="30" height="30" viewBox="0 0 30 30" fill="none" xmlns="http://www.w3.org/2000/svg">
<mask id="mask0_1304_27557" style="mask-type:alpha" maskUnits="userSpaceOnUse" x="0" y="0" width="30" height="30">
<rect width="30" height="30" fill="#D9D9D9"/>
</mask>
<g mask="url(#mask0_1304_27557)">
<path d="M6.25 26.25C5.5625 26.25 4.97375 26.0054 4.48375 25.5163C3.99458 25.0263 3.75 24.4375 3.75 23.75V6.25C3.75 5.5625 3.99458 4.97375 4.48375 4.48375C4.97375 3.99458 5.5625 3.75 6.25 3.75H11.25C11.9375 3.75 12.5262 3.99458 13.0163 4.48375C13.5054 4.97375 13.75 5.5625 13.75 6.25V23.75C13.75 24.4375 13.5054 25.0263 13.0163 25.5163C12.5262 26.0054 11.9375 26.25 11.25 26.25H6.25ZM18.75 12.5C18.0625 12.5 17.4742 12.255 16.985 11.765C16.495 11.2758 16.25 10.6875 16.25 10V6.25C16.25 5.5625 16.495 4.97375 16.985 4.48375C17.4742 3.99458 18.0625 3.75 18.75 3.75H23.75C24.4375 3.75 25.0263 3.99458 25.5163 4.48375C26.0054 4.97375 26.25 5.5625 26.25 6.25V10C26.25 10.6875 26.0054 11.2758 25.5163 11.765C25.0263 12.255 24.4375 12.5 23.75 12.5H18.75ZM18.75 26.25C18.0625 26.25 17.4742 26.0054 16.985 25.5163C16.495 25.0263 16.25 24.4375 16.25 23.75V17.5C16.25 16.8125 16.495 16.2238 16.985 15.7337C17.4742 15.2446 18.0625 15 18.75 15H23.75C24.4375 15 25.0263 15.2446 25.5163 15.7337C26.0054 16.2238 26.25 16.8125 26.25 17.5V23.75C26.25 24.4375 26.0054 25.0263 25.5163 25.5163C25.0263 26.0054 24.4375 26.25 23.75 26.25H18.75Z" fill="#EEF0F4"/>
</g>
</svg>
