<svg width="30" height="30" viewBox="0 0 30 30" fill="none" xmlns="http://www.w3.org/2000/svg">
<mask id="mask0_1299_26524" style="mask-type:alpha" maskUnits="userSpaceOnUse" x="0" y="0" width="30" height="30">
<rect width="30" height="30" fill="#D9D9D9"/>
</mask>
<g mask="url(#mask0_1299_26524)">
<path d="M15 5C14.6458 5 14.3492 4.88 14.11 4.64C13.87 4.40083 13.75 4.10417 13.75 3.75V2.5C13.75 2.14583 13.87 1.84875 14.11 1.60875C14.3492 1.36958 14.6458 1.25 15 1.25C15.3542 1.25 15.6513 1.36958 15.8913 1.60875C16.1304 1.84875 16.25 2.14583 16.25 2.5V3.75C16.25 4.10417 16.1304 4.40083 15.8913 4.64C15.6513 4.88 15.3542 5 15 5ZM15 28.75C14.6458 28.75 14.3492 28.63 14.11 28.39C13.87 28.1508 13.75 27.8542 13.75 27.5V26.25C13.75 25.8958 13.87 25.5992 14.11 25.36C14.3492 25.12 14.6458 25 15 25C15.3542 25 15.6513 25.12 15.8913 25.36C16.1304 25.5992 16.25 25.8958 16.25 26.25V27.5C16.25 27.8542 16.1304 28.1508 15.8913 28.39C15.6513 28.63 15.3542 28.75 15 28.75ZM26.25 16.25C25.8958 16.25 25.5992 16.13 25.36 15.89C25.12 15.6508 25 15.3542 25 15C25 14.6458 25.12 14.3487 25.36 14.1087C25.5992 13.8696 25.8958 13.75 26.25 13.75H27.5C27.8542 13.75 28.1508 13.8696 28.39 14.1087C28.63 14.3487 28.75 14.6458 28.75 15C28.75 15.3542 28.63 15.6508 28.39 15.89C28.1508 16.13 27.8542 16.25 27.5 16.25H26.25ZM2.5 16.25C2.14583 16.25 1.84917 16.13 1.61 15.89C1.37 15.6508 1.25 15.3542 1.25 15C1.25 14.6458 1.37 14.3487 1.61 14.1087C1.84917 13.8696 2.14583 13.75 2.5 13.75H3.75C4.10417 13.75 4.40125 13.8696 4.64125 14.1087C4.88042 14.3487 5 14.6458 5 15C5 15.3542 4.88042 15.6508 4.64125 15.89C4.40125 16.13 4.10417 16.25 3.75 16.25H2.5ZM22.5 7.5C22.2708 7.27083 22.1562 6.98417 22.1562 6.64C22.1562 6.29667 22.2708 6 22.5 5.75L22.9375 5.28125C23.1667 5.03125 23.4583 4.90625 23.8125 4.90625C24.1667 4.90625 24.4688 5.03125 24.7188 5.28125C24.9688 5.53125 25.0938 5.83333 25.0938 6.1875C25.0938 6.54167 24.9688 6.84375 24.7188 7.09375L24.25 7.53125C24 7.76042 23.7083 7.875 23.375 7.875C23.0417 7.875 22.75 7.75 22.5 7.5ZM5.28125 24.7188C5.03125 24.4688 4.90625 24.1667 4.90625 23.8125C4.90625 23.4583 5.03125 23.1563 5.28125 22.9062L5.75 22.4688C6 22.2396 6.29167 22.125 6.625 22.125C6.95833 22.125 7.25 22.25 7.5 22.5C7.72917 22.7292 7.84917 23.0208 7.86 23.375C7.87 23.7292 7.75 24.0208 7.5 24.25L7.0625 24.7188C6.83333 24.9688 6.54167 25.0938 6.1875 25.0938C5.83333 25.0938 5.53125 24.9688 5.28125 24.7188ZM22.9062 24.7188L22.4688 24.25C22.2396 24 22.125 23.7083 22.125 23.375C22.125 23.0417 22.25 22.75 22.5 22.5C22.7292 22.2708 23.0208 22.1508 23.375 22.14C23.7292 22.13 24.0208 22.25 24.25 22.5L24.7188 22.9375C24.9688 23.1667 25.0938 23.4583 25.0938 23.8125C25.0938 24.1667 24.9688 24.4688 24.7188 24.7188C24.4688 24.9688 24.1667 25.0938 23.8125 25.0938C23.4583 25.0938 23.1563 24.9688 22.9062 24.7188ZM5.75 7.5L5.28125 7.0625C5.03125 6.83333 4.90625 6.54167 4.90625 6.1875C4.90625 5.83333 5.03125 5.53125 5.28125 5.28125C5.53125 5.03125 5.83333 4.90625 6.1875 4.90625C6.54167 4.90625 6.84375 5.03125 7.09375 5.28125L7.53125 5.75C7.76042 6 7.875 6.29167 7.875 6.625C7.875 6.95833 7.75 7.25 7.5 7.5C7.27083 7.72917 6.98417 7.84375 6.64 7.84375C6.29667 7.84375 6 7.72917 5.75 7.5ZM15 22.5C12.9167 22.5 11.1458 21.7708 9.6875 20.3125C8.22917 18.8542 7.5 17.0833 7.5 15C7.5 12.9167 8.22917 11.1458 9.6875 9.6875C11.1458 8.22917 12.9167 7.5 15 7.5C17.0833 7.5 18.8542 8.22917 20.3125 9.6875C21.7708 11.1458 22.5 12.9167 22.5 15C22.5 17.0833 21.7708 18.8542 20.3125 20.3125C18.8542 21.7708 17.0833 22.5 15 22.5Z" fill="#EEF0F4"/>
</g>
</svg>
