<svg width="30" height="30" viewBox="0 0 30 30" fill="none" xmlns="http://www.w3.org/2000/svg">
<mask id="mask0_1481_35765" style="mask-type:alpha" maskUnits="userSpaceOnUse" x="0" y="0" width="30" height="30">
<rect width="30" height="30" fill="#D9D9D9"/>
</mask>
<g mask="url(#mask0_1481_35765)">
<path d="M13.3125 24.75L11.1562 22.7812C8.94792 20.7604 6.95333 18.755 5.1725 16.765C3.39083 14.7758 2.5 12.5833 2.5 10.1875C2.5 8.22917 3.15625 6.59375 4.46875 5.28125C5.78125 3.96875 7.41667 3.3125 9.375 3.3125C10.4792 3.3125 11.5208 3.54667 12.5 4.015C13.4792 4.48417 14.3125 5.125 15 5.9375C15.6875 5.125 16.5208 4.48417 17.5 4.015C18.4792 3.54667 19.5208 3.3125 20.625 3.3125C22.5833 3.3125 24.2188 3.96875 25.5312 5.28125C26.8437 6.59375 27.5 8.22917 27.5 10.1875C27.5 12.5833 26.6146 14.7812 24.8438 16.7812C23.0729 18.7812 21.0625 20.7917 18.8125 22.8125L16.6875 24.75C16.2083 25.2083 15.6458 25.4375 15 25.4375C14.3542 25.4375 13.7917 25.2083 13.3125 24.75ZM13.8125 8.4375C13.2083 7.58333 12.5625 6.93208 11.875 6.48375C11.1875 6.03625 10.3542 5.8125 9.375 5.8125C8.125 5.8125 7.08333 6.22917 6.25 7.0625C5.41667 7.89583 5 8.9375 5 10.1875C5 11.2708 5.38542 12.4217 6.15625 13.64C6.92708 14.8592 7.84917 16.0417 8.9225 17.1875C9.995 18.3333 11.0992 19.4063 12.235 20.4063C13.37 21.4063 14.2917 22.2292 15 22.875C15.7083 22.2292 16.6304 21.4063 17.7663 20.4063C18.9013 19.4063 20.0054 18.3333 21.0788 17.1875C22.1513 16.0417 23.0729 14.8592 23.8438 13.64C24.6146 12.4217 25 11.2708 25 10.1875C25 8.9375 24.5833 7.89583 23.75 7.0625C22.9167 6.22917 21.875 5.8125 20.625 5.8125C19.6458 5.8125 18.8125 6.03625 18.125 6.48375C17.4375 6.93208 16.7917 7.58333 16.1875 8.4375C16.0417 8.64583 15.8646 8.80208 15.6562 8.90625C15.4479 9.01042 15.2292 9.0625 15 9.0625C14.7708 9.0625 14.5521 9.01042 14.3438 8.90625C14.1354 8.80208 13.9583 8.64583 13.8125 8.4375Z" fill="#EEF0F4"/>
</g>
</svg>
