<svg width="30" height="30" viewBox="0 0 30 30" fill="none" xmlns="http://www.w3.org/2000/svg">
<mask id="mask0_1481_35763" style="mask-type:alpha" maskUnits="userSpaceOnUse" x="0" y="0" width="30" height="30">
<rect width="30" height="30" fill="#D9D9D9"/>
</mask>
<g mask="url(#mask0_1481_35763)">
<path d="M15 25.9062C14.7917 25.9062 14.5883 25.8804 14.39 25.8288C14.1925 25.7763 14 25.6979 13.8125 25.5938L7.5625 22.2188C7.14583 21.9896 6.82292 21.6825 6.59375 21.2975C6.36458 20.9117 6.25 20.4792 6.25 20V14L3.25 12.3438C3.02083 12.2188 2.85417 12.0625 2.75 11.875C2.64583 11.6875 2.59375 11.4792 2.59375 11.25C2.59375 11.0208 2.64583 10.8125 2.75 10.625C2.85417 10.4375 3.02083 10.2812 3.25 10.1562L13.8125 4.40625C14 4.30208 14.1925 4.22375 14.39 4.17125C14.5883 4.11958 14.7917 4.09375 15 4.09375C15.2083 4.09375 15.4117 4.11958 15.61 4.17125C15.8075 4.22375 16 4.30208 16.1875 4.40625L28.0938 10.9063C28.3021 11.0104 28.4638 11.1612 28.5788 11.3587C28.6929 11.5571 28.75 11.7708 28.75 12V20C28.75 20.3542 28.63 20.6508 28.39 20.89C28.1508 21.13 27.8542 21.25 27.5 21.25C27.1458 21.25 26.8492 21.13 26.61 20.89C26.37 20.6508 26.25 20.3542 26.25 20V12.625L23.75 14V20C23.75 20.4792 23.6354 20.9117 23.4062 21.2975C23.1771 21.6825 22.8542 21.9896 22.4375 22.2188L16.1875 25.5938C16 25.6979 15.8075 25.7763 15.61 25.8288C15.4117 25.8804 15.2083 25.9062 15 25.9062ZM15 15.875L23.5625 11.25L15 6.625L6.4375 11.25L15 15.875ZM15 23.4062L21.25 20.0312V15.3125L16.2188 18.0938C16.0313 18.1979 15.8333 18.2758 15.625 18.3275C15.4167 18.38 15.2083 18.4063 15 18.4063C14.7917 18.4063 14.5833 18.38 14.375 18.3275C14.1667 18.2758 13.9688 18.1979 13.7812 18.0938L8.75 15.3125V20.0312L15 23.4062Z" fill="#EEF0F4"/>
</g>
</svg>
