<svg width="30" height="30" viewBox="0 0 30 30" fill="none" xmlns="http://www.w3.org/2000/svg">
<mask id="mask0_1427_34496" style="mask-type:alpha" maskUnits="userSpaceOnUse" x="0" y="0" width="30" height="30">
<rect width="30" height="30" fill="#D9D9D9"/>
</mask>
<g mask="url(#mask0_1427_34496)">
<path d="M18.2812 20.0312C18.5104 20.2604 18.7917 20.375 19.125 20.375C19.4583 20.375 19.75 20.25 20 20C20.2292 19.7708 20.3438 19.4792 20.3438 19.125C20.3438 18.7708 20.2292 18.4792 20 18.25L16.25 14.5V9.96875C16.25 9.61458 16.1304 9.32292 15.8913 9.09375C15.6513 8.86458 15.3542 8.75 15 8.75C14.6458 8.75 14.3492 8.86958 14.11 9.10875C13.87 9.34875 13.75 9.64583 13.75 10V14.9688C13.75 15.1354 13.7812 15.2967 13.8438 15.4525C13.9062 15.6092 14 15.75 14.125 15.875L18.2812 20.0312ZM15 27.5C13.2708 27.5 11.6458 27.1717 10.125 26.515C8.60417 25.8592 7.28125 24.9688 6.15625 23.8438C5.03125 22.7188 4.14083 21.3958 3.485 19.875C2.82833 18.3542 2.5 16.7292 2.5 15C2.5 13.2708 2.82833 11.6458 3.485 10.125C4.14083 8.60417 5.03125 7.28125 6.15625 6.15625C7.28125 5.03125 8.60417 4.14042 10.125 3.48375C11.6458 2.82792 13.2708 2.5 15 2.5C16.7292 2.5 18.3542 2.82792 19.875 3.48375C21.3958 4.14042 22.7188 5.03125 23.8438 6.15625C24.9688 7.28125 25.8592 8.60417 26.515 10.125C27.1717 11.6458 27.5 13.2708 27.5 15C27.5 16.7292 27.1717 18.3542 26.515 19.875C25.8592 21.3958 24.9688 22.7188 23.8438 23.8438C22.7188 24.9688 21.3958 25.8592 19.875 26.515C18.3542 27.1717 16.7292 27.5 15 27.5ZM15 25C17.7708 25 20.1304 24.0263 22.0788 22.0788C24.0263 20.1304 25 17.7708 25 15C25 12.2292 24.0263 9.86958 22.0788 7.92125C20.1304 5.97375 17.7708 5 15 5C12.2292 5 9.87 5.97375 7.9225 7.92125C5.97417 9.86958 5 12.2292 5 15C5 17.7708 5.97417 20.1304 7.9225 22.0788C9.87 24.0263 12.2292 25 15 25Z" fill="#EEF0F4"/>
</g>
</svg>
