<svg width="30" height="30" viewBox="0 0 30 30" fill="none" xmlns="http://www.w3.org/2000/svg">
<mask id="mask0_1289_33905" style="mask-type:alpha" maskUnits="userSpaceOnUse" x="0" y="0" width="30" height="30">
<rect width="30" height="30" fill="#D9D9D9"/>
</mask>
<g mask="url(#mask0_1289_33905)">
<path d="M6.25 23.75H8L18.7812 12.9688L17.0312 11.2188L6.25 22V23.75ZM24.125 11.1562L18.8125 5.90625L20.5625 4.15625C21.0417 3.67708 21.6304 3.4375 22.3288 3.4375C23.0263 3.4375 23.6146 3.67708 24.0938 4.15625L25.8438 5.90625C26.3229 6.38542 26.5729 6.96375 26.5938 7.64125C26.6146 8.31792 26.3854 8.89583 25.9062 9.375L24.125 11.1562ZM5 26.25C4.64583 26.25 4.34917 26.13 4.11 25.89C3.87 25.6508 3.75 25.3542 3.75 25V21.4688C3.75 21.3021 3.78125 21.1408 3.84375 20.985C3.90625 20.8283 4 20.6875 4.125 20.5625L17 7.6875L22.3125 13L9.4375 25.875C9.3125 26 9.17208 26.0937 9.01625 26.1562C8.85958 26.2188 8.69792 26.25 8.53125 26.25H5Z" fill="#EEF0F4"/>
</g>
</svg>
