<svg width="30" height="30" viewBox="0 0 30 30" fill="none" xmlns="http://www.w3.org/2000/svg">
<mask id="mask0_1289_34044" style="mask-type:alpha" maskUnits="userSpaceOnUse" x="0" y="0" width="30" height="30">
<rect width="30" height="30" fill="#D9D9D9"/>
</mask>
<g mask="url(#mask0_1289_34044)">
<path d="M5 23.75C4.64583 23.75 4.34917 23.63 4.11 23.39C3.87 23.1508 3.75 22.8542 3.75 22.5V18.75C3.75 17.0208 4.35958 15.5467 5.57875 14.3275C6.79708 13.1092 8.27083 12.5 10 12.5H21.5L17.8438 8.84375C17.6146 8.61458 17.5 8.33333 17.5 8C17.5 7.66667 17.625 7.375 17.875 7.125C18.1042 6.89583 18.3958 6.78125 18.75 6.78125C19.1042 6.78125 19.3958 6.89583 19.625 7.125L25.375 12.875C25.5 13 25.5888 13.1354 25.6413 13.2812C25.6929 13.4271 25.7188 13.5833 25.7188 13.75C25.7188 13.9167 25.6929 14.0729 25.6413 14.2188C25.5888 14.3646 25.5 14.5 25.375 14.625L19.5938 20.4063C19.3646 20.6354 19.0833 20.75 18.75 20.75C18.4167 20.75 18.125 20.625 17.875 20.375C17.6458 20.1458 17.5312 19.8542 17.5312 19.5C17.5312 19.1458 17.6458 18.8542 17.875 18.625L21.5 15H10C8.95833 15 8.07292 15.3646 7.34375 16.0938C6.61458 16.8229 6.25 17.7083 6.25 18.75V22.5C6.25 22.8542 6.13042 23.1508 5.89125 23.39C5.65125 23.63 5.35417 23.75 5 23.75Z" fill="#EEF0F4"/>
</g>
</svg>
