<svg width="30" height="30" viewBox="0 0 30 30" fill="none" xmlns="http://www.w3.org/2000/svg">
<mask id="mask0_1289_34035" style="mask-type:alpha" maskUnits="userSpaceOnUse" x="0" y="0" width="30" height="30">
<rect width="30" height="30" fill="#D9D9D9"/>
</mask>
<g mask="url(#mask0_1289_34035)">
<path d="M15 19.4688C14.8333 19.4688 14.6771 19.4425 14.5312 19.39C14.3854 19.3383 14.25 19.25 14.125 19.125L9.625 14.625C9.39583 14.3958 9.28125 14.1042 9.28125 13.75C9.28125 13.3958 9.39583 13.1042 9.625 12.875C9.85417 12.6458 10.1508 12.5258 10.515 12.515C10.88 12.505 11.1771 12.6146 11.4062 12.8437L13.75 15.1875V6.25C13.75 5.89583 13.87 5.59875 14.11 5.35875C14.3492 5.11958 14.6458 5 15 5C15.3542 5 15.6513 5.11958 15.8913 5.35875C16.1304 5.59875 16.25 5.89583 16.25 6.25V15.1875L18.5938 12.8437C18.8229 12.6146 19.12 12.505 19.485 12.515C19.8492 12.5258 20.1458 12.6458 20.375 12.875C20.6042 13.1042 20.7188 13.3958 20.7188 13.75C20.7188 14.1042 20.6042 14.3958 20.375 14.625L15.875 19.125C15.75 19.25 15.6146 19.3383 15.4688 19.39C15.3229 19.4425 15.1667 19.4688 15 19.4688ZM7.5 25C6.8125 25 6.22417 24.7554 5.735 24.2663C5.245 23.7763 5 23.1875 5 22.5V20C5 19.6458 5.11958 19.3487 5.35875 19.1087C5.59875 18.8696 5.89583 18.75 6.25 18.75C6.60417 18.75 6.90125 18.8696 7.14125 19.1087C7.38042 19.3487 7.5 19.6458 7.5 20V22.5H22.5V20C22.5 19.6458 22.62 19.3487 22.86 19.1087C23.0992 18.8696 23.3958 18.75 23.75 18.75C24.1042 18.75 24.4008 18.8696 24.64 19.1087C24.88 19.3487 25 19.6458 25 20V22.5C25 23.1875 24.7554 23.7763 24.2663 24.2663C23.7763 24.7554 23.1875 25 22.5 25H7.5Z" fill="#EEF0F4"/>
</g>
</svg>
