<svg width="30" height="30" viewBox="0 0 30 30" fill="none" xmlns="http://www.w3.org/2000/svg">
<mask id="mask0_1320_27134" style="mask-type:alpha" maskUnits="userSpaceOnUse" x="0" y="0" width="30" height="30">
<rect width="30" height="30" fill="#D9D9D9"/>
</mask>
<g mask="url(#mask0_1320_27134)">
<path d="M20.125 16.625L18.3125 14.8125C18.5 13.8333 18.2188 12.9167 17.4688 12.0625C16.7188 11.2083 15.75 10.875 14.5625 11.0625L12.75 9.25C13.1042 9.08333 13.4633 8.95833 13.8275 8.875C14.1925 8.79167 14.5833 8.75 15 8.75C16.5625 8.75 17.8908 9.29667 18.985 10.39C20.0783 11.4842 20.625 12.8125 20.625 14.375C20.625 14.7917 20.5833 15.1825 20.5 15.5475C20.4167 15.9117 20.2917 16.2708 20.125 16.625ZM24.125 20.5625L22.3125 18.8125C23.1042 18.2083 23.8075 17.5467 24.4225 16.8275C25.0367 16.1092 25.5625 15.2917 26 14.375C24.9583 12.2708 23.4633 10.5988 21.515 9.35875C19.5675 8.11958 17.3958 7.5 15 7.5C14.3958 7.5 13.8021 7.54167 13.2188 7.625C12.6354 7.70833 12.0625 7.83333 11.5 8L9.5625 6.0625C10.4167 5.70833 11.2917 5.4425 12.1875 5.265C13.0833 5.08833 14.0208 5 15 5C17.9792 5 20.6562 5.78625 23.0312 7.35875C25.4062 8.93208 27.1875 10.9792 28.375 13.5C28.4375 13.6042 28.4792 13.7342 28.5 13.89C28.5208 14.0467 28.5313 14.2083 28.5313 14.375C28.5313 14.5417 28.5158 14.7029 28.485 14.8588C28.4533 15.0154 28.4167 15.1458 28.375 15.25C27.8958 16.3125 27.2971 17.2917 26.5788 18.1875C25.8596 19.0833 25.0417 19.875 24.125 20.5625ZM23.875 27.375L19.5 23.0625C18.7708 23.2917 18.0367 23.4638 17.2975 23.5788C16.5575 23.6929 15.7917 23.75 15 23.75C12.0208 23.75 9.34375 22.9638 6.96875 21.3913C4.59375 19.8179 2.8125 17.7708 1.625 15.25C1.5625 15.1458 1.52083 15.0154 1.5 14.8588C1.47917 14.7029 1.46875 14.5417 1.46875 14.375C1.46875 14.2083 1.47917 14.0521 1.5 13.9062C1.52083 13.7604 1.5625 13.6354 1.625 13.5312C2.0625 12.5938 2.58333 11.7292 3.1875 10.9375C3.79167 10.1458 4.45833 9.41667 5.1875 8.75L2.59375 6.125C2.36458 5.89583 2.25 5.60917 2.25 5.265C2.25 4.92167 2.375 4.625 2.625 4.375C2.85417 4.14583 3.14583 4.03125 3.5 4.03125C3.85417 4.03125 4.14583 4.14583 4.375 4.375L25.625 25.625C25.8542 25.8542 25.9742 26.1408 25.985 26.485C25.995 26.8283 25.875 27.125 25.625 27.375C25.3958 27.6042 25.1042 27.7187 24.75 27.7187C24.3958 27.7187 24.1042 27.6042 23.875 27.375ZM6.9375 10.5C6.33333 11.0417 5.78125 11.6354 5.28125 12.2812C4.78125 12.9271 4.35417 13.625 4 14.375C5.04167 16.4792 6.53625 18.1508 8.48375 19.39C10.4321 20.63 12.6042 21.25 15 21.25C15.4167 21.25 15.8229 21.2242 16.2188 21.1725C16.6146 21.12 17.0208 21.0625 17.4375 21L16.3125 19.8125C16.0833 19.875 15.8646 19.9217 15.6562 19.9525C15.4479 19.9842 15.2292 20 15 20C13.4375 20 12.1092 19.4533 11.015 18.36C9.92167 17.2658 9.375 15.9375 9.375 14.375C9.375 14.1458 9.39042 13.9271 9.42125 13.7188C9.45292 13.5104 9.5 13.2917 9.5625 13.0625L6.9375 10.5Z" fill="#EEF0F4"/>
</g>
</svg>
