<svg width="30" height="30" viewBox="0 0 30 30" fill="none" xmlns="http://www.w3.org/2000/svg">
<mask id="mask0_1345_30094" style="mask-type:alpha" maskUnits="userSpaceOnUse" x="0" y="0" width="30" height="30">
<rect width="30" height="30" fill="#D9D9D9"/>
</mask>
<g mask="url(#mask0_1345_30094)">
<path d="M2.5 25C2.14583 25 1.84917 24.88 1.61 24.64C1.37 24.4008 1.25 24.1042 1.25 23.75V21.5C1.25 20.7917 1.4325 20.1404 1.7975 19.5463C2.16167 18.9529 2.64583 18.5 3.25 18.1875C4.54167 17.5417 5.85417 17.0571 7.1875 16.7338C8.52083 16.4113 9.875 16.25 11.25 16.25C12.625 16.25 13.9792 16.4113 15.3125 16.7338C16.6458 17.0571 17.9583 17.5417 19.25 18.1875C19.8542 18.5 20.3383 18.9529 20.7025 19.5463C21.0675 20.1404 21.25 20.7917 21.25 21.5V23.75C21.25 24.1042 21.13 24.4008 20.89 24.64C20.6508 24.88 20.3542 25 20 25H2.5ZM23.1562 25C23.3438 24.8542 23.4896 24.6717 23.5938 24.4525C23.6979 24.2342 23.75 23.9896 23.75 23.7188V21.25C23.75 20.3333 23.495 19.4529 22.985 18.6088C22.4742 17.7654 21.75 17.0417 20.8125 16.4375C21.875 16.5625 22.875 16.7758 23.8125 17.0775C24.75 17.38 25.625 17.75 26.4375 18.1875C27.1875 18.6042 27.7604 19.0675 28.1562 19.5775C28.5521 20.0883 28.75 20.6458 28.75 21.25V23.75C28.75 24.1042 28.63 24.4008 28.39 24.64C28.1508 24.88 27.8542 25 27.5 25H23.1562ZM11.25 15C9.875 15 8.69792 14.5104 7.71875 13.5312C6.73958 12.5521 6.25 11.375 6.25 10C6.25 8.625 6.73958 7.44792 7.71875 6.46875C8.69792 5.48958 9.875 5 11.25 5C12.625 5 13.8021 5.48958 14.7812 6.46875C15.7604 7.44792 16.25 8.625 16.25 10C16.25 11.375 15.7604 12.5521 14.7812 13.5312C13.8021 14.5104 12.625 15 11.25 15ZM23.75 10C23.75 11.375 23.2604 12.5521 22.2812 13.5312C21.3021 14.5104 20.125 15 18.75 15C18.5208 15 18.2292 14.9742 17.875 14.9225C17.5208 14.87 17.2292 14.8125 17 14.75C17.5625 14.0833 17.9946 13.3437 18.2962 12.5312C18.5987 11.7187 18.75 10.875 18.75 10C18.75 9.125 18.5987 8.28125 18.2962 7.46875C17.9946 6.65625 17.5625 5.91667 17 5.25C17.2917 5.14583 17.5833 5.07792 17.875 5.04625C18.1667 5.01542 18.4583 5 18.75 5C20.125 5 21.3021 5.48958 22.2812 6.46875C23.2604 7.44792 23.75 8.625 23.75 10ZM3.75 22.5H18.75V21.5C18.75 21.2708 18.6929 21.0625 18.5788 20.875C18.4638 20.6875 18.3125 20.5417 18.125 20.4375C17 19.875 15.8646 19.4529 14.7188 19.1712C13.5729 18.8904 12.4167 18.75 11.25 18.75C10.0833 18.75 8.92708 18.8904 7.78125 19.1712C6.63542 19.4529 5.5 19.875 4.375 20.4375C4.1875 20.5417 4.03667 20.6875 3.9225 20.875C3.8075 21.0625 3.75 21.2708 3.75 21.5V22.5ZM11.25 12.5C11.9375 12.5 12.5262 12.255 13.0163 11.765C13.5054 11.2758 13.75 10.6875 13.75 10C13.75 9.3125 13.5054 8.72417 13.0163 8.235C12.5262 7.745 11.9375 7.5 11.25 7.5C10.5625 7.5 9.97417 7.745 9.485 8.235C8.995 8.72417 8.75 9.3125 8.75 10C8.75 10.6875 8.995 11.2758 9.485 11.765C9.97417 12.255 10.5625 12.5 11.25 12.5Z" fill="#EEF0F4"/>
</g>
</svg>
