<svg width="30" height="30" viewBox="0 0 30 30" fill="none" xmlns="http://www.w3.org/2000/svg">
<mask id="mask0_1305_27943" style="mask-type:alpha" maskUnits="userSpaceOnUse" x="0" y="0" width="30" height="30">
<rect width="30" height="30" fill="#D9D9D9"/>
</mask>
<g mask="url(#mask0_1305_27943)">
<path d="M17.3439 27.5H12.6564C12.3439 27.5 12.0731 27.3958 11.8439 27.1875C11.6148 26.9792 11.4793 26.7188 11.4377 26.4062L11.0627 23.5C10.7918 23.3958 10.5368 23.2708 10.2977 23.125C10.0577 22.9792 9.82309 22.8229 9.59393 22.6562L6.87518 23.7812C6.58351 23.8854 6.29184 23.8958 6.00018 23.8125C5.70851 23.7292 5.47934 23.5521 5.31268 23.2812L3.00018 19.25C2.83351 18.9792 2.78143 18.6875 2.84393 18.375C2.90643 18.0625 3.06268 17.8125 3.31268 17.625L5.65643 15.8438C5.63559 15.6979 5.62518 15.5571 5.62518 15.4212V14.5775C5.62518 14.4425 5.63559 14.3021 5.65643 14.1562L3.31268 12.375C3.06268 12.1875 2.90643 11.9375 2.84393 11.625C2.78143 11.3125 2.83351 11.0208 3.00018 10.75L5.31268 6.71875C5.45851 6.42708 5.68226 6.24458 5.98393 6.17125C6.28643 6.09875 6.58351 6.11458 6.87518 6.21875L9.59393 7.34375C9.82309 7.17708 10.0627 7.02083 10.3127 6.875C10.5627 6.72917 10.8127 6.60417 11.0627 6.5L11.4377 3.59375C11.4793 3.28125 11.6148 3.02083 11.8439 2.8125C12.0731 2.60417 12.3439 2.5 12.6564 2.5H17.3439C17.6564 2.5 17.9273 2.60417 18.1564 2.8125C18.3856 3.02083 18.521 3.28125 18.5627 3.59375L18.9377 6.5C19.2085 6.60417 19.4639 6.72917 19.7039 6.875C19.9431 7.02083 20.1773 7.17708 20.4064 7.34375L23.1252 6.21875C23.4168 6.11458 23.7085 6.10417 24.0002 6.1875C24.2918 6.27083 24.521 6.44792 24.6877 6.71875L27.0002 10.75C27.1668 11.0208 27.2189 11.3125 27.1564 11.625C27.0939 11.9375 26.9377 12.1875 26.6877 12.375L24.3439 14.1562C24.3648 14.3021 24.3752 14.4425 24.3752 14.5775V15.4212C24.3752 15.5571 24.3543 15.6979 24.3127 15.8438L26.6564 17.625C26.9064 17.8125 27.0627 18.0625 27.1252 18.375C27.1877 18.6875 27.1356 18.9792 26.9689 19.25L24.6564 23.25C24.4898 23.5208 24.2556 23.7033 23.9539 23.7975C23.6514 23.8908 23.3543 23.8854 23.0627 23.7812L20.4064 22.6562C20.1773 22.8229 19.9377 22.9792 19.6877 23.125C19.4377 23.2708 19.1877 23.3958 18.9377 23.5L18.5627 26.4062C18.521 26.7188 18.3856 26.9792 18.1564 27.1875C17.9273 27.3958 17.6564 27.5 17.3439 27.5ZM15.0627 19.375C16.271 19.375 17.3023 18.9479 18.1564 18.0938C19.0106 17.2396 19.4377 16.2083 19.4377 15C19.4377 13.7917 19.0106 12.7604 18.1564 11.9062C17.3023 11.0521 16.271 10.625 15.0627 10.625C13.8335 10.625 12.7968 11.0521 11.9527 11.9062C11.1093 12.7604 10.6877 13.7917 10.6877 15C10.6877 16.2083 11.1093 17.2396 11.9527 18.0938C12.7968 18.9479 13.8335 19.375 15.0627 19.375ZM15.0627 16.875C14.5418 16.875 14.0993 16.6925 13.7352 16.3275C13.3702 15.9633 13.1877 15.5208 13.1877 15C13.1877 14.4792 13.3702 14.0367 13.7352 13.6725C14.0993 13.3075 14.5418 13.125 15.0627 13.125C15.5835 13.125 16.0264 13.3075 16.3914 13.6725C16.7556 14.0367 16.9377 14.4792 16.9377 15C16.9377 15.5208 16.7556 15.9633 16.3914 16.3275C16.0264 16.6925 15.5835 16.875 15.0627 16.875ZM13.7502 25H16.2189L16.6564 21.6875C17.3023 21.5208 17.9014 21.2758 18.4539 20.9525C19.0056 20.63 19.5106 20.2396 19.9689 19.7812L23.0627 21.0625L24.2814 18.9375L21.5939 16.9062C21.6981 16.6146 21.771 16.3071 21.8127 15.9837C21.8543 15.6613 21.8752 15.3333 21.8752 15C21.8752 14.6667 21.8543 14.3383 21.8127 14.015C21.771 13.6925 21.6981 13.3854 21.5939 13.0938L24.2814 11.0625L23.0627 8.9375L19.9689 10.25C19.5106 9.77083 19.0056 9.36958 18.4539 9.04625C17.9014 8.72375 17.3023 8.47917 16.6564 8.3125L16.2502 5H13.7814L13.3439 8.3125C12.6981 8.47917 12.0993 8.72375 11.5477 9.04625C10.9952 9.36958 10.4898 9.76042 10.0314 10.2188L6.93768 8.9375L5.71893 11.0625L8.40643 13.0625C8.30226 13.375 8.22934 13.6875 8.18768 14C8.14601 14.3125 8.12518 14.6458 8.12518 15C8.12518 15.3333 8.14601 15.6562 8.18768 15.9688C8.22934 16.2812 8.30226 16.5938 8.40643 16.9062L5.71893 18.9375L6.93768 21.0625L10.0314 19.75C10.4898 20.2292 10.9952 20.63 11.5477 20.9525C12.0993 21.2758 12.6981 21.5208 13.3439 21.6875L13.7502 25Z" fill="#EEF0F4"/>
</g>
</svg>
