<svg width="30" height="30" viewBox="0 0 30 30" fill="none" xmlns="http://www.w3.org/2000/svg">
<mask id="mask0_1337_29218" style="mask-type:alpha" maskUnits="userSpaceOnUse" x="0" y="0" width="30" height="30">
<rect width="30" height="30" fill="#D9D9D9"/>
</mask>
<g mask="url(#mask0_1337_29218)">
<path d="M10.875 21.625C10.6458 21.3958 10.5312 21.1042 10.5312 20.75C10.5312 20.3958 10.6458 20.1042 10.875 19.875L15.75 15L10.875 10.125C10.6458 9.89583 10.5312 9.60417 10.5312 9.25C10.5312 8.89583 10.6458 8.60417 10.875 8.375C11.1042 8.14583 11.3958 8.03125 11.75 8.03125C12.1042 8.03125 12.3958 8.14583 12.625 8.375L18.375 14.125C18.5 14.25 18.5887 14.3854 18.6412 14.5312C18.6929 14.6771 18.7188 14.8333 18.7188 15C18.7188 15.1667 18.6929 15.3229 18.6412 15.4688C18.5887 15.6146 18.5 15.75 18.375 15.875L12.625 21.625C12.3958 21.8542 12.1042 21.9688 11.75 21.9688C11.3958 21.9688 11.1042 21.8542 10.875 21.625Z" fill="#EEF0F4"/>
</g>
</svg>
