<svg width="30" height="30" viewBox="0 0 30 30" fill="none" xmlns="http://www.w3.org/2000/svg">
<mask id="mask0_1427_34489" style="mask-type:alpha" maskUnits="userSpaceOnUse" x="0" y="0" width="30" height="30">
<rect width="30" height="30" fill="#D9D9D9"/>
</mask>
<g mask="url(#mask0_1427_34489)">
<path d="M6.25 26.25C5.5625 26.25 4.97375 26.0054 4.48375 25.5163C3.99458 25.0263 3.75 24.4375 3.75 23.75V6.25C3.75 5.5625 3.99458 4.97375 4.48375 4.48375C4.97375 3.99458 5.5625 3.75 6.25 3.75H23.75C24.4375 3.75 25.0263 3.99458 25.5163 4.48375C26.0054 4.97375 26.25 5.5625 26.25 6.25V23.75C26.25 24.4375 26.0054 25.0263 25.5163 25.5163C25.0263 26.0054 24.4375 26.25 23.75 26.25H6.25ZM15 20C15.6667 20 16.2813 19.8279 16.8438 19.4837C17.4062 19.1404 17.8646 18.6875 18.2188 18.125C18.3438 17.9375 18.5 17.7863 18.6875 17.6713C18.875 17.5571 19.0833 17.5 19.3125 17.5H23.75V6.25H6.25V17.5H10.6875C10.9167 17.5 11.125 17.5571 11.3125 17.6713C11.5 17.7863 11.6562 17.9375 11.7812 18.125C12.1354 18.6875 12.5938 19.1404 13.1562 19.4837C13.7187 19.8279 14.3333 20 15 20Z" fill="#EEF0F4"/>
</g>
</svg>
