<svg width="30" height="30" viewBox="0 0 30 30" fill="none" xmlns="http://www.w3.org/2000/svg">
<mask id="mask0_1337_32051" style="mask-type:alpha" maskUnits="userSpaceOnUse" x="0" y="0" width="30" height="30">
<rect width="30" height="30" fill="#D9D9D9"/>
</mask>
<g mask="url(#mask0_1337_32051)">
<path d="M15 25C14.3125 25 13.7242 24.7554 13.235 24.2663C12.745 23.7763 12.5 23.1875 12.5 22.5C12.5 21.8125 12.745 21.2237 13.235 20.7337C13.7242 20.2446 14.3125 20 15 20C15.6875 20 16.2763 20.2446 16.7663 20.7337C17.2554 21.2237 17.5 21.8125 17.5 22.5C17.5 23.1875 17.2554 23.7763 16.7663 24.2663C16.2763 24.7554 15.6875 25 15 25ZM15 17.5C14.3125 17.5 13.7242 17.255 13.235 16.765C12.745 16.2758 12.5 15.6875 12.5 15C12.5 14.3125 12.745 13.7238 13.235 13.2337C13.7242 12.7446 14.3125 12.5 15 12.5C15.6875 12.5 16.2763 12.7446 16.7663 13.2337C17.2554 13.7238 17.5 14.3125 17.5 15C17.5 15.6875 17.2554 16.2758 16.7663 16.765C16.2763 17.255 15.6875 17.5 15 17.5ZM15 10C14.3125 10 13.7242 9.755 13.235 9.265C12.745 8.77583 12.5 8.1875 12.5 7.5C12.5 6.8125 12.745 6.22417 13.235 5.735C13.7242 5.245 14.3125 5 15 5C15.6875 5 16.2763 5.245 16.7663 5.735C17.2554 6.22417 17.5 6.8125 17.5 7.5C17.5 8.1875 17.2554 8.77583 16.7663 9.265C16.2763 9.755 15.6875 10 15 10Z" fill="#EEF0F4"/>
</g>
</svg>
