<svg width="30" height="30" viewBox="0 0 30 30" fill="none" xmlns="http://www.w3.org/2000/svg">
<mask id="mask0_1476_35420" style="mask-type:alpha" maskUnits="userSpaceOnUse" x="0" y="0" width="30" height="30">
<rect width="30" height="30" fill="#D9D9D9"/>
</mask>
<g mask="url(#mask0_1476_35420)">
<path d="M12.5 26.2501C11.8125 26.2501 11.2242 26.0056 10.735 25.5164C10.245 25.0264 10 24.4376 10 23.7501V11.0314C10 10.6981 10.0679 10.3802 10.2038 10.0777C10.3388 9.77598 10.5208 9.51057 10.75 9.2814L17.5312 2.5314C17.8438 2.23973 18.2137 2.06265 18.6413 2.00015C19.0679 1.93765 19.4792 2.01057 19.875 2.2189C20.2708 2.42723 20.5571 2.7189 20.7337 3.0939C20.9112 3.4689 20.9479 3.85432 20.8438 4.25015L19.4375 10.0002H26.25C26.9167 10.0002 27.5 10.2502 28 10.7502C28.5 11.2502 28.75 11.8335 28.75 12.5002V15.0002C28.75 15.146 28.7342 15.3022 28.7025 15.4689C28.6717 15.6356 28.625 15.7918 28.5625 15.9377L24.8125 24.7501C24.625 25.1668 24.3125 25.521 23.875 25.8126C23.4375 26.1043 22.9792 26.2501 22.5 26.2501H12.5ZM5 26.2501C4.3125 26.2501 3.72417 26.0056 3.235 25.5164C2.745 25.0264 2.5 24.4376 2.5 23.7501V12.5002C2.5 11.8127 2.745 11.2239 3.235 10.7339C3.72417 10.2447 4.3125 10.0002 5 10.0002C5.6875 10.0002 6.27583 10.2447 6.765 10.7339C7.255 11.2239 7.5 11.8127 7.5 12.5002V23.7501C7.5 24.4376 7.255 25.0264 6.765 25.5164C6.27583 26.0056 5.6875 26.2501 5 26.2501Z" fill="#EEF0F4"/>
</g>
</svg>
