<svg width="30" height="30" viewBox="0 0 30 30" fill="none" xmlns="http://www.w3.org/2000/svg">
<mask id="mask0_1289_33957" style="mask-type:alpha" maskUnits="userSpaceOnUse" x="0" y="0" width="30" height="30">
<rect width="30" height="30" fill="#D9D9D9"/>
</mask>
<g mask="url(#mask0_1289_33957)">
<path d="M22.5 8.75H7.5V5C7.5 4.64583 7.61958 4.34875 7.85875 4.10875C8.09875 3.86958 8.39583 3.75 8.75 3.75H21.25C21.6042 3.75 21.9008 3.86958 22.14 4.10875C22.38 4.34875 22.5 4.64583 22.5 5V8.75ZM22.5 15.625C22.8542 15.625 23.1508 15.505 23.39 15.265C23.63 15.0258 23.75 14.7292 23.75 14.375C23.75 14.0208 23.63 13.7237 23.39 13.4837C23.1508 13.2446 22.8542 13.125 22.5 13.125C22.1458 13.125 21.8492 13.2446 21.61 13.4837C21.37 13.7237 21.25 14.0208 21.25 14.375C21.25 14.7292 21.37 15.0258 21.61 15.265C21.8492 15.505 22.1458 15.625 22.5 15.625ZM10 23.75H20V18.75H10V23.75ZM10 26.25C9.3125 26.25 8.72417 26.0054 8.235 25.5163C7.745 25.0263 7.5 24.4375 7.5 23.75V21.25H3.75C3.39583 21.25 3.09917 21.13 2.86 20.89C2.62 20.6508 2.5 20.3542 2.5 20V13.75C2.5 12.6875 2.86458 11.7971 3.59375 11.0787C4.32292 10.3596 5.20833 10 6.25 10H23.75C24.8125 10 25.7033 10.3596 26.4225 11.0787C27.1408 11.7971 27.5 12.6875 27.5 13.75V20C27.5 20.3542 27.38 20.6508 27.14 20.89C26.9008 21.13 26.6042 21.25 26.25 21.25H22.5V23.75C22.5 24.4375 22.2554 25.0263 21.7663 25.5163C21.2763 26.0054 20.6875 26.25 20 26.25H10Z" fill="#EEF0F4"/>
</g>
</svg>
