<svg width="30" height="30" viewBox="0 0 30 30" fill="none" xmlns="http://www.w3.org/2000/svg">
<mask id="mask0_1484_35260" style="mask-type:alpha" maskUnits="userSpaceOnUse" x="0" y="0" width="30" height="30">
<rect width="30" height="30" fill="#D9D9D9"/>
</mask>
<g mask="url(#mask0_1484_35260)">
<path d="M8.125 25C6.22917 25 4.60958 24.3437 3.26625 23.0312C1.92208 21.7188 1.25 20.1146 1.25 18.2188C1.25 16.5938 1.73958 15.1458 2.71875 13.875C3.69792 12.6042 4.97917 11.7917 6.5625 11.4375C7.08333 9.52083 8.125 7.96875 9.6875 6.78125C11.25 5.59375 13.0208 5 15 5C17.4375 5 19.505 5.84875 21.2025 7.54625C22.9008 9.24458 23.75 11.3125 23.75 13.75C25.1875 13.9167 26.3804 14.5363 27.3288 15.6088C28.2763 16.6821 28.75 17.9375 28.75 19.375C28.75 20.9375 28.2033 22.2658 27.11 23.36C26.0158 24.4533 24.6875 25 23.125 25H8.125ZM8.125 22.5H23.125C24 22.5 24.7396 22.1979 25.3438 21.5938C25.9479 20.9896 26.25 20.25 26.25 19.375C26.25 18.5 25.9479 17.7604 25.3438 17.1562C24.7396 16.5521 24 16.25 23.125 16.25H21.25V13.75C21.25 12.0208 20.6408 10.5467 19.4225 9.3275C18.2033 8.10917 16.7292 7.5 15 7.5C13.2708 7.5 11.7971 8.10917 10.5788 9.3275C9.35958 10.5467 8.75 12.0208 8.75 13.75H8.125C6.91667 13.75 5.88542 14.1771 5.03125 15.0312C4.17708 15.8854 3.75 16.9167 3.75 18.125C3.75 19.3333 4.17708 20.3646 5.03125 21.2188C5.88542 22.0729 6.91667 22.5 8.125 22.5Z" fill="#EEF0F4"/>
</g>
</svg>
