<svg width="30" height="30" viewBox="0 0 30 30" fill="none" xmlns="http://www.w3.org/2000/svg">
<mask id="mask0_1363_32161" style="mask-type:alpha" maskUnits="userSpaceOnUse" x="0" y="0" width="30" height="30">
<rect width="30" height="30" fill="#D9D9D9"/>
</mask>
<g mask="url(#mask0_1363_32161)">
<path d="M14.375 27.5C12.4583 27.5 10.8333 26.8333 9.5 25.5C8.16667 24.1667 7.5 22.5417 7.5 20.625V7.5C7.5 6.125 7.98958 4.94792 8.96875 3.96875C9.94792 2.98958 11.125 2.5 12.5 2.5C13.875 2.5 15.0521 2.98958 16.0312 3.96875C17.0104 4.94792 17.5 6.125 17.5 7.5V19.375C17.5 20.25 17.1979 20.9896 16.5938 21.5938C15.9896 22.1979 15.25 22.5 14.375 22.5C13.5 22.5 12.7604 22.1979 12.1563 21.5938C11.5521 20.9896 11.25 20.25 11.25 19.375V8.4375C11.25 8.16667 11.3388 7.94292 11.5163 7.76625C11.6929 7.58875 11.9167 7.5 12.1875 7.5C12.4583 7.5 12.6825 7.58875 12.86 7.76625C13.0367 7.94292 13.125 8.16667 13.125 8.4375V19.375C13.125 19.7292 13.245 20.0258 13.485 20.265C13.7242 20.505 14.0208 20.625 14.375 20.625C14.7292 20.625 15.0263 20.505 15.2663 20.265C15.5054 20.0258 15.625 19.7292 15.625 19.375V7.5C15.625 6.625 15.3229 5.88542 14.7187 5.28125C14.1146 4.67708 13.375 4.375 12.5 4.375C11.625 4.375 10.8854 4.67708 10.2813 5.28125C9.67708 5.88542 9.375 6.625 9.375 7.5V20.625C9.375 22 9.86458 23.1771 10.8438 24.1562C11.8229 25.1354 13 25.625 14.375 25.625C15.75 25.625 16.9271 25.1354 17.9062 24.1562C18.8854 23.1771 19.375 22 19.375 20.625V8.4375C19.375 8.16667 19.4638 7.94292 19.6413 7.76625C19.8179 7.58875 20.0417 7.5 20.3125 7.5C20.5833 7.5 20.8075 7.58875 20.985 7.76625C21.1617 7.94292 21.25 8.16667 21.25 8.4375V20.625C21.25 22.5417 20.5833 24.1667 19.25 25.5C17.9167 26.8333 16.2917 27.5 14.375 27.5Z" fill="#EEF0F4"/>
</g>
</svg>
