<svg width="30" height="30" viewBox="0 0 30 30" fill="none" xmlns="http://www.w3.org/2000/svg">
<mask id="mask0_1304_27474" style="mask-type:alpha" maskUnits="userSpaceOnUse" x="0" y="0" width="30" height="30">
<rect width="30" height="30" fill="#D9D9D9"/>
</mask>
<g mask="url(#mask0_1304_27474)">
<path d="M15 27.5C13.2708 27.5 11.6458 27.1717 10.125 26.515C8.60417 25.8592 7.28125 24.9688 6.15625 23.8438C5.03125 22.7188 4.14083 21.3958 3.485 19.875C2.82833 18.3542 2.5 16.7292 2.5 15C2.5 13.2708 2.82833 11.6458 3.485 10.125C4.14083 8.60417 5.03125 7.28125 6.15625 6.15625C7.28125 5.03125 8.60417 4.14042 10.125 3.48375C11.6458 2.82792 13.2708 2.5 15 2.5C16.7292 2.5 18.3542 2.82792 19.875 3.48375C21.3958 4.14042 22.7188 5.03125 23.8438 6.15625C24.9688 7.28125 25.8592 8.60417 26.515 10.125C27.1717 11.6458 27.5 13.2708 27.5 15C27.5 16.7292 27.1717 18.3542 26.515 19.875C25.8592 21.3958 24.9688 22.7188 23.8438 23.8438C22.7188 24.9688 21.3958 25.8592 19.875 26.515C18.3542 27.1717 16.7292 27.5 15 27.5ZM13.75 24.9375V22.5C13.0625 22.5 12.4742 22.2554 11.985 21.7663C11.495 21.2763 11.25 20.6875 11.25 20V18.75L5.25 12.75C5.1875 13.125 5.13 13.5 5.0775 13.875C5.02583 14.25 5 14.625 5 15C5 17.5208 5.82833 19.7292 7.485 21.625C9.14083 23.5208 11.2292 24.625 13.75 24.9375ZM22.375 21.75C22.7917 21.2917 23.1667 20.7967 23.5 20.265C23.8333 19.7342 24.1096 19.1821 24.3287 18.6087C24.5471 18.0363 24.7138 17.4479 24.8288 16.8438C24.9429 16.2396 25 15.625 25 15C25 12.9583 24.4325 11.0938 23.2975 9.40625C22.1617 7.71875 20.6458 6.5 18.75 5.75V6.25C18.75 6.9375 18.5054 7.52583 18.0163 8.015C17.5262 8.505 16.9375 8.75 16.25 8.75H13.75V11.25C13.75 11.6042 13.6304 11.9008 13.3913 12.14C13.1513 12.38 12.8542 12.5 12.5 12.5H10V15H17.5C17.8542 15 18.1513 15.1196 18.3913 15.3587C18.6304 15.5987 18.75 15.8958 18.75 16.25V20H20C20.5417 20 21.0312 20.1612 21.4688 20.4837C21.9062 20.8071 22.2083 21.2292 22.375 21.75Z" fill="#EEF0F4"/>
</g>
</svg>
