<svg width="30" height="30" viewBox="0 0 30 30" fill="none" xmlns="http://www.w3.org/2000/svg">
<mask id="mask0_1427_34505" style="mask-type:alpha" maskUnits="userSpaceOnUse" x="0" y="0" width="30" height="30">
<rect width="30" height="30" fill="#D9D9D9"/>
</mask>
<g mask="url(#mask0_1427_34505)">
<path d="M11.3438 26.25C11.0104 26.25 10.6925 26.1875 10.39 26.0625C10.0883 25.9375 9.82292 25.7604 9.59375 25.5312L4.46875 20.4062C4.23958 20.1771 4.0625 19.9117 3.9375 19.61C3.8125 19.3075 3.75 18.9896 3.75 18.6562V11.3438C3.75 11.0104 3.8125 10.6925 3.9375 10.39C4.0625 10.0883 4.23958 9.82292 4.46875 9.59375L9.59375 4.46875C9.82292 4.23958 10.0883 4.0625 10.39 3.9375C10.6925 3.8125 11.0104 3.75 11.3438 3.75H18.6562C18.9896 3.75 19.3075 3.8125 19.61 3.9375C19.9117 4.0625 20.1771 4.23958 20.4062 4.46875L25.5312 9.59375C25.7604 9.82292 25.9375 10.0883 26.0625 10.39C26.1875 10.6925 26.25 11.0104 26.25 11.3438V18.6562C26.25 18.9896 26.1875 19.3075 26.0625 19.61C25.9375 19.9117 25.7604 20.1771 25.5312 20.4062L20.4062 25.5312C20.1771 25.7604 19.9117 25.9375 19.61 26.0625C19.3075 26.1875 18.9896 26.25 18.6562 26.25H11.3438ZM15 21.25C15.3542 21.25 15.6513 21.13 15.8913 20.89C16.1304 20.6508 16.25 20.3542 16.25 20C16.25 19.6458 16.1304 19.3487 15.8913 19.1087C15.6513 18.8696 15.3542 18.75 15 18.75C14.6458 18.75 14.3492 18.8696 14.11 19.1087C13.87 19.3487 13.75 19.6458 13.75 20C13.75 20.3542 13.87 20.6508 14.11 20.89C14.3492 21.13 14.6458 21.25 15 21.25ZM15 16.25C15.3542 16.25 15.6513 16.13 15.8913 15.89C16.1304 15.6508 16.25 15.3542 16.25 15V10C16.25 9.64583 16.1304 9.34875 15.8913 9.10875C15.6513 8.86958 15.3542 8.75 15 8.75C14.6458 8.75 14.3492 8.86958 14.11 9.10875C13.87 9.34875 13.75 9.64583 13.75 10V15C13.75 15.3542 13.87 15.6508 14.11 15.89C14.3492 16.13 14.6458 16.25 15 16.25Z" fill="#EEF0F4"/>
</g>
</svg>
