<svg width="30" height="30" viewBox="0 0 30 30" fill="none" xmlns="http://www.w3.org/2000/svg">
<mask id="mask0_1304_27483" style="mask-type:alpha" maskUnits="userSpaceOnUse" x="0" y="0" width="30" height="30">
<rect width="30" height="30" fill="#D9D9D9"/>
</mask>
<g mask="url(#mask0_1304_27483)">
<path d="M7.5 25C6.8125 25 6.22417 24.7554 5.735 24.2663C5.245 23.7763 5 23.1875 5 22.5V17.5C5 16.8125 5.245 16.2238 5.735 15.7337C6.22417 15.2446 6.8125 15 7.5 15C8.1875 15 8.77583 15.2446 9.265 15.7337C9.755 16.2238 10 16.8125 10 17.5V22.5C10 23.1875 9.755 23.7763 9.265 24.2663C8.77583 24.7554 8.1875 25 7.5 25ZM15 25C14.3125 25 13.7242 24.7554 13.235 24.2663C12.745 23.7763 12.5 23.1875 12.5 22.5V7.5C12.5 6.8125 12.745 6.22417 13.235 5.735C13.7242 5.245 14.3125 5 15 5C15.6875 5 16.2762 5.245 16.7663 5.735C17.2554 6.22417 17.5 6.8125 17.5 7.5V22.5C17.5 23.1875 17.2554 23.7763 16.7663 24.2663C16.2762 24.7554 15.6875 25 15 25ZM22.5 25C21.8125 25 21.2237 24.7554 20.7337 24.2663C20.2446 23.7763 20 23.1875 20 22.5V13.75C20 13.0625 20.2446 12.4737 20.7337 11.9837C21.2237 11.4946 21.8125 11.25 22.5 11.25C23.1875 11.25 23.7763 11.4946 24.2663 11.9837C24.7554 12.4737 25 13.0625 25 13.75V22.5C25 23.1875 24.7554 23.7763 24.2663 24.2663C23.7763 24.7554 23.1875 25 22.5 25Z" fill="#EEF0F4"/>
</g>
</svg>
