<svg width="30" height="30" viewBox="0 0 30 30" fill="none" xmlns="http://www.w3.org/2000/svg">
<mask id="mask0_1318_27781" style="mask-type:alpha" maskUnits="userSpaceOnUse" x="0" y="0" width="30" height="30">
<rect width="30" height="30" fill="#D9D9D9"/>
</mask>
<g mask="url(#mask0_1318_27781)">
<path d="M15 27.5C13.2708 27.5 11.6458 27.1717 10.125 26.515C8.60417 25.8592 7.28125 24.9688 6.15625 23.8438C5.03125 22.7188 4.14083 21.3958 3.485 19.875C2.82833 18.3542 2.5 16.7292 2.5 15C2.5 13.2708 2.82833 11.6458 3.485 10.125C4.14083 8.60417 5.03125 7.28125 6.15625 6.15625C7.28125 5.03125 8.60417 4.14042 10.125 3.48375C11.6458 2.82792 13.2708 2.5 15 2.5C16.7292 2.5 18.3542 2.82792 19.875 3.48375C21.3958 4.14042 22.7188 5.03125 23.8438 6.15625C24.9688 7.28125 25.8592 8.60417 26.515 10.125C27.1717 11.6458 27.5 13.2708 27.5 15C27.5 16.7292 27.1717 18.3542 26.515 19.875C25.8592 21.3958 24.9688 22.7188 23.8438 23.8438C22.7188 24.9688 21.3958 25.8592 19.875 26.515C18.3542 27.1717 16.7292 27.5 15 27.5ZM11.375 24.3125L12.875 20.875C12 20.5625 11.245 20.0779 10.61 19.4212C9.97417 18.7654 9.47917 18 9.125 17.125L5.6875 18.5625C6.16667 19.8958 6.90625 21.0625 7.90625 22.0625C8.90625 23.0625 10.0625 23.8125 11.375 24.3125ZM9.125 12.875C9.47917 12 9.97417 11.2346 10.61 10.5788C11.245 9.92208 12 9.4375 12.875 9.125L11.4375 5.6875C10.1042 6.1875 8.9375 6.9375 7.9375 7.9375C6.9375 8.9375 6.1875 10.1042 5.6875 11.4375L9.125 12.875ZM15 18.75C16.0417 18.75 16.9271 18.3854 17.6562 17.6562C18.3854 16.9271 18.75 16.0417 18.75 15C18.75 13.9583 18.3854 13.0729 17.6562 12.3438C16.9271 11.6146 16.0417 11.25 15 11.25C13.9583 11.25 13.0729 11.6146 12.3438 12.3438C11.6146 13.0729 11.25 13.9583 11.25 15C11.25 16.0417 11.6146 16.9271 12.3438 17.6562C13.0729 18.3854 13.9583 18.75 15 18.75ZM18.625 24.3125C19.9375 23.8125 21.0888 23.0679 22.0788 22.0788C23.0679 21.0888 23.8125 19.9375 24.3125 18.625L20.875 17.125C20.5625 18 20.0833 18.755 19.4375 19.39C18.7917 20.0258 18.0417 20.5208 17.1875 20.875L18.625 24.3125ZM20.875 12.8125L24.3125 11.375C23.8125 10.0625 23.0679 8.91125 22.0788 7.92125C21.0888 6.93208 19.9375 6.1875 18.625 5.6875L17.1875 9.1875C18.0417 9.5 18.7812 9.97375 19.4062 10.6088C20.0312 11.2446 20.5208 11.9792 20.875 12.8125Z" fill="#EEF0F4"/>
</g>
</svg>
