<svg width="30" height="30" viewBox="0 0 30 30" fill="none" xmlns="http://www.w3.org/2000/svg">
<mask id="mask0_1476_35417" style="mask-type:alpha" maskUnits="userSpaceOnUse" x="0" y="0" width="30" height="30">
<rect width="30" height="30" fill="#D9D9D9"/>
</mask>
<g mask="url(#mask0_1476_35417)">
<path d="M19.1875 25.375C18.7708 25.5417 18.3854 25.4896 18.0312 25.2188C17.6771 24.9479 17.5 24.5729 17.5 24.0938C17.5 23.8646 17.5679 23.6617 17.7038 23.485C17.8387 23.3075 18.0104 23.1771 18.2188 23.0938C19.8854 22.4271 21.2242 21.3646 22.235 19.9063C23.245 18.4479 23.75 16.8021 23.75 14.9688C23.75 13.1354 23.245 11.4896 22.235 10.0313C21.2242 8.57294 19.8854 7.51044 18.2188 6.84377C17.9896 6.76044 17.8125 6.62502 17.6875 6.43752C17.5625 6.25002 17.5 6.04169 17.5 5.81252C17.5 5.35419 17.6771 4.98961 18.0312 4.71877C18.3854 4.44794 18.7708 4.39586 19.1875 4.56252C21.3125 5.41669 23.0208 6.78127 24.3125 8.65627C25.6042 10.5313 26.25 12.6354 26.25 14.9688C26.25 17.3021 25.6042 19.4063 24.3125 21.2813C23.0208 23.1563 21.3125 24.5209 19.1875 25.375ZM5 18.75C4.64583 18.75 4.34917 18.63 4.11 18.39C3.87 18.1509 3.75 17.8542 3.75 17.5V12.5C3.75 12.1459 3.87 11.8488 4.11 11.6088C4.34917 11.3696 4.64583 11.25 5 11.25H8.75L12.875 7.12502C13.2708 6.72919 13.7238 6.64044 14.2338 6.85877C14.7446 7.07794 15 7.46877 15 8.03127V21.9688C15 22.5313 14.7446 22.9217 14.2338 23.14C13.7238 23.3592 13.2708 23.2709 12.875 22.875L8.75 18.75H5ZM17.5 20V9.93752C18.4375 10.375 19.1925 11.0521 19.765 11.9688C20.3383 12.8854 20.625 13.8959 20.625 15C20.625 16.1042 20.3383 17.1042 19.765 18C19.1925 18.8959 18.4375 19.5625 17.5 20ZM12.5 11.0625L9.8125 13.75H6.25V16.25H9.8125L12.5 18.9375V11.0625Z" fill="#EEF0F4"/>
</g>
</svg>
