<svg width="30" height="30" viewBox="0 0 30 30" fill="none" xmlns="http://www.w3.org/2000/svg">
<mask id="mask0_1363_32159" style="mask-type:alpha" maskUnits="userSpaceOnUse" x="0" y="0" width="30" height="30">
<rect width="30" height="30" fill="#D9D9D9"/>
</mask>
<g mask="url(#mask0_1363_32159)">
<path d="M19.375 13.75C19.9167 13.75 20.3646 13.5729 20.7188 13.2188C21.0729 12.8646 21.25 12.4167 21.25 11.875C21.25 11.3333 21.0729 10.8854 20.7188 10.5312C20.3646 10.1771 19.9167 10 19.375 10C18.8333 10 18.3854 10.1771 18.0312 10.5312C17.6771 10.8854 17.5 11.3333 17.5 11.875C17.5 12.4167 17.6771 12.8646 18.0312 13.2188C18.3854 13.5729 18.8333 13.75 19.375 13.75ZM10.625 13.75C11.1667 13.75 11.6146 13.5729 11.9688 13.2188C12.3229 12.8646 12.5 12.4167 12.5 11.875C12.5 11.3333 12.3229 10.8854 11.9688 10.5312C11.6146 10.1771 11.1667 10 10.625 10C10.0833 10 9.63542 10.1771 9.28125 10.5312C8.92708 10.8854 8.75 11.3333 8.75 11.875C8.75 12.4167 8.92708 12.8646 9.28125 13.2188C9.63542 13.5729 10.0833 13.75 10.625 13.75ZM15 21.875C16.1875 21.875 17.2708 21.6096 18.25 21.0788C19.2292 20.5471 19.9896 19.875 20.5312 19.0625C20.7812 18.6875 20.8179 18.3333 20.6413 18C20.4638 17.6667 20.1875 17.5 19.8125 17.5C19.6667 17.5 19.5208 17.5417 19.375 17.625C19.2292 17.7083 19.1146 17.8125 19.0312 17.9375C18.5729 18.5625 18 19.0625 17.3125 19.4375C16.625 19.8125 15.8542 20 15 20C14.1458 20 13.375 19.8125 12.6875 19.4375C12 19.0625 11.4271 18.5625 10.9688 17.9375C10.8854 17.8125 10.7658 17.7083 10.61 17.625C10.4533 17.5417 10.3021 17.5 10.1562 17.5C9.80208 17.5 9.53667 17.6613 9.36 17.9838C9.1825 18.3071 9.20833 18.6458 9.4375 19C10 19.8542 10.7708 20.5471 11.75 21.0788C12.7292 21.6096 13.8125 21.875 15 21.875ZM15 27.5C13.2708 27.5 11.6458 27.1717 10.125 26.515C8.60417 25.8592 7.28125 24.9688 6.15625 23.8438C5.03125 22.7188 4.14083 21.3958 3.485 19.875C2.82833 18.3542 2.5 16.7292 2.5 15C2.5 13.2708 2.82833 11.6458 3.485 10.125C4.14083 8.60417 5.03125 7.28125 6.15625 6.15625C7.28125 5.03125 8.60417 4.14042 10.125 3.48375C11.6458 2.82792 13.2708 2.5 15 2.5C16.7292 2.5 18.3542 2.82792 19.875 3.48375C21.3958 4.14042 22.7188 5.03125 23.8438 6.15625C24.9688 7.28125 25.8592 8.60417 26.515 10.125C27.1717 11.6458 27.5 13.2708 27.5 15C27.5 16.7292 27.1717 18.3542 26.515 19.875C25.8592 21.3958 24.9688 22.7188 23.8438 23.8438C22.7188 24.9688 21.3958 25.8592 19.875 26.515C18.3542 27.1717 16.7292 27.5 15 27.5Z" fill="#EEF0F4"/>
</g>
</svg>
