<svg width="30" height="30" viewBox="0 0 30 30" fill="none" xmlns="http://www.w3.org/2000/svg">
<mask id="mask0_1476_35412" style="mask-type:alpha" maskUnits="userSpaceOnUse" x="0" y="0" width="30" height="30">
<rect width="30" height="30" fill="#D9D9D9"/>
</mask>
<g mask="url(#mask0_1476_35412)">
<path d="M19.375 13.75C19.9167 13.75 20.3646 13.5729 20.7188 13.2188C21.0729 12.8646 21.25 12.4167 21.25 11.875C21.25 11.3333 21.0729 10.8854 20.7188 10.5312C20.3646 10.1771 19.9167 10 19.375 10C18.8333 10 18.3854 10.1771 18.0312 10.5312C17.6771 10.8854 17.5 11.3333 17.5 11.875C17.5 12.4167 17.6771 12.8646 18.0312 13.2188C18.3854 13.5729 18.8333 13.75 19.375 13.75ZM10.625 13.75C11.1667 13.75 11.6146 13.5729 11.9688 13.2188C12.3229 12.8646 12.5 12.4167 12.5 11.875C12.5 11.3333 12.3229 10.8854 11.9688 10.5312C11.6146 10.1771 11.1667 10 10.625 10C10.0833 10 9.63542 10.1771 9.28125 10.5312C8.92708 10.8854 8.75 11.3333 8.75 11.875C8.75 12.4167 8.92708 12.8646 9.28125 13.2188C9.63542 13.5729 10.0833 13.75 10.625 13.75ZM15 21.875C16.2917 21.875 17.4479 21.5625 18.4688 20.9375C19.4896 20.3125 20.3021 19.4896 20.9062 18.4688C21.0521 18.2187 21.0625 17.995 20.9375 17.7975C20.8125 17.5992 20.6042 17.5 20.3125 17.5H9.6875C9.39583 17.5 9.1875 17.5992 9.0625 17.7975C8.9375 17.995 8.94792 18.2187 9.09375 18.4688C9.69792 19.4896 10.5104 20.3125 11.5312 20.9375C12.5521 21.5625 13.7083 21.875 15 21.875ZM15 27.5C13.2708 27.5 11.6458 27.1717 10.125 26.515C8.60417 25.8592 7.28125 24.9688 6.15625 23.8438C5.03125 22.7188 4.14083 21.3958 3.485 19.875C2.82833 18.3542 2.5 16.7292 2.5 15C2.5 13.2708 2.82833 11.6458 3.485 10.125C4.14083 8.60417 5.03125 7.28125 6.15625 6.15625C7.28125 5.03125 8.60417 4.14042 10.125 3.48375C11.6458 2.82792 13.2708 2.5 15 2.5C16.7292 2.5 18.3542 2.82792 19.875 3.48375C21.3958 4.14042 22.7188 5.03125 23.8438 6.15625C24.9688 7.28125 25.8592 8.60417 26.515 10.125C27.1717 11.6458 27.5 13.2708 27.5 15C27.5 16.7292 27.1717 18.3542 26.515 19.875C25.8592 21.3958 24.9688 22.7188 23.8438 23.8438C22.7188 24.9688 21.3958 25.8592 19.875 26.515C18.3542 27.1717 16.7292 27.5 15 27.5Z" fill="#EEF0F4"/>
</g>
</svg>
