<svg width="30" height="30" viewBox="0 0 30 30" fill="none" xmlns="http://www.w3.org/2000/svg">
<mask id="mask0_1289_34050" style="mask-type:alpha" maskUnits="userSpaceOnUse" x="0" y="0" width="30" height="30">
<rect width="30" height="30" fill="#D9D9D9"/>
</mask>
<g mask="url(#mask0_1289_34050)">
<path d="M15 11.25C14.6458 11.25 14.3492 11.13 14.11 10.89C13.87 10.6508 13.75 10.3542 13.75 10V7.5H11.25C10.8958 7.5 10.5992 7.38042 10.36 7.14125C10.12 6.90125 10 6.60417 10 6.25C10 5.89583 10.12 5.59875 10.36 5.35875C10.5992 5.11958 10.8958 5 11.25 5H13.75V2.5C13.75 2.14583 13.87 1.84875 14.11 1.60875C14.3492 1.36958 14.6458 1.25 15 1.25C15.3542 1.25 15.6512 1.36958 15.8912 1.60875C16.1304 1.84875 16.25 2.14583 16.25 2.5V5H18.75C19.1042 5 19.4012 5.11958 19.6412 5.35875C19.8804 5.59875 20 5.89583 20 6.25C20 6.60417 19.8804 6.90125 19.6412 7.14125C19.4012 7.38042 19.1042 7.5 18.75 7.5H16.25V10C16.25 10.3542 16.1304 10.6508 15.8912 10.89C15.6512 11.13 15.3542 11.25 15 11.25ZM8.75 27.5C8.0625 27.5 7.47417 27.2554 6.985 26.7663C6.495 26.2763 6.25 25.6875 6.25 25C6.25 24.3125 6.495 23.7237 6.985 23.2337C7.47417 22.7446 8.0625 22.5 8.75 22.5C9.4375 22.5 10.0258 22.7446 10.515 23.2337C11.005 23.7237 11.25 24.3125 11.25 25C11.25 25.6875 11.005 26.2763 10.515 26.7663C10.0258 27.2554 9.4375 27.5 8.75 27.5ZM21.25 27.5C20.5625 27.5 19.9742 27.2554 19.485 26.7663C18.995 26.2763 18.75 25.6875 18.75 25C18.75 24.3125 18.995 23.7237 19.485 23.2337C19.9742 22.7446 20.5625 22.5 21.25 22.5C21.9375 22.5 22.5262 22.7446 23.0162 23.2337C23.5054 23.7237 23.75 24.3125 23.75 25C23.75 25.6875 23.5054 26.2763 23.0162 26.7663C22.5262 27.2554 21.9375 27.5 21.25 27.5ZM8.75 21.25C7.79167 21.25 7.06792 20.8383 6.57875 20.015C6.08875 19.1925 6.08333 18.375 6.5625 17.5625L8.25 14.5L3.75 5H2.5C2.14583 5 1.84917 4.88 1.61 4.64C1.37 4.40083 1.25 4.10417 1.25 3.75C1.25 3.39583 1.37 3.09875 1.61 2.85875C1.84917 2.61958 2.14583 2.5 2.5 2.5H4.53125C4.76042 2.5 4.97917 2.5625 5.1875 2.6875C5.39583 2.8125 5.55208 2.98958 5.65625 3.21875L10.6875 13.75H19.4375L23.9062 5.65625C24.0104 5.44792 24.1617 5.28625 24.36 5.17125C24.5575 5.05708 24.7708 5 25 5C25.4792 5 25.8387 5.20833 26.0787 5.625C26.3179 6.04167 26.3229 6.45833 26.0937 6.875L21.625 14.9375C21.3958 15.3542 21.0938 15.6771 20.7188 15.9062C20.3438 16.1354 19.9167 16.25 19.4375 16.25H10.125L8.75 18.75H22.5C22.8542 18.75 23.1508 18.8696 23.39 19.1087C23.63 19.3487 23.75 19.6458 23.75 20C23.75 20.3542 23.63 20.6508 23.39 20.89C23.1508 21.13 22.8542 21.25 22.5 21.25H8.75Z" fill="#EEF0F4"/>
</g>
</svg>
