<svg width="30" height="30" viewBox="0 0 30 30" fill="none" xmlns="http://www.w3.org/2000/svg">
<mask id="mask0_1427_34497" style="mask-type:alpha" maskUnits="userSpaceOnUse" x="0" y="0" width="30" height="30">
<rect width="30" height="30" fill="#D9D9D9"/>
</mask>
<g mask="url(#mask0_1427_34497)">
<path d="M7.5 27.5C6.8125 27.5 6.22417 27.2554 5.735 26.7663C5.245 26.2763 5 25.6875 5 25V5C5 4.3125 5.245 3.72375 5.735 3.23375C6.22417 2.74458 6.8125 2.5 7.5 2.5H16.4688C16.8021 2.5 17.12 2.5625 17.4225 2.6875C17.7242 2.8125 17.9896 2.98958 18.2188 3.21875L24.2812 9.28125C24.5104 9.51042 24.6875 9.77583 24.8125 10.0775C24.9375 10.38 25 10.6979 25 11.0312V25C25 25.6875 24.7554 26.2763 24.2663 26.7663C23.7763 27.2554 23.1875 27.5 22.5 27.5H7.5ZM16.25 10C16.25 10.3542 16.37 10.6508 16.61 10.89C16.8492 11.13 17.1458 11.25 17.5 11.25H22.5L16.25 5V10Z" fill="#EEF0F4"/>
</g>
</svg>
