<svg width="30" height="30" viewBox="0 0 30 30" fill="none" xmlns="http://www.w3.org/2000/svg">
<mask id="mask0_1304_27562" style="mask-type:alpha" maskUnits="userSpaceOnUse" x="0" y="0" width="30" height="30">
<rect width="30" height="30" fill="#D9D9D9"/>
</mask>
<g mask="url(#mask0_1304_27562)">
<path d="M2.5 16.25V10C2.5 9.3125 2.745 8.72417 3.235 8.235C3.72417 7.745 4.3125 7.5 5 7.5H10V5C10 4.3125 10.245 3.72375 10.735 3.23375C11.2242 2.74458 11.8125 2.5 12.5 2.5H17.5C18.1875 2.5 18.7763 2.74458 19.2663 3.23375C19.7554 3.72375 20 4.3125 20 5V7.5H25C25.6875 7.5 26.2763 7.745 26.7663 8.235C27.2554 8.72417 27.5 9.3125 27.5 10V16.25H18.75V15C18.75 14.6458 18.6304 14.3487 18.3913 14.1087C18.1513 13.8696 17.8542 13.75 17.5 13.75H12.5C12.1458 13.75 11.8492 13.8696 11.61 14.1087C11.37 14.3487 11.25 14.6458 11.25 15V16.25H2.5ZM12.5 7.5H17.5V5H12.5V7.5ZM13.75 18.75V16.25H16.25V18.75H13.75ZM5 26.25C4.3125 26.25 3.72417 26.0054 3.235 25.5163C2.745 25.0263 2.5 24.4375 2.5 23.75V18.75H11.25V20C11.25 20.3542 11.37 20.6508 11.61 20.89C11.8492 21.13 12.1458 21.25 12.5 21.25H17.5C17.8542 21.25 18.1513 21.13 18.3913 20.89C18.6304 20.6508 18.75 20.3542 18.75 20V18.75H27.5V23.75C27.5 24.4375 27.2554 25.0263 26.7663 25.5163C26.2763 26.0054 25.6875 26.25 25 26.25H5Z" fill="#EEF0F4"/>
</g>
</svg>
