<svg width="30" height="30" viewBox="0 0 30 30" fill="none" xmlns="http://www.w3.org/2000/svg">
<mask id="mask0_1348_29897" style="mask-type:alpha" maskUnits="userSpaceOnUse" x="0" y="0" width="30" height="30">
<rect width="30" height="30" fill="#D9D9D9"/>
</mask>
<g mask="url(#mask0_1348_29897)">
<path d="M7.5 25C6.45833 25 5.57292 24.6354 4.84375 23.9062C4.11458 23.1771 3.75 22.2917 3.75 21.25C3.0625 21.25 2.47417 21.0054 1.985 20.5163C1.495 20.0262 1.25 19.4375 1.25 18.75V7.5C1.25 6.8125 1.495 6.22417 1.985 5.735C2.47417 5.245 3.0625 5 3.75 5H18.75C19.4375 5 20.0263 5.245 20.5163 5.735C21.0054 6.22417 21.25 6.8125 21.25 7.5V10H24.375C24.5833 10 24.7708 10.0417 24.9375 10.125C25.1042 10.2083 25.25 10.3333 25.375 10.5L28.5 14.6562C28.5833 14.7604 28.6458 14.875 28.6875 15C28.7292 15.125 28.75 15.2604 28.75 15.4062V20C28.75 20.3542 28.63 20.6508 28.39 20.89C28.1508 21.13 27.8542 21.25 27.5 21.25H26.25C26.25 22.2917 25.8854 23.1771 25.1562 23.9062C24.4271 24.6354 23.5417 25 22.5 25C21.4583 25 20.5729 24.6354 19.8438 23.9062C19.1146 23.1771 18.75 22.2917 18.75 21.25H11.25C11.25 22.2917 10.8854 23.1771 10.1562 23.9062C9.42708 24.6354 8.54167 25 7.5 25ZM7.5 22.5C7.85417 22.5 8.15125 22.38 8.39125 22.14C8.63042 21.9008 8.75 21.6042 8.75 21.25C8.75 20.8958 8.63042 20.5992 8.39125 20.36C8.15125 20.12 7.85417 20 7.5 20C7.14583 20 6.84875 20.12 6.60875 20.36C6.36958 20.5992 6.25 20.8958 6.25 21.25C6.25 21.6042 6.36958 21.9008 6.60875 22.14C6.84875 22.38 7.14583 22.5 7.5 22.5ZM3.75 7.5V18.75H4.75C5.10417 18.375 5.51042 18.0729 5.96875 17.8438C6.42708 17.6146 6.9375 17.5 7.5 17.5C8.0625 17.5 8.57292 17.6146 9.03125 17.8438C9.48958 18.0729 9.89583 18.375 10.25 18.75H18.75V7.5H3.75ZM22.5 22.5C22.8542 22.5 23.1508 22.38 23.39 22.14C23.63 21.9008 23.75 21.6042 23.75 21.25C23.75 20.8958 23.63 20.5992 23.39 20.36C23.1508 20.12 22.8542 20 22.5 20C22.1458 20 21.8492 20.12 21.61 20.36C21.37 20.5992 21.25 20.8958 21.25 21.25C21.25 21.6042 21.37 21.9008 21.61 22.14C21.8492 22.38 22.1458 22.5 22.5 22.5ZM21.25 16.25H26.5625L23.75 12.5H21.25V16.25Z" fill="#EEF0F4"/>
</g>
</svg>
