<svg width="30" height="30" viewBox="0 0 30 30" fill="none" xmlns="http://www.w3.org/2000/svg">
<mask id="mask0_1476_35406" style="mask-type:alpha" maskUnits="userSpaceOnUse" x="0" y="0" width="30" height="30">
<rect width="30" height="30" fill="#D9D9D9"/>
</mask>
<g mask="url(#mask0_1476_35406)">
<path d="M15.5 27.5L18.2188 25C20.4479 22.9167 21.9271 21.3283 22.6562 20.235C23.3854 19.1408 23.75 17.9688 23.75 16.7188C23.75 16.1771 23.6771 15.6667 23.5312 15.1875C23.3854 14.7083 23.1667 14.2292 22.875 13.75H25C25.6875 13.75 26.2763 13.9946 26.7663 14.4837C27.2554 14.9738 27.5 15.5625 27.5 16.25V26.25C27.5 26.6042 27.38 26.9008 27.14 27.14C26.9008 27.38 26.6042 27.5 26.25 27.5H15.5ZM2.5 26.25V16.25C2.5 15.5625 2.73958 14.9738 3.21875 14.4837C3.69792 13.9946 4.29167 13.75 5 13.75H7.09375C6.82292 14.1875 6.61458 14.6613 6.46875 15.1713C6.32292 15.6821 6.25 16.1979 6.25 16.7188C6.25 17.9688 6.59917 19.1408 7.2975 20.235C7.995 21.3283 9.47917 22.9167 11.75 25L14.5 27.5H3.75C3.39583 27.5 3.09917 27.38 2.86 27.14C2.62 26.9008 2.5 26.6042 2.5 26.25ZM23.75 12.5C22.6875 12.5 21.7971 12.1404 21.0788 11.4213C20.3596 10.7029 20 9.8125 20 8.75C20 7.70833 20.3596 6.82292 21.0788 6.09375C21.7971 5.36458 22.6875 5 23.75 5C24.7917 5 25.6771 5.36458 26.4062 6.09375C27.1354 6.82292 27.5 7.70833 27.5 8.75C27.5 9.8125 27.1354 10.7029 26.4062 11.4213C25.6771 12.1404 24.7917 12.5 23.75 12.5ZM15 11.25C13.7708 11.25 12.7342 10.8279 11.89 9.98375C11.0467 9.14042 10.625 8.10417 10.625 6.875C10.625 5.66667 11.0467 4.63542 11.89 3.78125C12.7342 2.92708 13.7708 2.5 15 2.5C16.2083 2.5 17.2396 2.92708 18.0938 3.78125C18.9479 4.63542 19.375 5.66667 19.375 6.875C19.375 8.10417 18.9479 9.14042 18.0938 9.98375C17.2396 10.8279 16.2083 11.25 15 11.25ZM8.75 16.7188C8.75 17.5729 9.16667 18.5312 10 19.5938C10.8333 20.6562 12.4896 22.3125 14.9688 24.5625C17.4271 22.3542 19.0888 20.7133 19.9538 19.64C20.8179 18.5675 21.25 17.5938 21.25 16.7188C21.25 15.8854 20.9688 15.1825 20.4062 14.61C19.8438 14.0367 19.1667 13.75 18.375 13.75C17.8958 13.75 17.4479 13.8646 17.0312 14.0938C16.6146 14.3229 16.25 14.6042 15.9375 14.9375L14.9688 15.9375L14.0312 14.9688C13.7396 14.6562 13.4062 14.375 13.0312 14.125C12.6562 13.875 12.1875 13.75 11.625 13.75C10.7708 13.75 10.0783 14.0367 9.5475 14.61C9.01583 15.1825 8.75 15.8854 8.75 16.7188ZM6.25 12.5C5.1875 12.5 4.29667 12.1404 3.5775 11.4213C2.85917 10.7029 2.5 9.8125 2.5 8.75C2.5 7.70833 2.85917 6.82292 3.5775 6.09375C4.29667 5.36458 5.1875 5 6.25 5C7.29167 5 8.17708 5.36458 8.90625 6.09375C9.63542 6.82292 10 7.70833 10 8.75C10 9.8125 9.63542 10.7029 8.90625 11.4213C8.17708 12.1404 7.29167 12.5 6.25 12.5Z" fill="#EEF0F4"/>
</g>
</svg>
