<svg width="30" height="30" viewBox="0 0 30 30" fill="none" xmlns="http://www.w3.org/2000/svg">
<mask id="mask0_1476_35408" style="mask-type:alpha" maskUnits="userSpaceOnUse" x="0" y="0" width="30" height="30">
<rect width="30" height="30" fill="#D9D9D9"/>
</mask>
<g mask="url(#mask0_1476_35408)">
<path d="M5.6873 23.75C4.6248 23.75 3.80189 23.3804 3.21855 22.6413C2.63522 21.9013 2.41647 21 2.5623 19.9375L3.8748 10.5625C4.0623 9.3125 4.61981 8.28125 5.54731 7.46875C6.47397 6.65625 7.5623 6.25 8.8123 6.25H21.1873C22.4373 6.25 23.5256 6.65625 24.4523 7.46875C25.3798 8.28125 25.9373 9.3125 26.1248 10.5625L27.4373 19.9375C27.5831 21 27.3644 21.9013 26.7811 22.6413C26.1977 23.3804 25.3748 23.75 24.3123 23.75C23.8748 23.75 23.4686 23.6717 23.0936 23.515C22.7186 23.3592 22.3748 23.125 22.0623 22.8125L19.2498 20H10.7498L7.9373 22.8125C7.6248 23.125 7.28105 23.3592 6.90605 23.515C6.53105 23.6717 6.1248 23.75 5.6873 23.75ZM21.2498 16.25C21.604 16.25 21.9006 16.13 22.1398 15.89C22.3798 15.6508 22.4998 15.3542 22.4998 15C22.4998 14.6458 22.3798 14.3487 22.1398 14.1087C21.9006 13.8696 21.604 13.75 21.2498 13.75C20.8956 13.75 20.599 13.8696 20.3598 14.1087C20.1198 14.3487 19.9998 14.6458 19.9998 15C19.9998 15.3542 20.1198 15.6508 20.3598 15.89C20.599 16.13 20.8956 16.25 21.2498 16.25ZM18.7498 12.5C19.104 12.5 19.4011 12.38 19.6411 12.14C19.8802 11.9008 19.9998 11.6042 19.9998 11.25C19.9998 10.8958 19.8802 10.5987 19.6411 10.3587C19.4011 10.1196 19.104 10 18.7498 10C18.3956 10 18.099 10.1196 17.8598 10.3587C17.6198 10.5987 17.4998 10.8958 17.4998 11.25C17.4998 11.6042 17.6198 11.9008 17.8598 12.14C18.099 12.38 18.3956 12.5 18.7498 12.5ZM10.6248 16.25C10.8956 16.25 11.1198 16.1612 11.2973 15.9837C11.474 15.8071 11.5623 15.5833 11.5623 15.3125V14.0625H12.8123C13.0831 14.0625 13.3073 13.9737 13.4848 13.7962C13.6615 13.6196 13.7498 13.3958 13.7498 13.125C13.7498 12.8542 13.6615 12.63 13.4848 12.4525C13.3073 12.2758 13.0831 12.1875 12.8123 12.1875H11.5623V10.9375C11.5623 10.6667 11.474 10.4425 11.2973 10.265C11.1198 10.0883 10.8956 10 10.6248 10C10.354 10 10.1302 10.0883 9.95355 10.265C9.77605 10.4425 9.6873 10.6667 9.6873 10.9375V12.1875H8.4373C8.16647 12.1875 7.94272 12.2758 7.76605 12.4525C7.58855 12.63 7.4998 12.8542 7.4998 13.125C7.4998 13.3958 7.58855 13.6196 7.76605 13.7962C7.94272 13.9737 8.16647 14.0625 8.4373 14.0625H9.6873V15.3125C9.6873 15.5833 9.77605 15.8071 9.95355 15.9837C10.1302 16.1612 10.354 16.25 10.6248 16.25Z" fill="#EEF0F4"/>
</g>
</svg>
