<svg width="30" height="30" viewBox="0 0 30 30" fill="none" xmlns="http://www.w3.org/2000/svg">
<mask id="mask0_1476_35419" style="mask-type:alpha" maskUnits="userSpaceOnUse" x="0" y="0" width="30" height="30">
<rect width="30" height="30" fill="#D9D9D9"/>
</mask>
<g mask="url(#mask0_1476_35419)">
<path d="M2.5 24.4688V5C2.5 4.3125 2.745 3.72375 3.235 3.23375C3.72417 2.74458 4.3125 2.5 5 2.5H25C25.6875 2.5 26.2763 2.74458 26.7663 3.23375C27.2554 3.72375 27.5 4.3125 27.5 5V20C27.5 20.6875 27.2554 21.2763 26.7663 21.7663C26.2763 22.2554 25.6875 22.5 25 22.5H7.5L4.625 25.375C4.22917 25.7708 3.77583 25.8592 3.265 25.64C2.755 25.4217 2.5 25.0312 2.5 24.4688ZM5 21.4688L6.46875 20H25V5H5V21.4688Z" fill="#EEF0F4"/>
</g>
</svg>
