<svg width="30" height="30" viewBox="0 0 30 30" fill="none" xmlns="http://www.w3.org/2000/svg">
<mask id="mask0_1427_34503" style="mask-type:alpha" maskUnits="userSpaceOnUse" x="0" y="0" width="30" height="30">
<rect width="30" height="30" fill="#D9D9D9"/>
</mask>
<g mask="url(#mask0_1427_34503)">
<path d="M5 26.25C4.3125 26.25 3.72417 26.0054 3.235 25.5162C2.745 25.0262 2.5 24.4375 2.5 23.75V10.1875C2.5 9.75 2.60417 9.33333 2.8125 8.9375C3.02083 8.54167 3.3125 8.22917 3.6875 8L13.7188 2C13.9271 1.875 14.1354 1.78625 14.3438 1.73375C14.5521 1.68208 14.7708 1.65625 15 1.65625C15.2292 1.65625 15.4479 1.68208 15.6562 1.73375C15.8646 1.78625 16.0729 1.875 16.2812 2L26.3125 8C26.6875 8.22917 26.9792 8.54167 27.1875 8.9375C27.3958 9.33333 27.5 9.75 27.5 10.1875V23.75C27.5 24.4375 27.2554 25.0262 26.7663 25.5162C26.2763 26.0054 25.6875 26.25 25 26.25H5ZM15 15.5938C15.1042 15.5938 15.2083 15.5833 15.3125 15.5625C15.4167 15.5417 15.5208 15.5 15.625 15.4375L24.75 10L15.625 4.5625C15.5208 4.5 15.4167 4.45833 15.3125 4.4375C15.2083 4.41667 15.1042 4.40625 15 4.40625C14.8958 4.40625 14.7917 4.41667 14.6875 4.4375C14.5833 4.45833 14.4792 4.5 14.375 4.5625L5.25 10L14.375 15.4375C14.4792 15.5 14.5833 15.5417 14.6875 15.5625C14.7917 15.5833 14.8958 15.5938 15 15.5938Z" fill="#EEF0F4"/>
</g>
</svg>
