<svg width="30" height="30" viewBox="0 0 30 30" fill="none" xmlns="http://www.w3.org/2000/svg">
<mask id="mask0_1289_34047" style="mask-type:alpha" maskUnits="userSpaceOnUse" x="0" y="0" width="30" height="30">
<rect width="30" height="30" fill="#D9D9D9"/>
</mask>
<g mask="url(#mask0_1289_34047)">
<path d="M15 25C12.2083 25 9.84375 24.0312 7.90625 22.0938C5.96875 20.1562 5 17.7917 5 15C5 12.2083 5.96875 9.84375 7.90625 7.90625C9.84375 5.96875 12.2083 5 15 5C16.4375 5 17.8125 5.29708 19.125 5.89125C20.4375 6.48458 21.5625 7.33333 22.5 8.4375V6.25C22.5 5.89583 22.62 5.59875 22.86 5.35875C23.0992 5.11958 23.3958 5 23.75 5C24.1042 5 24.4008 5.11958 24.64 5.35875C24.88 5.59875 25 5.89583 25 6.25V12.5C25 12.8542 24.88 13.1508 24.64 13.39C24.4008 13.63 24.1042 13.75 23.75 13.75H17.5C17.1458 13.75 16.8492 13.63 16.61 13.39C16.37 13.1508 16.25 12.8542 16.25 12.5C16.25 12.1458 16.37 11.8487 16.61 11.6087C16.8492 11.3696 17.1458 11.25 17.5 11.25H21.5C20.8333 10.0833 19.9221 9.16667 18.7662 8.5C17.6096 7.83333 16.3542 7.5 15 7.5C12.9167 7.5 11.1458 8.22917 9.6875 9.6875C8.22917 11.1458 7.5 12.9167 7.5 15C7.5 17.0833 8.22917 18.8542 9.6875 20.3125C11.1458 21.7708 12.9167 22.5 15 22.5C16.4375 22.5 17.7658 22.1196 18.985 21.3587C20.2033 20.5988 21.1146 19.5833 21.7188 18.3125C21.8229 18.0833 21.995 17.8908 22.235 17.735C22.4742 17.5783 22.7188 17.5 22.9688 17.5C23.4479 17.5 23.8075 17.6667 24.0475 18C24.2867 18.3333 24.3125 18.7083 24.125 19.125C23.3333 20.8958 22.1146 22.3175 20.4688 23.39C18.8229 24.4633 17 25 15 25Z" fill="#EEF0F4"/>
</g>
</svg>
