<svg width="30" height="30" viewBox="0 0 30 30" fill="none" xmlns="http://www.w3.org/2000/svg">
<mask id="mask0_1305_27941" style="mask-type:alpha" maskUnits="userSpaceOnUse" x="0" y="0" width="30" height="30">
<rect width="30" height="30" fill="#D9D9D9"/>
</mask>
<g mask="url(#mask0_1305_27941)">
<path d="M6.25 23.75C5.89583 23.75 5.59875 23.63 5.35875 23.39C5.11958 23.1508 5 22.8542 5 22.5C5 22.1458 5.11958 21.8492 5.35875 21.61C5.59875 21.37 5.89583 21.25 6.25 21.25H7.5V12.5C7.5 10.7708 8.02083 9.23417 9.0625 7.89C10.1042 6.54667 11.4583 5.66667 13.125 5.25V4.375C13.125 3.85417 13.3075 3.41167 13.6725 3.0475C14.0367 2.6825 14.4792 2.5 15 2.5C15.5208 2.5 15.9633 2.6825 16.3275 3.0475C16.6925 3.41167 16.875 3.85417 16.875 4.375V5.25C18.5417 5.66667 19.8958 6.54667 20.9375 7.89C21.9792 9.23417 22.5 10.7708 22.5 12.5V21.25H23.75C24.1042 21.25 24.4008 21.37 24.64 21.61C24.88 21.8492 25 22.1458 25 22.5C25 22.8542 24.88 23.1508 24.64 23.39C24.4008 23.63 24.1042 23.75 23.75 23.75H6.25ZM15 27.5C14.3125 27.5 13.7242 27.2554 13.235 26.7663C12.745 26.2763 12.5 25.6875 12.5 25H17.5C17.5 25.6875 17.2554 26.2763 16.7663 26.7663C16.2762 27.2554 15.6875 27.5 15 27.5ZM10 21.25H20V12.5C20 11.125 19.5104 9.94792 18.5312 8.96875C17.5521 7.98958 16.375 7.5 15 7.5C13.625 7.5 12.4479 7.98958 11.4688 8.96875C10.4896 9.94792 10 11.125 10 12.5V21.25Z" fill="#EEF0F4"/>
</g>
</svg>
