<svg width="30" height="30" viewBox="0 0 30 30" fill="none" xmlns="http://www.w3.org/2000/svg">
<mask id="mask0_1304_27558" style="mask-type:alpha" maskUnits="userSpaceOnUse" x="0" y="0" width="30" height="30">
<rect width="30" height="30" fill="#D9D9D9"/>
</mask>
<g mask="url(#mask0_1304_27558)">
<path d="M15 17.5C14.6458 17.5 14.3492 17.38 14.11 17.14C13.87 16.9008 13.75 16.6042 13.75 16.25C13.75 15.8958 13.87 15.5987 14.11 15.3587C14.3492 15.1196 14.6458 15 15 15C15.3542 15 15.6513 15.1196 15.8913 15.3587C16.1304 15.5987 16.25 15.8958 16.25 16.25C16.25 16.6042 16.1304 16.9008 15.8913 17.14C15.6513 17.38 15.3542 17.5 15 17.5ZM10 17.5C9.64583 17.5 9.34875 17.38 9.10875 17.14C8.86958 16.9008 8.75 16.6042 8.75 16.25C8.75 15.8958 8.86958 15.5987 9.10875 15.3587C9.34875 15.1196 9.64583 15 10 15C10.3542 15 10.6513 15.1196 10.8913 15.3587C11.1304 15.5987 11.25 15.8958 11.25 16.25C11.25 16.6042 11.1304 16.9008 10.8913 17.14C10.6513 17.38 10.3542 17.5 10 17.5ZM20 17.5C19.6458 17.5 19.3492 17.38 19.11 17.14C18.87 16.9008 18.75 16.6042 18.75 16.25C18.75 15.8958 18.87 15.5987 19.11 15.3587C19.3492 15.1196 19.6458 15 20 15C20.3542 15 20.6508 15.1196 20.89 15.3587C21.13 15.5987 21.25 15.8958 21.25 16.25C21.25 16.6042 21.13 16.9008 20.89 17.14C20.6508 17.38 20.3542 17.5 20 17.5ZM15 22.5C14.6458 22.5 14.3492 22.38 14.11 22.14C13.87 21.9008 13.75 21.6042 13.75 21.25C13.75 20.8958 13.87 20.5992 14.11 20.36C14.3492 20.12 14.6458 20 15 20C15.3542 20 15.6513 20.12 15.8913 20.36C16.1304 20.5992 16.25 20.8958 16.25 21.25C16.25 21.6042 16.1304 21.9008 15.8913 22.14C15.6513 22.38 15.3542 22.5 15 22.5ZM10 22.5C9.64583 22.5 9.34875 22.38 9.10875 22.14C8.86958 21.9008 8.75 21.6042 8.75 21.25C8.75 20.8958 8.86958 20.5992 9.10875 20.36C9.34875 20.12 9.64583 20 10 20C10.3542 20 10.6513 20.12 10.8913 20.36C11.1304 20.5992 11.25 20.8958 11.25 21.25C11.25 21.6042 11.1304 21.9008 10.8913 22.14C10.6513 22.38 10.3542 22.5 10 22.5ZM20 22.5C19.6458 22.5 19.3492 22.38 19.11 22.14C18.87 21.9008 18.75 21.6042 18.75 21.25C18.75 20.8958 18.87 20.5992 19.11 20.36C19.3492 20.12 19.6458 20 20 20C20.3542 20 20.6508 20.12 20.89 20.36C21.13 20.5992 21.25 20.8958 21.25 21.25C21.25 21.6042 21.13 21.9008 20.89 22.14C20.6508 22.38 20.3542 22.5 20 22.5ZM6.25 27.5C5.5625 27.5 4.97375 27.2554 4.48375 26.7663C3.99458 26.2763 3.75 25.6875 3.75 25V7.5C3.75 6.8125 3.99458 6.22417 4.48375 5.735C4.97375 5.245 5.5625 5 6.25 5H7.5V3.75C7.5 3.39583 7.61958 3.09875 7.85875 2.85875C8.09875 2.61958 8.39583 2.5 8.75 2.5C9.10417 2.5 9.40125 2.61958 9.64125 2.85875C9.88042 3.09875 10 3.39583 10 3.75V5H20V3.75C20 3.39583 20.12 3.09875 20.36 2.85875C20.5992 2.61958 20.8958 2.5 21.25 2.5C21.6042 2.5 21.9008 2.61958 22.14 2.85875C22.38 3.09875 22.5 3.39583 22.5 3.75V5H23.75C24.4375 5 25.0263 5.245 25.5163 5.735C26.0054 6.22417 26.25 6.8125 26.25 7.5V25C26.25 25.6875 26.0054 26.2763 25.5163 26.7663C25.0263 27.2554 24.4375 27.5 23.75 27.5H6.25ZM6.25 25H23.75V12.5H6.25V25Z" fill="#EEF0F4"/>
</g>
</svg>
