<svg width="30" height="30" viewBox="0 0 30 30" fill="none" xmlns="http://www.w3.org/2000/svg">
<mask id="mask0_1476_35403" style="mask-type:alpha" maskUnits="userSpaceOnUse" x="0" y="0" width="30" height="30">
<rect width="30" height="30" fill="#D9D9D9"/>
</mask>
<g mask="url(#mask0_1476_35403)">
<path d="M8.75 17.5H16.2812C16.6354 17.5 16.9271 17.38 17.1562 17.14C17.3854 16.9008 17.5 16.6042 17.5 16.25C17.5 15.8958 17.3804 15.5987 17.1413 15.3587C16.9013 15.1196 16.6042 15 16.25 15H8.71875C8.36458 15 8.07292 15.1196 7.84375 15.3587C7.61458 15.5987 7.5 15.8958 7.5 16.25C7.5 16.6042 7.61958 16.9008 7.85875 17.14C8.09875 17.38 8.39583 17.5 8.75 17.5ZM8.75 13.75H21.2812C21.6354 13.75 21.9271 13.63 22.1562 13.39C22.3854 13.1508 22.5 12.8542 22.5 12.5C22.5 12.1458 22.38 11.8487 22.14 11.6087C21.9008 11.3696 21.6042 11.25 21.25 11.25H8.71875C8.36458 11.25 8.07292 11.3696 7.84375 11.6087C7.61458 11.8487 7.5 12.1458 7.5 12.5C7.5 12.8542 7.61958 13.1508 7.85875 13.39C8.09875 13.63 8.39583 13.75 8.75 13.75ZM8.75 10H21.2812C21.6354 10 21.9271 9.88042 22.1562 9.64125C22.3854 9.40125 22.5 9.10417 22.5 8.75C22.5 8.39583 22.38 8.09875 22.14 7.85875C21.9008 7.61958 21.6042 7.5 21.25 7.5H8.71875C8.36458 7.5 8.07292 7.61958 7.84375 7.85875C7.61458 8.09875 7.5 8.39583 7.5 8.75C7.5 9.10417 7.61958 9.40125 7.85875 9.64125C8.09875 9.88042 8.39583 10 8.75 10ZM2.5 24.4688V5C2.5 4.3125 2.745 3.72375 3.235 3.23375C3.72417 2.74458 4.3125 2.5 5 2.5H25C25.6875 2.5 26.2763 2.74458 26.7663 3.23375C27.2554 3.72375 27.5 4.3125 27.5 5V20C27.5 20.6875 27.2554 21.2763 26.7663 21.7663C26.2763 22.2554 25.6875 22.5 25 22.5H7.5L4.625 25.375C4.22917 25.7708 3.77583 25.8592 3.265 25.64C2.755 25.4217 2.5 25.0312 2.5 24.4688ZM5 21.4688L6.46875 20H25V5H5V21.4688Z" fill="#EEF0F4"/>
</g>
</svg>
