<svg width="30" height="30" viewBox="0 0 30 30" fill="none" xmlns="http://www.w3.org/2000/svg">
<mask id="mask0_1363_32153" style="mask-type:alpha" maskUnits="userSpaceOnUse" x="0" y="0" width="30" height="30">
<rect width="30" height="30" fill="#D9D9D9"/>
</mask>
<g mask="url(#mask0_1363_32153)">
<path d="M27.3438 11.3125L22 6.0625L23.3438 4.71875C23.8438 4.21875 24.4429 3.96875 25.1413 3.96875C25.8388 3.96875 26.4271 4.21875 26.9062 4.71875L28.6562 6.5C29.1354 6.97917 29.375 7.5625 29.375 8.25C29.375 8.9375 29.1354 9.52083 28.6562 10L27.3438 11.3125ZM6.25 29.625C5.5625 29.625 4.97375 29.38 4.48375 28.89C3.99458 28.4008 3.75 27.8125 3.75 27.125V9.625C3.75 8.9375 3.99458 8.34875 4.48375 7.85875C4.97375 7.36958 5.5625 7.125 6.25 7.125H17.4062L9.84375 14.6875C9.48958 15.0417 9.21875 15.4479 9.03125 15.9062C8.84375 16.3646 8.75 16.8438 8.75 17.3438V22.125C8.75 22.8125 8.995 23.4008 9.485 23.89C9.97417 24.38 10.5625 24.625 11.25 24.625H16.0312C16.5312 24.625 17.0104 24.5313 17.4688 24.3438C17.9271 24.1563 18.3333 23.8854 18.6875 23.5312L26.25 15.9375V27.125C26.25 27.8125 26.0054 28.4008 25.5163 28.89C25.0263 29.38 24.4375 29.625 23.75 29.625H6.25ZM12.5 22.125C12.1458 22.125 11.8492 22.0054 11.61 21.7663C11.37 21.5263 11.25 21.2292 11.25 20.875V17.8437C11.25 17.5104 11.3125 17.1925 11.4375 16.89C11.5625 16.5883 11.7396 16.3229 11.9688 16.0938L20.2188 7.84375L25.5625 13.0938L17.2812 21.375C17.0521 21.6042 16.7867 21.7867 16.485 21.9225C16.1825 22.0575 15.8646 22.125 15.5312 22.125H12.5Z" fill="#EEF0F4"/>
</g>
</svg>
