<svg width="30" height="30" viewBox="0 0 30 30" fill="none" xmlns="http://www.w3.org/2000/svg">
<mask id="mask0_1427_34500" style="mask-type:alpha" maskUnits="userSpaceOnUse" x="0" y="0" width="30" height="30">
<rect width="30" height="30" fill="#D9D9D9"/>
</mask>
<g mask="url(#mask0_1427_34500)">
<path d="M8.75 22.4375L15 19.75L21.25 22.4375V6.25H8.75V22.4375ZM8 25.5C7.58333 25.6667 7.1875 25.63 6.8125 25.39C6.4375 25.1508 6.25 24.8021 6.25 24.3438V6.25C6.25 5.5625 6.495 4.97375 6.985 4.48375C7.47417 3.99458 8.0625 3.75 8.75 3.75H21.25C21.9375 3.75 22.5263 3.99458 23.0163 4.48375C23.5054 4.97375 23.75 5.5625 23.75 6.25V24.3438C23.75 24.8021 23.5625 25.1508 23.1875 25.39C22.8125 25.63 22.4167 25.6667 22 25.5L15 22.5L8 25.5Z" fill="#EEF0F4"/>
</g>
</svg>
