<svg width="30" height="30" viewBox="0 0 30 30" fill="none" xmlns="http://www.w3.org/2000/svg">
<mask id="mask0_1481_35766" style="mask-type:alpha" maskUnits="userSpaceOnUse" x="0" y="0" width="30" height="30">
<rect width="30" height="30" fill="#D9D9D9"/>
</mask>
<g mask="url(#mask0_1481_35766)">
<path d="M15 27.5C13.2917 27.5 11.6771 27.1717 10.1562 26.515C8.63542 25.8592 7.3075 24.9633 6.1725 23.8275C5.03667 22.6925 4.14083 21.3646 3.485 19.8438C2.82833 18.3229 2.5 16.7083 2.5 15C2.5 13.2708 2.82833 11.6512 3.485 10.1412C4.14083 8.63042 5.03667 7.3075 6.1725 6.1725C7.3075 5.03667 8.63542 4.14042 10.1562 3.48375C11.6771 2.82792 13.2917 2.5 15 2.5C16.7292 2.5 18.3488 2.82792 19.8587 3.48375C21.3696 4.14042 22.6925 5.03667 23.8275 6.1725C24.9633 7.3075 25.8592 8.63042 26.515 10.1412C27.1717 11.6512 27.5 13.2708 27.5 15C27.5 16.7083 27.1717 18.3229 26.515 19.8438C25.8592 21.3646 24.9633 22.6925 23.8275 23.8275C22.6925 24.9633 21.3696 25.8592 19.8587 26.515C18.3488 27.1717 16.7292 27.5 15 27.5ZM15 24.9375C15.5417 24.1875 16.0104 23.4062 16.4062 22.5938C16.8021 21.7813 17.125 20.9167 17.375 20H12.625C12.875 20.9167 13.1979 21.7813 13.5938 22.5938C13.9896 23.4062 14.4583 24.1875 15 24.9375ZM11.75 24.4375C11.375 23.75 11.0471 23.0362 10.7662 22.2962C10.4846 21.5571 10.25 20.7917 10.0625 20H6.375C6.97917 21.0417 7.73417 21.9479 8.64 22.7188C9.54667 23.4896 10.5833 24.0625 11.75 24.4375ZM18.25 24.4375C19.4167 24.0625 20.4529 23.4896 21.3587 22.7188C22.2654 21.9479 23.0208 21.0417 23.625 20H19.9375C19.75 20.7917 19.5158 21.5571 19.235 22.2962C18.9533 23.0362 18.625 23.75 18.25 24.4375ZM5.3125 17.5H9.5625C9.5 17.0833 9.45292 16.6717 9.42125 16.265C9.39042 15.8592 9.375 15.4375 9.375 15C9.375 14.5625 9.39042 14.1408 9.42125 13.735C9.45292 13.3283 9.5 12.9167 9.5625 12.5H5.3125C5.20833 12.9167 5.13 13.3283 5.0775 13.735C5.02583 14.1408 5 14.5625 5 15C5 15.4375 5.02583 15.8592 5.0775 16.265C5.13 16.6717 5.20833 17.0833 5.3125 17.5ZM12.0625 17.5H17.9375C18 17.0833 18.0471 16.6717 18.0788 16.265C18.1096 15.8592 18.125 15.4375 18.125 15C18.125 14.5625 18.1096 14.1408 18.0788 13.735C18.0471 13.3283 18 12.9167 17.9375 12.5H12.0625C12 12.9167 11.9533 13.3283 11.9225 13.735C11.8908 14.1408 11.875 14.5625 11.875 15C11.875 15.4375 11.8908 15.8592 11.9225 16.265C11.9533 16.6717 12 17.0833 12.0625 17.5ZM20.4375 17.5H24.6875C24.7917 17.0833 24.87 16.6717 24.9225 16.265C24.9742 15.8592 25 15.4375 25 15C25 14.5625 24.9742 14.1408 24.9225 13.735C24.87 13.3283 24.7917 12.9167 24.6875 12.5H20.4375C20.5 12.9167 20.5467 13.3283 20.5775 13.735C20.6092 14.1408 20.625 14.5625 20.625 15C20.625 15.4375 20.6092 15.8592 20.5775 16.265C20.5467 16.6717 20.5 17.0833 20.4375 17.5ZM19.9375 10H23.625C23.0208 8.95833 22.2654 8.05208 21.3587 7.28125C20.4529 6.51042 19.4167 5.9375 18.25 5.5625C18.625 6.25 18.9533 6.96333 19.235 7.7025C19.5158 8.4425 19.75 9.20833 19.9375 10ZM12.625 10H17.375C17.125 9.08333 16.8021 8.21875 16.4062 7.40625C16.0104 6.59375 15.5417 5.8125 15 5.0625C14.4583 5.8125 13.9896 6.59375 13.5938 7.40625C13.1979 8.21875 12.875 9.08333 12.625 10ZM6.375 10H10.0625C10.25 9.20833 10.4846 8.4425 10.7662 7.7025C11.0471 6.96333 11.375 6.25 11.75 5.5625C10.5833 5.9375 9.54667 6.51042 8.64 7.28125C7.73417 8.05208 6.97917 8.95833 6.375 10Z" fill="#EEF0F4"/>
</g>
</svg>
