<svg width="30" height="30" viewBox="0 0 30 30" fill="none" xmlns="http://www.w3.org/2000/svg">
<mask id="mask0_1484_35258" style="mask-type:alpha" maskUnits="userSpaceOnUse" x="0" y="0" width="30" height="30">
<rect width="30" height="30" fill="#D9D9D9"/>
</mask>
<g mask="url(#mask0_1484_35258)">
<path d="M18.75 16.25C19.4375 16.25 20.0263 16.005 20.5163 15.515C21.0054 15.0258 21.25 14.4375 21.25 13.75C21.25 13.0625 21.0054 12.4737 20.5163 11.9837C20.0263 11.4946 19.4375 11.25 18.75 11.25C18.0625 11.25 17.4742 11.4946 16.985 11.9837C16.495 12.4737 16.25 13.0625 16.25 13.75C16.25 14.4375 16.495 15.0258 16.985 15.515C17.4742 16.005 18.0625 16.25 18.75 16.25ZM13.75 21.25H23.75V20.5625C23.75 19.625 23.2917 18.88 22.375 18.3275C21.4583 17.7758 20.25 17.5 18.75 17.5C17.25 17.5 16.0417 17.7758 15.125 18.3275C14.2083 18.88 13.75 19.625 13.75 20.5625V21.25ZM5 25C4.3125 25 3.72417 24.7554 3.235 24.2663C2.745 23.7763 2.5 23.1875 2.5 22.5V7.5C2.5 6.8125 2.745 6.22417 3.235 5.735C3.72417 5.245 4.3125 5 5 5H11.4688C11.8021 5 12.12 5.0625 12.4225 5.1875C12.7242 5.3125 12.9896 5.48958 13.2188 5.71875L15 7.5H25C25.6875 7.5 26.2763 7.745 26.7663 8.235C27.2554 8.72417 27.5 9.3125 27.5 10V22.5C27.5 23.1875 27.2554 23.7763 26.7663 24.2663C26.2763 24.7554 25.6875 25 25 25H5ZM5 7.5V22.5H25V10H13.9688L11.4688 7.5H5Z" fill="#EEF0F4"/>
</g>
</svg>
