<svg width="30" height="30" viewBox="0 0 30 30" fill="none" xmlns="http://www.w3.org/2000/svg">
<mask id="mask0_1348_29898" style="mask-type:alpha" maskUnits="userSpaceOnUse" x="0" y="0" width="30" height="30">
<rect width="30" height="30" fill="#D9D9D9"/>
</mask>
<g mask="url(#mask0_1348_29898)">
<path d="M15 28.7499C12.6667 28.7499 10.5208 28.2187 8.5625 27.1562C6.60417 26.0937 5 24.6666 3.75 22.8749V24.9999C3.75 25.3541 3.63042 25.6508 3.39125 25.8899C3.15125 26.1299 2.85417 26.2499 2.5 26.2499C2.14583 26.2499 1.84917 26.1299 1.61 25.8899C1.37 25.6508 1.25 25.3541 1.25 24.9999V19.9999C1.25 19.6458 1.37 19.3487 1.61 19.1087C1.84917 18.8695 2.14583 18.7499 2.5 18.7499H7.5C7.85417 18.7499 8.15125 18.8695 8.39125 19.1087C8.63042 19.3487 8.75 19.6458 8.75 19.9999C8.75 20.3541 8.63042 20.6508 8.39125 20.8899C8.15125 21.1299 7.85417 21.2499 7.5 21.2499H5.6875C6.6875 22.7499 8 23.9583 9.625 24.8749C11.25 25.7916 13.0417 26.2499 15 26.2499C17.2917 26.2499 19.3492 25.6408 21.1725 24.4224C22.995 23.2033 24.3542 21.6145 25.25 19.6562C25.375 19.3854 25.5625 19.1874 25.8125 19.0624C26.0625 18.9374 26.3333 18.9062 26.625 18.9687C27 19.0729 27.2812 19.302 27.4688 19.6562C27.6562 20.0104 27.6667 20.3645 27.5 20.7187C26.4167 23.1145 24.7604 25.052 22.5312 26.5312C20.3021 28.0103 17.7917 28.7499 15 28.7499ZM2.46875 13.7187C2.15625 13.6354 1.90125 13.4583 1.70375 13.1874C1.50542 12.9166 1.44792 12.6041 1.53125 12.2499C1.71875 11.3749 1.98458 10.5362 2.32875 9.73368C2.67208 8.93202 3.08333 8.1666 3.5625 7.43743C3.77083 7.14577 4.04708 6.96327 4.39125 6.88993C4.73458 6.81743 5.05208 6.89577 5.34375 7.12493C5.59375 7.31243 5.75 7.56743 5.8125 7.88993C5.875 8.21327 5.82292 8.51035 5.65625 8.78118C5.26042 9.38535 4.91667 10.0258 4.625 10.7024C4.33333 11.3799 4.11458 12.0833 3.96875 12.8124C3.90625 13.1666 3.72375 13.427 3.42125 13.5937C3.11958 13.7604 2.80208 13.802 2.46875 13.7187ZM7.1875 5.43743C6.9375 5.18743 6.83333 4.86452 6.875 4.46868C6.91667 4.07285 7.10417 3.76035 7.4375 3.53118C8.16667 3.05202 8.93208 2.64035 9.73375 2.29618C10.5363 1.95285 11.375 1.69785 12.25 1.53118C12.6042 1.46868 12.9217 1.53118 13.2025 1.71868C13.4842 1.90618 13.6562 2.15618 13.7188 2.46868C13.7813 2.82285 13.7292 3.14577 13.5625 3.43743C13.3958 3.7291 13.1354 3.90618 12.7812 3.96868C12.0521 4.13535 11.3542 4.3491 10.6875 4.60993C10.0208 4.86993 9.38542 5.20827 8.78125 5.62493C8.53125 5.7916 8.26042 5.8591 7.96875 5.82743C7.67708 5.7966 7.41667 5.6666 7.1875 5.43743ZM13.0625 16.9687L10 15.5624C9.75 15.4583 9.625 15.2708 9.625 14.9999C9.625 14.7291 9.75 14.5416 10 14.4374L13.0625 13.0624L14.4375 9.99993C14.5417 9.74993 14.7292 9.62493 15 9.62493C15.2708 9.62493 15.4583 9.74993 15.5625 9.99993L16.9375 13.0624L20 14.4374C20.25 14.5416 20.375 14.7291 20.375 14.9999C20.375 15.2708 20.25 15.4583 20 15.5624L16.9375 16.9374L15.5625 19.9999C15.4583 20.2499 15.2708 20.3749 15 20.3749C14.7292 20.3749 14.5417 20.2499 14.4375 19.9999L13.0625 16.9687ZM22.8438 5.37493C22.6354 5.62493 22.3804 5.77577 22.0788 5.82743C21.7763 5.87993 21.4896 5.82285 21.2188 5.65618C20.6146 5.26035 19.9742 4.9166 19.2975 4.62493C18.62 4.33327 17.9167 4.11452 17.1875 3.96868C16.8333 3.90618 16.5679 3.71327 16.3912 3.38993C16.2137 3.06743 16.1771 2.73952 16.2812 2.40618C16.3646 2.09368 16.5471 1.8541 16.8288 1.68743C17.1096 1.52077 17.4167 1.46868 17.75 1.53118C18.625 1.69785 19.4633 1.95285 20.265 2.29618C21.0675 2.64035 21.8333 3.05202 22.5625 3.53118C22.875 3.73952 23.0575 4.02577 23.11 4.38993C23.1617 4.75493 23.0729 5.08327 22.8438 5.37493ZM27.5312 13.7187C27.1979 13.802 26.8804 13.7604 26.5788 13.5937C26.2763 13.427 26.0938 13.1666 26.0312 12.8124C25.8854 12.0833 25.6717 11.3799 25.39 10.7024C25.1092 10.0258 24.7604 9.38535 24.3438 8.78118C24.1562 8.48952 24.0987 8.18202 24.1712 7.85868C24.2446 7.53618 24.4167 7.28118 24.6875 7.09368C24.9792 6.88535 25.2917 6.81743 25.625 6.88993C25.9583 6.96327 26.2292 7.14577 26.4375 7.43743C26.9167 8.1666 27.3283 8.93202 27.6725 9.73368C28.0158 10.5362 28.2812 11.3749 28.4688 12.2499C28.5521 12.6041 28.495 12.9166 28.2975 13.1874C28.0992 13.4583 27.8438 13.6354 27.5312 13.7187Z" fill="#EEF0F4"/>
</g>
</svg>
