<svg width="30" height="30" viewBox="0 0 30 30" fill="none" xmlns="http://www.w3.org/2000/svg">
<mask id="mask0_1289_33942" style="mask-type:alpha" maskUnits="userSpaceOnUse" x="0" y="0" width="30" height="30">
<rect width="30" height="30" fill="#D9D9D9"/>
</mask>
<g mask="url(#mask0_1289_33942)">
<path d="M8.75 26.25C8.0625 26.25 7.47417 26.0054 6.985 25.5163C6.495 25.0263 6.25 24.4375 6.25 23.75V7.5C5.89583 7.5 5.59875 7.38042 5.35875 7.14125C5.11958 6.90125 5 6.60417 5 6.25C5 5.89583 5.11958 5.59875 5.35875 5.35875C5.59875 5.11958 5.89583 5 6.25 5H11.25C11.25 4.64583 11.37 4.34875 11.61 4.10875C11.8492 3.86958 12.1458 3.75 12.5 3.75H17.5C17.8542 3.75 18.1513 3.86958 18.3913 4.10875C18.6304 4.34875 18.75 4.64583 18.75 5H23.75C24.1042 5 24.4008 5.11958 24.64 5.35875C24.88 5.59875 25 5.89583 25 6.25C25 6.60417 24.88 6.90125 24.64 7.14125C24.4008 7.38042 24.1042 7.5 23.75 7.5V23.75C23.75 24.4375 23.5054 25.0263 23.0163 25.5163C22.5263 26.0054 21.9375 26.25 21.25 26.25H8.75ZM11.25 20C11.25 20.3542 11.37 20.6508 11.61 20.89C11.8492 21.13 12.1458 21.25 12.5 21.25C12.8542 21.25 13.1513 21.13 13.3913 20.89C13.6304 20.6508 13.75 20.3542 13.75 20V11.25C13.75 10.8958 13.6304 10.5987 13.3913 10.3587C13.1513 10.1196 12.8542 10 12.5 10C12.1458 10 11.8492 10.1196 11.61 10.3587C11.37 10.5987 11.25 10.8958 11.25 11.25V20ZM16.25 20C16.25 20.3542 16.37 20.6508 16.61 20.89C16.8492 21.13 17.1458 21.25 17.5 21.25C17.8542 21.25 18.1513 21.13 18.3913 20.89C18.6304 20.6508 18.75 20.3542 18.75 20V11.25C18.75 10.8958 18.6304 10.5987 18.3913 10.3587C18.1513 10.1196 17.8542 10 17.5 10C17.1458 10 16.8492 10.1196 16.61 10.3587C16.37 10.5987 16.25 10.8958 16.25 11.25V20Z" fill="#EEF0F4"/>
</g>
</svg>
