<svg width="30" height="30" viewBox="0 0 30 30" fill="none" xmlns="http://www.w3.org/2000/svg">
<mask id="mask0_1304_27561" style="mask-type:alpha" maskUnits="userSpaceOnUse" x="0" y="0" width="30" height="30">
<rect width="30" height="30" fill="#D9D9D9"/>
</mask>
<g mask="url(#mask0_1304_27561)">
<path d="M23.75 27.5H6.25C5.5625 27.5 4.97375 27.2554 4.48375 26.7663C3.99458 26.2763 3.75 25.6875 3.75 25V10C3.75 9.3125 3.99458 8.72417 4.48375 8.235C4.97375 7.745 5.5625 7.5 6.25 7.5H8.75C8.75 5.77083 9.35958 4.29667 10.5788 3.0775C11.7971 1.85917 13.2708 1.25 15 1.25C16.7292 1.25 18.2033 1.85917 19.4225 3.0775C20.6408 4.29667 21.25 5.77083 21.25 7.5H23.75C24.4375 7.5 25.0263 7.745 25.5163 8.235C26.0054 8.72417 26.25 9.3125 26.25 10V25C26.25 25.6875 26.0054 26.2763 25.5163 26.7663C25.0263 27.2554 24.4375 27.5 23.75 27.5ZM11.25 7.5H18.75C18.75 6.45833 18.3854 5.57292 17.6562 4.84375C16.9271 4.11458 16.0417 3.75 15 3.75C13.9583 3.75 13.0729 4.11458 12.3438 4.84375C11.6146 5.57292 11.25 6.45833 11.25 7.5ZM15 17.5C16.5417 17.5 17.9375 16.9896 19.1875 15.9688C20.4375 14.9479 21.0521 13.8021 21.0312 12.5312C21.0312 12.1771 20.9167 11.875 20.6875 11.625C20.4583 11.375 20.1667 11.25 19.8125 11.25C19.5208 11.25 19.2604 11.3438 19.0312 11.5312C18.8021 11.7188 18.6354 12 18.5312 12.375C18.3021 13.1667 17.8542 13.8021 17.1875 14.2812C16.5208 14.7604 15.7917 15 15 15C14.2083 15 13.4742 14.7604 12.7975 14.2812C12.12 13.8021 11.6771 13.1667 11.4688 12.375C11.3646 11.9792 11.2083 11.6925 11 11.515C10.7917 11.3383 10.5417 11.25 10.25 11.25C9.89583 11.25 9.59917 11.375 9.36 11.625C9.12 11.875 9 12.1771 9 12.5312C9 13.8021 9.61458 14.9479 10.8438 15.9688C12.0729 16.9896 13.4583 17.5 15 17.5Z" fill="#EEF0F4"/>
</g>
</svg>
