<svg width="30" height="30" viewBox="0 0 30 30" fill="none" xmlns="http://www.w3.org/2000/svg">
<mask id="mask0_1363_32162" style="mask-type:alpha" maskUnits="userSpaceOnUse" x="0" y="0" width="30" height="30">
<rect width="30" height="30" fill="#D9D9D9"/>
</mask>
<g mask="url(#mask0_1363_32162)">
<path d="M15.3125 18.75C15.0417 18.75 14.8179 18.6612 14.6413 18.4837C14.4638 18.3071 14.375 18.0833 14.375 17.8125V12.1875C14.375 11.9167 14.4638 11.6925 14.6413 11.515C14.8179 11.3383 15.0417 11.25 15.3125 11.25C15.5833 11.25 15.8075 11.3383 15.985 11.515C16.1617 11.6925 16.25 11.9167 16.25 12.1875V17.8125C16.25 18.0833 16.1617 18.3071 15.985 18.4837C15.8075 18.6612 15.5833 18.75 15.3125 18.75ZM7.5 18.75C7.125 18.75 6.82292 18.62 6.59375 18.36C6.36458 18.0992 6.25 17.8125 6.25 17.5V12.5C6.25 12.1875 6.36458 11.9008 6.59375 11.64C6.82292 11.38 7.125 11.25 7.5 11.25H11.5625C11.8333 11.25 12.0575 11.3383 12.235 11.515C12.4117 11.6925 12.5 11.9167 12.5 12.1875C12.5 12.4583 12.4117 12.6821 12.235 12.8587C12.0575 13.0362 11.8333 13.125 11.5625 13.125H8.125V16.875H10.625V15.9375C10.625 15.6667 10.7138 15.4425 10.8913 15.265C11.0679 15.0883 11.2917 15 11.5625 15C11.8333 15 12.0575 15.0883 12.235 15.265C12.4117 15.4425 12.5 15.6667 12.5 15.9375V17.5C12.5 17.8125 12.3854 18.0992 12.1563 18.36C11.9271 18.62 11.625 18.75 11.25 18.75H7.5ZM19.0625 18.75C18.7917 18.75 18.5679 18.6612 18.3913 18.4837C18.2138 18.3071 18.125 18.0833 18.125 17.8125V12.5C18.125 12.1458 18.245 11.8487 18.485 11.6087C18.7242 11.3696 19.0208 11.25 19.375 11.25H22.8125C23.0833 11.25 23.3075 11.3383 23.485 11.515C23.6617 11.6925 23.75 11.9167 23.75 12.1875C23.75 12.4583 23.6617 12.6821 23.485 12.8587C23.3075 13.0362 23.0833 13.125 22.8125 13.125H20V14.375H21.5625C21.8333 14.375 22.0575 14.4633 22.235 14.64C22.4117 14.8175 22.5 15.0417 22.5 15.3125C22.5 15.5833 22.4117 15.8071 22.235 15.9837C22.0575 16.1612 21.8333 16.25 21.5625 16.25H20V17.8125C20 18.0833 19.9117 18.3071 19.735 18.4837C19.5575 18.6612 19.3333 18.75 19.0625 18.75Z" fill="#EEF0F4"/>
</g>
</svg>
