<svg width="30" height="30" viewBox="0 0 30 30" fill="none" xmlns="http://www.w3.org/2000/svg">
<mask id="mask0_1289_34029" style="mask-type:alpha" maskUnits="userSpaceOnUse" x="0" y="0" width="30" height="30">
<rect width="30" height="30" fill="#D9D9D9"/>
</mask>
<g mask="url(#mask0_1289_34029)">
<path d="M14.125 24.125C13.8958 23.8958 13.7758 23.6042 13.765 23.25C13.755 22.8958 13.8646 22.6042 14.0938 22.375L20.2188 16.25H6.25C5.89583 16.25 5.59875 16.13 5.35875 15.89C5.11958 15.6508 5 15.3542 5 15C5 14.6458 5.11958 14.3487 5.35875 14.1087C5.59875 13.8696 5.89583 13.75 6.25 13.75H20.2188L14.0938 7.625C13.8646 7.39583 13.755 7.10417 13.765 6.75C13.7758 6.39583 13.8958 6.10417 14.125 5.875C14.3542 5.64583 14.6458 5.53125 15 5.53125C15.3542 5.53125 15.6458 5.64583 15.875 5.875L24.125 14.125C24.25 14.2292 24.3388 14.3592 24.3913 14.515C24.4429 14.6717 24.4688 14.8333 24.4688 15C24.4688 15.1667 24.4429 15.3229 24.3913 15.4688C24.3388 15.6146 24.25 15.75 24.125 15.875L15.875 24.125C15.6458 24.3542 15.3542 24.4688 15 24.4688C14.6458 24.4688 14.3542 24.3542 14.125 24.125Z" fill="#EEF0F4"/>
</g>
</svg>
