<svg width="30" height="30" viewBox="0 0 30 30" fill="none" xmlns="http://www.w3.org/2000/svg">
<mask id="mask0_1476_35421" style="mask-type:alpha" maskUnits="userSpaceOnUse" x="0" y="0" width="30" height="30">
<rect width="30" height="30" fill="#D9D9D9"/>
</mask>
<g mask="url(#mask0_1476_35421)">
<path d="M8.75 26.2499V9.99991L16.25 2.56241C16.5625 2.24991 16.9321 2.06741 17.3588 2.01491C17.7863 1.96325 18.1979 2.04158 18.5938 2.24991C18.9896 2.45825 19.2812 2.74991 19.4688 3.12491C19.6562 3.49991 19.6979 3.88533 19.5938 4.28116L18.1875 9.99991H26.25C26.9167 9.99991 27.5 10.2499 28 10.7499C28.5 11.2499 28.75 11.8332 28.75 12.4999V14.9999C28.75 15.1457 28.7292 15.302 28.6875 15.4687C28.6458 15.6353 28.6042 15.7916 28.5625 15.9374L24.8125 24.7499C24.625 25.1666 24.3125 25.5207 23.875 25.8124C23.4375 26.1041 22.9792 26.2499 22.5 26.2499H8.75ZM11.25 11.0624V23.7499H22.5L26.25 14.9999V12.4999H15L16.6875 5.62491L11.25 11.0624ZM5 26.2499C4.3125 26.2499 3.72417 26.0053 3.235 25.5162C2.745 25.0262 2.5 24.4374 2.5 23.7499V12.4999C2.5 11.8124 2.745 11.2237 3.235 10.7337C3.72417 10.2445 4.3125 9.99991 5 9.99991H8.75V12.4999H5V23.7499H8.75V26.2499H5Z" fill="#EEF0F4"/>
</g>
</svg>
