<svg width="30" height="30" viewBox="0 0 30 30" fill="none" xmlns="http://www.w3.org/2000/svg">
<mask id="mask0_1363_32158" style="mask-type:alpha" maskUnits="userSpaceOnUse" x="0" y="0" width="30" height="30">
<rect width="30" height="30" fill="#D9D9D9"/>
</mask>
<g mask="url(#mask0_1363_32158)">
<path d="M5 25C4.3125 25 3.72417 24.7554 3.235 24.2663C2.745 23.7763 2.5 23.1875 2.5 22.5V7.5C2.5 6.8125 2.745 6.22417 3.235 5.735C3.72417 5.245 4.3125 5 5 5H20C20.6875 5 21.2763 5.245 21.7663 5.735C22.2554 6.22417 22.5 6.8125 22.5 7.5V13.125L26.4375 9.1875C26.6458 8.97917 26.875 8.92708 27.125 9.03125C27.375 9.13542 27.5 9.33333 27.5 9.625V20.375C27.5 20.6667 27.375 20.8646 27.125 20.9688C26.875 21.0729 26.6458 21.0208 26.4375 20.8125L22.5 16.875V22.5C22.5 23.1875 22.2554 23.7763 21.7663 24.2663C21.2763 24.7554 20.6875 25 20 25H5ZM5 22.5H20V7.5H5V22.5Z" fill="#EEF0F4"/>
</g>
</svg>
