<svg width="30" height="30" viewBox="0 0 30 30" fill="none" xmlns="http://www.w3.org/2000/svg">
<mask id="mask0_1481_35764" style="mask-type:alpha" maskUnits="userSpaceOnUse" x="0" y="0" width="30" height="30">
<rect width="30" height="30" fill="#D9D9D9"/>
</mask>
<g mask="url(#mask0_1481_35764)">
<path d="M13.3125 24.75L11.1562 22.7812C8.94792 20.7604 6.95333 18.755 5.1725 16.765C3.39083 14.7758 2.5 12.5833 2.5 10.1875C2.5 8.22917 3.15625 6.59375 4.46875 5.28125C5.78125 3.96875 7.41667 3.3125 9.375 3.3125C10.4792 3.3125 11.5208 3.54667 12.5 4.015C13.4792 4.48417 14.3125 5.125 15 5.9375C15.6875 5.125 16.5208 4.48417 17.5 4.015C18.4792 3.54667 19.5208 3.3125 20.625 3.3125C22.5833 3.3125 24.2188 3.96875 25.5312 5.28125C26.8437 6.59375 27.5 8.22917 27.5 10.1875C27.5 12.5833 26.6146 14.7812 24.8438 16.7812C23.0729 18.7812 21.0625 20.7917 18.8125 22.8125L16.6875 24.75C16.2083 25.1875 15.6458 25.4063 15 25.4063C14.3542 25.4063 13.7917 25.1875 13.3125 24.75Z" fill="#EEF0F4"/>
</g>
</svg>
