<svg width="30" height="30" viewBox="0 0 30 30" fill="none" xmlns="http://www.w3.org/2000/svg">
<mask id="mask0_1304_27468" style="mask-type:alpha" maskUnits="userSpaceOnUse" x="0" y="0" width="30" height="30">
<rect width="30" height="30" fill="#D9D9D9"/>
</mask>
<g mask="url(#mask0_1304_27468)">
<path d="M18.75 20C19.1042 20 19.4013 19.88 19.6413 19.64C19.8804 19.4008 20 19.1042 20 18.75V17.5H21.25C21.6042 17.5 21.9008 17.38 22.14 17.14C22.38 16.9008 22.5 16.6042 22.5 16.25C22.5 15.8958 22.38 15.5987 22.14 15.3587C21.9008 15.1196 21.6042 15 21.25 15H20V13.75C20 13.3958 19.8804 13.0987 19.6413 12.8587C19.4013 12.6196 19.1042 12.5 18.75 12.5C18.3958 12.5 18.0992 12.6196 17.86 12.8587C17.62 13.0987 17.5 13.3958 17.5 13.75V15H16.25C15.8958 15 15.5992 15.1196 15.36 15.3587C15.12 15.5987 15 15.8958 15 16.25C15 16.6042 15.12 16.9008 15.36 17.14C15.5992 17.38 15.8958 17.5 16.25 17.5H17.5V18.75C17.5 19.1042 17.62 19.4008 17.86 19.64C18.0992 19.88 18.3958 20 18.75 20ZM5 25C4.3125 25 3.72417 24.7554 3.235 24.2663C2.745 23.7763 2.5 23.1875 2.5 22.5V7.5C2.5 6.8125 2.745 6.22417 3.235 5.735C3.72417 5.245 4.3125 5 5 5H11.4688C11.8021 5 12.12 5.0625 12.4225 5.1875C12.7242 5.3125 12.9896 5.48958 13.2188 5.71875L15 7.5H25C25.6875 7.5 26.2763 7.745 26.7663 8.235C27.2554 8.72417 27.5 9.3125 27.5 10V22.5C27.5 23.1875 27.2554 23.7763 26.7663 24.2663C26.2763 24.7554 25.6875 25 25 25H5Z" fill="#EEF0F4"/>
</g>
</svg>
