<svg width="30" height="30" viewBox="0 0 30 30" fill="none" xmlns="http://www.w3.org/2000/svg">
<mask id="mask0_1345_30089" style="mask-type:alpha" maskUnits="userSpaceOnUse" x="0" y="0" width="30" height="30">
<rect width="30" height="30" fill="#D9D9D9"/>
</mask>
<g mask="url(#mask0_1345_30089)">
<path d="M12.5 20H13.75C13.75 20.3542 13.87 20.6508 14.11 20.89C14.3492 21.13 14.6458 21.25 15 21.25C15.3542 21.25 15.6513 21.13 15.8913 20.89C16.1304 20.6508 16.25 20.3542 16.25 20H17.5C17.8542 20 18.1513 19.88 18.3913 19.64C18.6304 19.4008 18.75 19.1042 18.75 18.75V15C18.75 14.6458 18.6304 14.3487 18.3913 14.1087C18.1513 13.8696 17.8542 13.75 17.5 13.75H13.75V12.5H17.5C17.8542 12.5 18.1513 12.38 18.3913 12.14C18.6304 11.9008 18.75 11.6042 18.75 11.25C18.75 10.8958 18.6304 10.5987 18.3913 10.3587C18.1513 10.1196 17.8542 10 17.5 10H16.25C16.25 9.64583 16.1304 9.34875 15.8913 9.10875C15.6513 8.86958 15.3542 8.75 15 8.75C14.6458 8.75 14.3492 8.86958 14.11 9.10875C13.87 9.34875 13.75 9.64583 13.75 10H12.5C12.1458 10 11.8492 10.1196 11.61 10.3587C11.37 10.5987 11.25 10.8958 11.25 11.25V15C11.25 15.3542 11.37 15.6508 11.61 15.89C11.8492 16.13 12.1458 16.25 12.5 16.25H16.25V17.5H12.5C12.1458 17.5 11.8492 17.6196 11.61 17.8587C11.37 18.0987 11.25 18.3958 11.25 18.75C11.25 19.1042 11.37 19.4008 11.61 19.64C11.8492 19.88 12.1458 20 12.5 20ZM5 25C4.3125 25 3.72417 24.7554 3.235 24.2663C2.745 23.7763 2.5 23.1875 2.5 22.5V7.5C2.5 6.8125 2.745 6.22417 3.235 5.735C3.72417 5.245 4.3125 5 5 5H25C25.6875 5 26.2763 5.245 26.7663 5.735C27.2554 6.22417 27.5 6.8125 27.5 7.5V22.5C27.5 23.1875 27.2554 23.7763 26.7663 24.2663C26.2763 24.7554 25.6875 25 25 25H5Z" fill="#EEF0F4"/>
</g>
</svg>
