<svg width="30" height="30" viewBox="0 0 30 30" fill="none" xmlns="http://www.w3.org/2000/svg">
<mask id="mask0_1289_34041" style="mask-type:alpha" maskUnits="userSpaceOnUse" x="0" y="0" width="30" height="30">
<rect width="30" height="30" fill="#D9D9D9"/>
</mask>
<g mask="url(#mask0_1289_34041)">
<path d="M25 23.75C24.6458 23.75 24.3492 23.63 24.11 23.39C23.87 23.1508 23.75 22.8542 23.75 22.5V18.75C23.75 17.7083 23.3854 16.8229 22.6562 16.0938C21.9271 15.3646 21.0417 15 20 15H8.5L12.1562 18.6562C12.3854 18.8854 12.5 19.1667 12.5 19.5C12.5 19.8333 12.375 20.125 12.125 20.375C11.8958 20.6042 11.6042 20.7188 11.25 20.7188C10.8958 20.7188 10.6042 20.6042 10.375 20.375L4.625 14.625C4.5 14.5 4.41167 14.3646 4.36 14.2188C4.3075 14.0729 4.28125 13.9167 4.28125 13.75C4.28125 13.5833 4.3075 13.4271 4.36 13.2812C4.41167 13.1354 4.5 13 4.625 12.875L10.4062 7.09375C10.6354 6.86458 10.9167 6.75 11.25 6.75C11.5833 6.75 11.875 6.875 12.125 7.125C12.3542 7.35417 12.4688 7.64583 12.4688 8C12.4688 8.35417 12.3542 8.64583 12.125 8.875L8.5 12.5H20C21.7292 12.5 23.2033 13.1092 24.4225 14.3275C25.6408 15.5467 26.25 17.0208 26.25 18.75V22.5C26.25 22.8542 26.13 23.1508 25.89 23.39C25.6508 23.63 25.3542 23.75 25 23.75Z" fill="#EEF0F4"/>
</g>
</svg>
