<svg width="30" height="30" viewBox="0 0 30 30" fill="none" xmlns="http://www.w3.org/2000/svg">
<mask id="mask0_1363_32164" style="mask-type:alpha" maskUnits="userSpaceOnUse" x="0" y="0" width="30" height="30">
<rect width="30" height="30" fill="#D9D9D9"/>
</mask>
<g mask="url(#mask0_1363_32164)">
<path d="M3.75 23.1249V6.87489C3.75 6.41655 3.9375 6.06739 4.3125 5.82739C4.6875 5.58822 5.08333 5.55197 5.5 5.71864L24.75 13.8436C25.2708 14.0728 25.5312 14.4582 25.5312 14.9999C25.5312 15.5416 25.2708 15.927 24.75 16.1561L5.5 24.2811C5.08333 24.4478 4.6875 24.4111 4.3125 24.1711C3.9375 23.932 3.75 23.5832 3.75 23.1249ZM6.25 21.2499L21.0625 14.9999L6.25 8.74989V13.1249L13.75 14.9999L6.25 16.8749V21.2499Z" fill="#EEF0F4"/>
</g>
</svg>
