<svg width="30" height="30" viewBox="0 0 30 30" fill="none" xmlns="http://www.w3.org/2000/svg">
<mask id="mask0_1427_34507" style="mask-type:alpha" maskUnits="userSpaceOnUse" x="0" y="0" width="30" height="30">
<rect width="30" height="30" fill="#D9D9D9"/>
</mask>
<g mask="url(#mask0_1427_34507)">
<path d="M12.25 20.3438C12 20.0938 11.88 19.7917 11.89 19.4375C11.9008 19.0833 12.0312 18.7812 12.2812 18.5312L14.5625 16.25H5C4.64583 16.25 4.34917 16.13 4.11 15.89C3.87 15.6508 3.75 15.3542 3.75 15C3.75 14.6458 3.87 14.3487 4.11 14.1087C4.34917 13.8696 4.64583 13.75 5 13.75H14.5625L12.25 11.4375C12 11.1875 11.875 10.8908 11.875 10.5475C11.875 10.2033 12 9.90625 12.25 9.65625C12.5 9.40625 12.7971 9.28125 13.1412 9.28125C13.4846 9.28125 13.7812 9.40625 14.0312 9.65625L18.5 14.125C18.625 14.25 18.7137 14.3854 18.7662 14.5312C18.8179 14.6771 18.8438 14.8333 18.8438 15C18.8438 15.1667 18.8179 15.3229 18.7662 15.4688C18.7137 15.6146 18.625 15.75 18.5 15.875L14 20.375C13.7708 20.6042 13.4846 20.7188 13.1412 20.7188C12.7971 20.7188 12.5 20.5938 12.25 20.3438ZM6.25 26.25C5.5625 26.25 4.97375 26.0054 4.48375 25.5163C3.99458 25.0263 3.75 24.4375 3.75 23.75V20C3.75 19.6458 3.87 19.3487 4.11 19.1087C4.34917 18.8696 4.64583 18.75 5 18.75C5.35417 18.75 5.65125 18.8696 5.89125 19.1087C6.13042 19.3487 6.25 19.6458 6.25 20V23.75H23.75V6.25H6.25V10C6.25 10.3542 6.13042 10.6508 5.89125 10.89C5.65125 11.13 5.35417 11.25 5 11.25C4.64583 11.25 4.34917 11.13 4.11 10.89C3.87 10.6508 3.75 10.3542 3.75 10V6.25C3.75 5.5625 3.99458 4.97375 4.48375 4.48375C4.97375 3.99458 5.5625 3.75 6.25 3.75H23.75C24.4375 3.75 25.0263 3.99458 25.5163 4.48375C26.0054 4.97375 26.25 5.5625 26.25 6.25V23.75C26.25 24.4375 26.0054 25.0263 25.5163 25.5163C25.0263 26.0054 24.4375 26.25 23.75 26.25H6.25Z" fill="#EEF0F4"/>
</g>
</svg>
