<svg width="30" height="30" viewBox="0 0 30 30" fill="none" xmlns="http://www.w3.org/2000/svg">
<mask id="mask0_1304_28026" style="mask-type:alpha" maskUnits="userSpaceOnUse" x="0" y="0" width="30" height="30">
<rect width="30" height="30" fill="#D9D9D9"/>
</mask>
<g mask="url(#mask0_1304_28026)">
<path d="M3.40625 26.25C2.92708 26.25 2.57292 26.0417 2.34375 25.625C2.11458 25.2083 2.11458 24.7917 2.34375 24.375L13.9062 4.375C14.1354 3.95833 14.5 3.75 15 3.75C15.5 3.75 15.8646 3.95833 16.0938 4.375L27.6562 24.375C27.8854 24.7917 27.8854 25.2083 27.6562 25.625C27.4271 26.0417 27.0729 26.25 26.5938 26.25H3.40625ZM15 12.5C14.6458 12.5 14.3492 12.6196 14.11 12.8587C13.87 13.0987 13.75 13.3958 13.75 13.75V17.5C13.75 17.8542 13.87 18.1508 14.11 18.39C14.3492 18.63 14.6458 18.75 15 18.75C15.3542 18.75 15.6512 18.63 15.8913 18.39C16.1304 18.1508 16.25 17.8542 16.25 17.5V13.75C16.25 13.3958 16.1304 13.0987 15.8913 12.8587C15.6512 12.6196 15.3542 12.5 15 12.5ZM15 22.5C15.3542 22.5 15.6512 22.38 15.8913 22.14C16.1304 21.9008 16.25 21.6042 16.25 21.25C16.25 20.8958 16.1304 20.5992 15.8913 20.36C15.6512 20.12 15.3542 20 15 20C14.6458 20 14.3492 20.12 14.11 20.36C13.87 20.5992 13.75 20.8958 13.75 21.25C13.75 21.6042 13.87 21.9008 14.11 22.14C14.3492 22.38 14.6458 22.5 15 22.5ZM5.5625 23.75H24.4375L15 7.5L5.5625 23.75Z" fill="#EEF0F4"/>
</g>
</svg>
