<svg width="30" height="30" viewBox="0 0 30 30" fill="none" xmlns="http://www.w3.org/2000/svg">
<mask id="mask0_1476_35404" style="mask-type:alpha" maskUnits="userSpaceOnUse" x="0" y="0" width="30" height="30">
<rect width="30" height="30" fill="#D9D9D9"/>
</mask>
<g mask="url(#mask0_1476_35404)">
<path d="M10 17.5C9.64583 17.5 9.34875 17.38 9.10875 17.14C8.86958 16.9008 8.75 16.6042 8.75 16.25C8.75 15.8958 8.86958 15.5987 9.10875 15.3587C9.34875 15.1196 9.64583 15 10 15H20C20.3542 15 20.6508 15.1196 20.89 15.3587C21.13 15.5987 21.25 15.8958 21.25 16.25C21.25 16.6042 21.13 16.9008 20.89 17.14C20.6508 17.38 20.3542 17.5 20 17.5H10ZM10 22.5C9.64583 22.5 9.34875 22.38 9.10875 22.14C8.86958 21.9008 8.75 21.6042 8.75 21.25C8.75 20.8958 8.86958 20.5992 9.10875 20.36C9.34875 20.12 9.64583 20 10 20H16.25C16.6042 20 16.9013 20.12 17.1413 20.36C17.3804 20.5992 17.5 20.8958 17.5 21.25C17.5 21.6042 17.3804 21.9008 17.1413 22.14C16.9013 22.38 16.6042 22.5 16.25 22.5H10ZM6.25 27.5C5.5625 27.5 4.97375 27.2554 4.48375 26.7663C3.99458 26.2763 3.75 25.6875 3.75 25V7.5C3.75 6.8125 3.99458 6.22417 4.48375 5.735C4.97375 5.245 5.5625 5 6.25 5H7.5V3.75C7.5 3.39583 7.61958 3.09875 7.85875 2.85875C8.09875 2.61958 8.39583 2.5 8.75 2.5C9.10417 2.5 9.40125 2.61958 9.64125 2.85875C9.88042 3.09875 10 3.39583 10 3.75V5H20V3.75C20 3.39583 20.12 3.09875 20.36 2.85875C20.5992 2.61958 20.8958 2.5 21.25 2.5C21.6042 2.5 21.9008 2.61958 22.14 2.85875C22.38 3.09875 22.5 3.39583 22.5 3.75V5H23.75C24.4375 5 25.0263 5.245 25.5163 5.735C26.0054 6.22417 26.25 6.8125 26.25 7.5V25C26.25 25.6875 26.0054 26.2763 25.5163 26.7663C25.0263 27.2554 24.4375 27.5 23.75 27.5H6.25ZM6.25 25H23.75V12.5H6.25V25Z" fill="#EEF0F4"/>
</g>
</svg>
