<svg width="30" height="30" viewBox="0 0 30 30" fill="none" xmlns="http://www.w3.org/2000/svg">
<mask id="mask0_1304_27477" style="mask-type:alpha" maskUnits="userSpaceOnUse" x="0" y="0" width="30" height="30">
<rect width="30" height="30" fill="#D9D9D9"/>
</mask>
<g mask="url(#mask0_1304_27477)">
<path d="M20.8125 15.7188C20.6458 15.7188 20.4896 15.6925 20.3438 15.64C20.1979 15.5883 20.0625 15.5 19.9375 15.375L14.625 10.0625C14.5 9.9375 14.4117 9.80208 14.36 9.65625C14.3075 9.51042 14.2812 9.35417 14.2812 9.1875C14.2812 9.02083 14.3075 8.86458 14.36 8.71875C14.4117 8.57292 14.5 8.4375 14.625 8.3125L19.9375 3C20.0625 2.875 20.1979 2.78667 20.3438 2.735C20.4896 2.6825 20.6458 2.65625 20.8125 2.65625C20.9792 2.65625 21.1354 2.6825 21.2812 2.735C21.4271 2.78667 21.5625 2.875 21.6875 3L27 8.3125C27.125 8.4375 27.2133 8.57292 27.265 8.71875C27.3175 8.86458 27.3438 9.02083 27.3438 9.1875C27.3438 9.35417 27.3175 9.51042 27.265 9.65625C27.2133 9.80208 27.125 9.9375 27 10.0625L21.6875 15.375C21.5625 15.5 21.4271 15.5883 21.2812 15.64C21.1354 15.6925 20.9792 15.7188 20.8125 15.7188ZM5 13.75C4.64583 13.75 4.34917 13.63 4.11 13.39C3.87 13.1508 3.75 12.8542 3.75 12.5V5C3.75 4.64583 3.87 4.34875 4.11 4.10875C4.34917 3.86958 4.64583 3.75 5 3.75H12.5C12.8542 3.75 13.1513 3.86958 13.3913 4.10875C13.6304 4.34875 13.75 4.64583 13.75 5V12.5C13.75 12.8542 13.6304 13.1508 13.3913 13.39C13.1513 13.63 12.8542 13.75 12.5 13.75H5ZM17.5 26.25C17.1458 26.25 16.8492 26.13 16.61 25.89C16.37 25.6508 16.25 25.3542 16.25 25V17.5C16.25 17.1458 16.37 16.8487 16.61 16.6087C16.8492 16.3696 17.1458 16.25 17.5 16.25H25C25.3542 16.25 25.6508 16.3696 25.89 16.6087C26.13 16.8487 26.25 17.1458 26.25 17.5V25C26.25 25.3542 26.13 25.6508 25.89 25.89C25.6508 26.13 25.3542 26.25 25 26.25H17.5ZM5 26.25C4.64583 26.25 4.34917 26.13 4.11 25.89C3.87 25.6508 3.75 25.3542 3.75 25V17.5C3.75 17.1458 3.87 16.8487 4.11 16.6087C4.34917 16.3696 4.64583 16.25 5 16.25H12.5C12.8542 16.25 13.1513 16.3696 13.3913 16.6087C13.6304 16.8487 13.75 17.1458 13.75 17.5V25C13.75 25.3542 13.6304 25.6508 13.3913 25.89C13.1513 26.13 12.8542 26.25 12.5 26.25H5Z" fill="#EEF0F4"/>
</g>
</svg>
