<svg width="30" height="30" viewBox="0 0 30 30" fill="none" xmlns="http://www.w3.org/2000/svg">
<mask id="mask0_1304_27471" style="mask-type:alpha" maskUnits="userSpaceOnUse" x="0" y="0" width="30" height="30">
<rect width="30" height="30" fill="#D9D9D9"/>
</mask>
<g mask="url(#mask0_1304_27471)">
<path d="M15 24.4376C14.7708 24.4376 14.5471 24.4063 14.3288 24.3438C14.1096 24.2813 13.9063 24.198 13.7188 24.0938C12.8646 23.573 11.9688 23.1772 11.0312 22.9063C10.0938 22.6355 9.125 22.5001 8.125 22.5001C7.25 22.5001 6.39083 22.6147 5.5475 22.8438C4.70333 23.073 3.89583 23.3959 3.125 23.8126C2.6875 24.0417 2.26583 24.0313 1.86 23.7813C1.45333 23.5313 1.25 23.1667 1.25 22.6876V7.62508C1.25 7.39591 1.3075 7.17716 1.4225 6.96883C1.53667 6.7605 1.70833 6.60425 1.9375 6.50008C2.89583 6.00008 3.89583 5.62508 4.9375 5.37508C5.97917 5.12508 7.04167 5.00008 8.125 5.00008C9.33333 5.00008 10.5158 5.15633 11.6725 5.46883C12.8283 5.78133 13.9375 6.25008 15 6.87508V22.0001C16.0625 21.3334 17.1771 20.8334 18.3438 20.5001C19.5104 20.1667 20.6875 20.0001 21.875 20.0001C22.625 20.0001 23.3596 20.0626 24.0788 20.1876C24.7971 20.3126 25.5208 20.5001 26.25 20.7501V5.75008C26.5625 5.85425 26.87 5.96341 27.1725 6.07758C27.4742 6.19258 27.7708 6.33341 28.0625 6.50008C28.2917 6.60425 28.4638 6.7605 28.5788 6.96883C28.6929 7.17716 28.75 7.39591 28.75 7.62508V22.6876C28.75 23.1667 28.5471 23.5313 28.1413 23.7813C27.7346 24.0313 27.3125 24.0417 26.875 23.8126C26.1042 23.3959 25.2967 23.073 24.4525 22.8438C23.6092 22.6147 22.75 22.5001 21.875 22.5001C20.875 22.5001 19.9062 22.6355 18.9688 22.9063C18.0312 23.1772 17.1354 23.573 16.2812 24.0938C16.0937 24.198 15.8908 24.2813 15.6725 24.3438C15.4533 24.4063 15.2292 24.4376 15 24.4376ZM18.5312 17.8126C18.3229 18.0001 18.0992 18.0363 17.86 17.9213C17.62 17.8072 17.5 17.6147 17.5 17.3438V7.12508C17.5 7.08341 17.5625 6.93758 17.6875 6.68758L22.6875 1.68758C22.8958 1.47925 23.125 1.42716 23.375 1.53133C23.625 1.6355 23.75 1.83341 23.75 2.12508V12.8438C23.75 12.9272 23.6771 13.0834 23.5312 13.3126L18.5312 17.8126Z" fill="#EEF0F4"/>
</g>
</svg>
