<svg width="30" height="30" viewBox="0 0 30 30" fill="none" xmlns="http://www.w3.org/2000/svg">
<mask id="mask0_1375_33079" style="mask-type:alpha" maskUnits="userSpaceOnUse" x="0" y="0" width="30" height="30">
<rect width="30" height="30" fill="#D9D9D9"/>
</mask>
<g mask="url(#mask0_1375_33079)">
<path d="M6.25 26.25C5.5625 26.25 4.97375 26.0054 4.48375 25.5163C3.99458 25.0263 3.75 24.4375 3.75 23.75V8.125C3.75 7.8125 3.80208 7.53125 3.90625 7.28125C4.01042 7.03125 4.14583 6.79167 4.3125 6.5625L6.0625 4.4375C6.22917 4.20833 6.4375 4.03625 6.6875 3.92125C6.9375 3.80708 7.20833 3.75 7.5 3.75H22.5C22.7917 3.75 23.0625 3.80708 23.3125 3.92125C23.5625 4.03625 23.7708 4.20833 23.9375 4.4375L25.6875 6.5625C25.8542 6.79167 25.9896 7.03125 26.0938 7.28125C26.1979 7.53125 26.25 7.8125 26.25 8.125V23.75C26.25 24.4375 26.0054 25.0263 25.5163 25.5163C25.0263 26.0054 24.4375 26.25 23.75 26.25H6.25ZM6.75 7.5H23.25L22.1875 6.25H7.8125L6.75 7.5ZM15 21.9688C15.1667 21.9688 15.3229 21.9425 15.4688 21.89C15.6146 21.8383 15.75 21.75 15.875 21.625L19.125 18.375C19.3542 18.1458 19.4688 17.8542 19.4688 17.5C19.4688 17.1458 19.3542 16.8542 19.125 16.625C18.8958 16.3958 18.6042 16.2812 18.25 16.2812C17.8958 16.2812 17.6042 16.3958 17.375 16.625L16.25 17.75V13.75C16.25 13.3958 16.1304 13.0987 15.8913 12.8587C15.6513 12.6196 15.3542 12.5 15 12.5C14.6458 12.5 14.3492 12.6196 14.11 12.8587C13.87 13.0987 13.75 13.3958 13.75 13.75V17.75L12.625 16.625C12.3958 16.3958 12.1042 16.2812 11.75 16.2812C11.3958 16.2812 11.1042 16.3958 10.875 16.625C10.6458 16.8542 10.5312 17.1458 10.5312 17.5C10.5312 17.8542 10.6458 18.1458 10.875 18.375L14.125 21.625C14.25 21.75 14.3854 21.8383 14.5312 21.89C14.6771 21.9425 14.8333 21.9688 15 21.9688Z" fill="#EEF0F4"/>
</g>
</svg>
