<svg width="30" height="30" viewBox="0 0 30 30" fill="none" xmlns="http://www.w3.org/2000/svg">
<mask id="mask0_1484_35255" style="mask-type:alpha" maskUnits="userSpaceOnUse" x="0" y="0" width="30" height="30">
<rect width="30" height="30" fill="#D9D9D9"/>
</mask>
<g mask="url(#mask0_1484_35255)">
<path d="M15 16.25C16.2083 16.25 17.2396 15.8229 18.0938 14.9688C18.9479 14.1146 19.375 13.0833 19.375 11.875C19.375 10.6667 18.9479 9.63542 18.0938 8.78125C17.2396 7.92708 16.2083 7.5 15 7.5C13.7917 7.5 12.7604 7.92708 11.9062 8.78125C11.0521 9.63542 10.625 10.6667 10.625 11.875C10.625 13.0833 11.0521 14.1146 11.9062 14.9688C12.7604 15.8229 13.7917 16.25 15 16.25ZM6.25 26.25C5.5625 26.25 4.97375 26.0054 4.48375 25.5163C3.99458 25.0263 3.75 24.4375 3.75 23.75V6.25C3.75 5.5625 3.99458 4.97375 4.48375 4.48375C4.97375 3.99458 5.5625 3.75 6.25 3.75H23.75C24.4375 3.75 25.0263 3.99458 25.5163 4.48375C26.0054 4.97375 26.25 5.5625 26.25 6.25V23.75C26.25 24.4375 26.0054 25.0263 25.5163 25.5163C25.0263 26.0054 24.4375 26.25 23.75 26.25H6.25ZM6.25 23.75H23.75V22.3125C22.625 21.2083 21.3179 20.3383 19.8288 19.7025C18.3387 19.0675 16.7292 18.75 15 18.75C13.2708 18.75 11.6617 19.0675 10.1725 19.7025C8.6825 20.3383 7.375 21.2083 6.25 22.3125V23.75Z" fill="#EEF0F4"/>
</g>
</svg>
