<svg width="30" height="30" viewBox="0 0 30 30" fill="none" xmlns="http://www.w3.org/2000/svg">
<mask id="mask0_1289_33954" style="mask-type:alpha" maskUnits="userSpaceOnUse" x="0" y="0" width="30" height="30">
<rect width="30" height="30" fill="#D9D9D9"/>
</mask>
<g mask="url(#mask0_1289_33954)">
<path d="M9.625 20.375C9.85417 20.6042 10.1458 20.7188 10.5 20.7188C10.8542 20.7188 11.1458 20.6042 11.375 20.375L15 16.75L18.6562 20.4062C18.8854 20.6354 19.1721 20.7446 19.5163 20.7337C19.8596 20.7237 20.1458 20.6042 20.375 20.375C20.6042 20.1458 20.7188 19.8542 20.7188 19.5C20.7188 19.1458 20.6042 18.8542 20.375 18.625L16.75 15L20.4062 11.3438C20.6354 11.1146 20.7446 10.8279 20.7337 10.4838C20.7237 10.1404 20.6042 9.85417 20.375 9.625C20.1458 9.39583 19.8542 9.28125 19.5 9.28125C19.1458 9.28125 18.8542 9.39583 18.625 9.625L15 13.25L11.3438 9.59375C11.1146 9.36458 10.8283 9.255 10.485 9.265C10.1408 9.27583 9.85417 9.39583 9.625 9.625C9.39583 9.85417 9.28125 10.1458 9.28125 10.5C9.28125 10.8542 9.39583 11.1458 9.625 11.375L13.25 15L9.59375 18.6562C9.36458 18.8854 9.25542 19.1717 9.26625 19.515C9.27625 19.8592 9.39583 20.1458 9.625 20.375ZM15 27.5C13.2708 27.5 11.6458 27.1717 10.125 26.515C8.60417 25.8592 7.28125 24.9688 6.15625 23.8438C5.03125 22.7188 4.14083 21.3958 3.485 19.875C2.82833 18.3542 2.5 16.7292 2.5 15C2.5 13.2708 2.82833 11.6458 3.485 10.125C4.14083 8.60417 5.03125 7.28125 6.15625 6.15625C7.28125 5.03125 8.60417 4.14042 10.125 3.48375C11.6458 2.82792 13.2708 2.5 15 2.5C16.7292 2.5 18.3542 2.82792 19.875 3.48375C21.3958 4.14042 22.7188 5.03125 23.8438 6.15625C24.9688 7.28125 25.8592 8.60417 26.515 10.125C27.1717 11.6458 27.5 13.2708 27.5 15C27.5 16.7292 27.1717 18.3542 26.515 19.875C25.8592 21.3958 24.9688 22.7188 23.8438 23.8438C22.7188 24.9688 21.3958 25.8592 19.875 26.515C18.3542 27.1717 16.7292 27.5 15 27.5Z" fill="#EEF0F4"/>
</g>
</svg>
