<svg width="30" height="30" viewBox="0 0 30 30" fill="none" xmlns="http://www.w3.org/2000/svg">
<mask id="mask0_1304_27480" style="mask-type:alpha" maskUnits="userSpaceOnUse" x="0" y="0" width="30" height="30">
<rect width="30" height="30" fill="#D9D9D9"/>
</mask>
<g mask="url(#mask0_1304_27480)">
<path d="M6.25 27.5C5.5625 27.5 4.97375 27.2554 4.48375 26.7663C3.99458 26.2763 3.75 25.6875 3.75 25V10.875C3.39583 10.6458 3.09917 10.3542 2.86 10C2.62 9.64583 2.5 9.22917 2.5 8.75V5C2.5 4.3125 2.745 3.72375 3.235 3.23375C3.72417 2.74458 4.3125 2.5 5 2.5H25C25.6875 2.5 26.2763 2.74458 26.7663 3.23375C27.2554 3.72375 27.5 4.3125 27.5 5V8.75C27.5 9.22917 27.38 9.64583 27.14 10C26.9008 10.3542 26.6042 10.6458 26.25 10.875V25C26.25 25.6875 26.0054 26.2763 25.5163 26.7663C25.0263 27.2554 24.4375 27.5 23.75 27.5H6.25ZM25 8.75V5H5V8.75H25ZM12.5 17.5H17.5C17.8542 17.5 18.1513 17.38 18.3913 17.14C18.6304 16.9008 18.75 16.6042 18.75 16.25C18.75 15.8958 18.6304 15.5987 18.3913 15.3587C18.1513 15.1196 17.8542 15 17.5 15H12.5C12.1458 15 11.8492 15.1196 11.61 15.3587C11.37 15.5987 11.25 15.8958 11.25 16.25C11.25 16.6042 11.37 16.9008 11.61 17.14C11.8492 17.38 12.1458 17.5 12.5 17.5Z" fill="#EEF0F4"/>
</g>
</svg>
