<svg width="30" height="30" viewBox="0 0 30 30" fill="none" xmlns="http://www.w3.org/2000/svg">
<mask id="mask0_1296_30914" style="mask-type:alpha" maskUnits="userSpaceOnUse" x="0" y="0" width="30" height="30">
<rect width="30" height="30" fill="#D9D9D9"/>
</mask>
<g mask="url(#mask0_1296_30914)">
<path d="M17.7188 27.2188C17.3438 27.3022 17.0158 27.2238 16.735 26.9838C16.4533 26.7447 16.3125 26.4167 16.3125 26.0001C16.3125 25.7084 16.4117 25.443 16.61 25.2038C16.8075 24.9638 17.0521 24.8022 17.3438 24.7188C17.8646 24.5938 18.37 24.4322 18.86 24.2338C19.3492 24.0363 19.8229 23.7917 20.2812 23.5001C20.5521 23.3334 20.8492 23.2659 21.1725 23.2976C21.495 23.3284 21.7604 23.448 21.9688 23.6563C22.2604 23.948 22.3908 24.2813 22.36 24.6563C22.3283 25.0313 22.1458 25.323 21.8125 25.5313C21.1667 25.948 20.5054 26.2917 19.8288 26.5626C19.1513 26.8334 18.4479 27.0522 17.7188 27.2188ZM23.75 21.8751C23.5417 21.6667 23.4217 21.4063 23.39 21.0938C23.3592 20.7813 23.4271 20.5001 23.5938 20.2501C23.8646 19.7917 24.1042 19.323 24.3125 18.8438C24.5208 18.3647 24.6875 17.8542 24.8125 17.3126C24.8958 17.0209 25.0625 16.7709 25.3125 16.5626C25.5625 16.3542 25.8333 16.2501 26.125 16.2501C26.5417 16.2501 26.87 16.3959 27.11 16.6876C27.3492 16.9792 27.4167 17.3126 27.3125 17.6876C27.1458 18.4376 26.9217 19.1513 26.64 19.8288C26.3592 20.5055 26.0104 21.1459 25.5938 21.7501C25.3854 22.0626 25.0992 22.2342 24.735 22.2651C24.37 22.2967 24.0417 22.1667 23.75 21.8751ZM26.0938 13.7501C25.8021 13.7501 25.5367 13.6459 25.2975 13.4376C25.0575 13.2292 24.8958 12.9792 24.8125 12.6876C24.6875 12.1459 24.5208 11.6301 24.3125 11.1401C24.1042 10.6509 23.8646 10.1876 23.5938 9.75007C23.4271 9.50007 23.3592 9.21882 23.39 8.90632C23.4217 8.59382 23.5417 8.33341 23.75 8.12507C24.0417 7.83341 24.37 7.69799 24.735 7.71882C25.0992 7.73966 25.3854 7.90632 25.5938 8.21882C26.0104 8.82299 26.3646 9.47382 26.6562 10.1713C26.9479 10.8697 27.1771 11.5834 27.3438 12.3126C27.4271 12.6876 27.3437 13.0209 27.0937 13.3126C26.8437 13.6042 26.5104 13.7501 26.0938 13.7501ZM12.4375 27.1876C9.58333 26.5209 7.23417 25.0626 5.39 22.8126C3.54667 20.5626 2.625 17.9584 2.625 15.0001C2.625 12.0209 3.54167 9.39591 5.375 7.12507C7.20833 4.85424 9.55208 3.40632 12.4062 2.78132C12.7812 2.69799 13.1096 2.77591 13.3913 3.01507C13.6721 3.25507 13.8125 3.57299 13.8125 3.96882C13.8125 4.26049 13.7133 4.52591 13.515 4.76507C13.3175 5.00507 13.0729 5.16674 12.7812 5.25007C10.5521 5.79174 8.71875 6.96882 7.28125 8.78132C5.84375 10.5938 5.125 12.6667 5.125 15.0001C5.125 17.3334 5.84375 19.3909 7.28125 21.1726C8.71875 22.9534 10.5521 24.1355 12.7812 24.7188C13.0729 24.8022 13.3175 24.9688 13.515 25.2188C13.7133 25.4688 13.8125 25.7397 13.8125 26.0313C13.8125 26.4272 13.6771 26.7397 13.4062 26.9688C13.1354 27.198 12.8125 27.2709 12.4375 27.1876ZM20.375 6.53132C19.8958 6.23966 19.4062 5.98424 18.9062 5.76507C18.4062 5.54674 17.8958 5.37507 17.375 5.25007C17.0833 5.16674 16.8333 5.00507 16.625 4.76507C16.4167 4.52591 16.3125 4.26049 16.3125 3.96882C16.3125 3.57299 16.4533 3.25507 16.735 3.01507C17.0158 2.77591 17.3438 2.69799 17.7188 2.78132C18.4479 2.94799 19.1562 3.16674 19.8438 3.43757C20.5312 3.70841 21.1979 4.05216 21.8438 4.46882C22.1771 4.67716 22.3596 4.96882 22.3913 5.34382C22.4221 5.71882 22.2917 6.05216 22 6.34382C21.7917 6.55216 21.5367 6.67716 21.235 6.71882C20.9325 6.76049 20.6458 6.69799 20.375 6.53132ZM15.0938 20.8126C14.9271 20.8126 14.7708 20.7863 14.625 20.7338C14.4792 20.6822 14.3438 20.6042 14.2188 20.5001C12.8437 19.2292 11.8125 18.0417 11.125 16.9376C10.4375 15.8334 10.0938 14.8126 10.0938 13.8751C10.0938 12.3126 10.5992 11.068 11.61 10.1413C12.62 9.21382 13.7813 8.75007 15.0938 8.75007C16.4062 8.75007 17.5679 9.21382 18.5788 10.1413C19.5888 11.068 20.0938 12.3126 20.0938 13.8751C20.0938 14.8126 19.75 15.8334 19.0625 16.9376C18.375 18.0417 17.3437 19.2292 15.9687 20.5001C15.8437 20.6042 15.7083 20.6822 15.5625 20.7338C15.4167 20.7863 15.2604 20.8126 15.0938 20.8126ZM15.0938 15.0001C15.4688 15.0001 15.7867 14.8701 16.0475 14.6101C16.3075 14.3492 16.4375 14.0313 16.4375 13.6563C16.4375 13.3022 16.3075 12.9897 16.0475 12.7188C15.7867 12.448 15.4688 12.3126 15.0938 12.3126C14.7188 12.3126 14.4008 12.448 14.14 12.7188C13.88 12.9897 13.75 13.3022 13.75 13.6563C13.75 14.0313 13.88 14.3492 14.14 14.6101C14.4008 14.8701 14.7188 15.0001 15.0938 15.0001Z" fill="#EEF0F4"/>
</g>
</svg>
