<svg width="30" height="30" viewBox="0 0 30 30" fill="none" xmlns="http://www.w3.org/2000/svg">
<mask id="mask0_1345_30092" style="mask-type:alpha" maskUnits="userSpaceOnUse" x="0" y="0" width="30" height="30">
<rect width="30" height="30" fill="#D9D9D9"/>
</mask>
<g mask="url(#mask0_1345_30092)">
<path d="M6.28118 26.25C5.59368 26.25 5.00535 26.0054 4.51618 25.5163C4.02618 25.0263 3.78118 24.4375 3.78118 23.75V13.8125C3.30201 13.375 2.93243 12.8125 2.67243 12.125C2.4116 11.4375 2.40618 10.6875 2.65618 9.875L3.96868 5.625C4.13535 5.08333 4.43243 4.63542 4.85993 4.28125C5.2866 3.92708 5.78118 3.75 6.34368 3.75H23.7187C24.2812 3.75 24.7708 3.92167 25.1874 4.265C25.6041 4.60917 25.9062 5.0625 26.0937 5.625L27.4062 9.875C27.6562 10.6875 27.6512 11.4271 27.3912 12.0938C27.1303 12.7604 26.7603 13.3333 26.2812 13.8125V23.75C26.2812 24.4375 26.0366 25.0263 25.5474 25.5163C25.0574 26.0054 24.4687 26.25 23.7812 26.25H6.28118ZM17.7812 12.5C18.3437 12.5 18.7708 12.3071 19.0624 11.9212C19.3541 11.5362 19.4687 11.1042 19.4062 10.625L18.7187 6.25H16.2812V10.875C16.2812 11.3125 16.427 11.6929 16.7187 12.0162C17.0103 12.3387 17.3645 12.5 17.7812 12.5ZM12.1562 12.5C12.6353 12.5 13.0262 12.3387 13.3287 12.0162C13.6303 11.6929 13.7812 11.3125 13.7812 10.875V6.25H11.3437L10.6562 10.625C10.5728 11.125 10.6824 11.5625 10.9849 11.9375C11.2866 12.3125 11.677 12.5 12.1562 12.5ZM6.59368 12.5C6.96868 12.5 7.2966 12.3646 7.57743 12.0938C7.8591 11.8229 8.03118 11.4792 8.09368 11.0625L8.78118 6.25H6.34368L5.09368 10.4375C4.96868 10.8542 5.03618 11.3021 5.29618 11.7812C5.55701 12.2604 5.98951 12.5 6.59368 12.5ZM23.4687 12.5C24.0728 12.5 24.5103 12.2604 24.7812 11.7812C25.052 11.3021 25.1145 10.8542 24.9687 10.4375L23.6562 6.25H21.2812L21.9687 11.0625C22.0312 11.4792 22.2033 11.8229 22.4849 12.0938C22.7658 12.3646 23.0937 12.5 23.4687 12.5ZM6.28118 23.75H23.7812V14.9375C23.677 14.9792 23.6095 15 23.5787 15H23.4687C22.9062 15 22.4112 14.9062 21.9837 14.7188C21.557 14.5312 21.1353 14.2292 20.7187 13.8125C20.3437 14.1875 19.9166 14.4792 19.4374 14.6875C18.9583 14.8958 18.4478 15 17.9062 15C17.3437 15 16.8174 14.8958 16.3274 14.6875C15.8383 14.4792 15.4062 14.1875 15.0312 13.8125C14.677 14.1875 14.2658 14.4792 13.7974 14.6875C13.3283 14.8958 12.8228 15 12.2812 15C11.677 15 11.1299 14.8958 10.6399 14.6875C10.1508 14.4792 9.71868 14.1875 9.34368 13.8125C8.90618 14.25 8.4741 14.5571 8.04743 14.7337C7.61993 14.9112 7.13535 15 6.59368 15H6.45368C6.40118 15 6.34368 14.9792 6.28118 14.9375V23.75Z" fill="#EEF0F4"/>
</g>
</svg>
