<svg width="30" height="30" viewBox="0 0 30 30" fill="none" xmlns="http://www.w3.org/2000/svg">
<mask id="mask0_1476_35410" style="mask-type:alpha" maskUnits="userSpaceOnUse" x="0" y="0" width="30" height="30">
<rect width="30" height="30" fill="#D9D9D9"/>
</mask>
<g mask="url(#mask0_1476_35410)">
<path d="M8.75 21.25H21.25C21.5 21.25 21.6875 21.1354 21.8125 20.9062C21.9375 20.6771 21.9167 20.4583 21.75 20.25L18.3125 15.6562C18.1875 15.4896 18.0208 15.4062 17.8125 15.4062C17.6042 15.4062 17.4375 15.4896 17.3125 15.6562L14.0625 20L11.75 16.9062C11.625 16.7396 11.4583 16.6562 11.25 16.6562C11.0417 16.6562 10.875 16.7396 10.75 16.9062L8.25 20.25C8.08333 20.4583 8.0625 20.6771 8.1875 20.9062C8.3125 21.1354 8.5 21.25 8.75 21.25ZM6.25 26.25C5.5625 26.25 4.97375 26.0054 4.48375 25.5163C3.99458 25.0263 3.75 24.4375 3.75 23.75V6.25C3.75 5.5625 3.99458 4.97375 4.48375 4.48375C4.97375 3.99458 5.5625 3.75 6.25 3.75H23.75C24.4375 3.75 25.0263 3.99458 25.5163 4.48375C26.0054 4.97375 26.25 5.5625 26.25 6.25V23.75C26.25 24.4375 26.0054 25.0263 25.5163 25.5163C25.0263 26.0054 24.4375 26.25 23.75 26.25H6.25Z" fill="#EEF0F4"/>
</g>
</svg>
