<svg width="30" height="30" viewBox="0 0 30 30" fill="none" xmlns="http://www.w3.org/2000/svg">
<mask id="mask0_1484_35256" style="mask-type:alpha" maskUnits="userSpaceOnUse" x="0" y="0" width="30" height="30">
<rect width="30" height="30" fill="#D9D9D9"/>
</mask>
<g mask="url(#mask0_1484_35256)">
<path d="M6.25 22.3125C7.375 21.2083 8.6825 20.3383 10.1725 19.7025C11.6617 19.0675 13.2708 18.75 15 18.75C16.7292 18.75 18.3387 19.0675 19.8288 19.7025C21.3179 20.3383 22.625 21.2083 23.75 22.3125V6.25H6.25V22.3125ZM15 16.25C16.2083 16.25 17.2396 15.8229 18.0938 14.9688C18.9479 14.1146 19.375 13.0833 19.375 11.875C19.375 10.6667 18.9479 9.63542 18.0938 8.78125C17.2396 7.92708 16.2083 7.5 15 7.5C13.7917 7.5 12.7604 7.92708 11.9062 8.78125C11.0521 9.63542 10.625 10.6667 10.625 11.875C10.625 13.0833 11.0521 14.1146 11.9062 14.9688C12.7604 15.8229 13.7917 16.25 15 16.25ZM6.25 26.25C5.5625 26.25 4.97375 26.0054 4.48375 25.5163C3.99458 25.0263 3.75 24.4375 3.75 23.75V6.25C3.75 5.5625 3.99458 4.97375 4.48375 4.48375C4.97375 3.99458 5.5625 3.75 6.25 3.75H23.75C24.4375 3.75 25.0263 3.99458 25.5163 4.48375C26.0054 4.97375 26.25 5.5625 26.25 6.25V23.75C26.25 24.4375 26.0054 25.0263 25.5163 25.5163C25.0263 26.0054 24.4375 26.25 23.75 26.25H6.25ZM8.75 23.75H21.25V23.4375C20.375 22.7083 19.4062 22.1617 18.3438 21.7975C17.2812 21.4325 16.1667 21.25 15 21.25C13.8333 21.25 12.7188 21.4325 11.6562 21.7975C10.5937 22.1617 9.625 22.7083 8.75 23.4375V23.75ZM15 13.75C14.4792 13.75 14.0367 13.5675 13.6725 13.2025C13.3075 12.8383 13.125 12.3958 13.125 11.875C13.125 11.3542 13.3075 10.9117 13.6725 10.5475C14.0367 10.1825 14.4792 10 15 10C15.5208 10 15.9633 10.1825 16.3275 10.5475C16.6925 10.9117 16.875 11.3542 16.875 11.875C16.875 12.3958 16.6925 12.8383 16.3275 13.2025C15.9633 13.5675 15.5208 13.75 15 13.75Z" fill="#EEF0F4"/>
</g>
</svg>
