<svg width="30" height="30" viewBox="0 0 30 30" fill="none" xmlns="http://www.w3.org/2000/svg">
<mask id="mask0_1305_27939" style="mask-type:alpha" maskUnits="userSpaceOnUse" x="0" y="0" width="30" height="30">
<rect width="30" height="30" fill="#D9D9D9"/>
</mask>
<g mask="url(#mask0_1305_27939)">
<path d="M7.5 25C6.8125 25 6.22417 24.7554 5.735 24.2663C5.245 23.7763 5 23.1875 5 22.5C5 21.8125 5.245 21.2237 5.735 20.7337C6.22417 20.2446 6.8125 20 7.5 20C8.1875 20 8.77583 20.2446 9.265 20.7337C9.755 21.2237 10 21.8125 10 22.5C10 23.1875 9.755 23.7763 9.265 24.2663C8.77583 24.7554 8.1875 25 7.5 25ZM15 25C14.3125 25 13.7242 24.7554 13.235 24.2663C12.745 23.7763 12.5 23.1875 12.5 22.5C12.5 21.8125 12.745 21.2237 13.235 20.7337C13.7242 20.2446 14.3125 20 15 20C15.6875 20 16.2762 20.2446 16.7663 20.7337C17.2554 21.2237 17.5 21.8125 17.5 22.5C17.5 23.1875 17.2554 23.7763 16.7663 24.2663C16.2762 24.7554 15.6875 25 15 25ZM22.5 25C21.8125 25 21.2237 24.7554 20.7337 24.2663C20.2446 23.7763 20 23.1875 20 22.5C20 21.8125 20.2446 21.2237 20.7337 20.7337C21.2237 20.2446 21.8125 20 22.5 20C23.1875 20 23.7763 20.2446 24.2663 20.7337C24.7554 21.2237 25 21.8125 25 22.5C25 23.1875 24.7554 23.7763 24.2663 24.2663C23.7763 24.7554 23.1875 25 22.5 25ZM7.5 17.5C6.8125 17.5 6.22417 17.255 5.735 16.765C5.245 16.2758 5 15.6875 5 15C5 14.3125 5.245 13.7238 5.735 13.2337C6.22417 12.7446 6.8125 12.5 7.5 12.5C8.1875 12.5 8.77583 12.7446 9.265 13.2337C9.755 13.7238 10 14.3125 10 15C10 15.6875 9.755 16.2758 9.265 16.765C8.77583 17.255 8.1875 17.5 7.5 17.5ZM15 17.5C14.3125 17.5 13.7242 17.255 13.235 16.765C12.745 16.2758 12.5 15.6875 12.5 15C12.5 14.3125 12.745 13.7238 13.235 13.2337C13.7242 12.7446 14.3125 12.5 15 12.5C15.6875 12.5 16.2762 12.7446 16.7663 13.2337C17.2554 13.7238 17.5 14.3125 17.5 15C17.5 15.6875 17.2554 16.2758 16.7663 16.765C16.2762 17.255 15.6875 17.5 15 17.5ZM22.5 17.5C21.8125 17.5 21.2237 17.255 20.7337 16.765C20.2446 16.2758 20 15.6875 20 15C20 14.3125 20.2446 13.7238 20.7337 13.2337C21.2237 12.7446 21.8125 12.5 22.5 12.5C23.1875 12.5 23.7763 12.7446 24.2663 13.2337C24.7554 13.7238 25 14.3125 25 15C25 15.6875 24.7554 16.2758 24.2663 16.765C23.7763 17.255 23.1875 17.5 22.5 17.5ZM7.5 10C6.8125 10 6.22417 9.755 5.735 9.265C5.245 8.77583 5 8.1875 5 7.5C5 6.8125 5.245 6.22417 5.735 5.735C6.22417 5.245 6.8125 5 7.5 5C8.1875 5 8.77583 5.245 9.265 5.735C9.755 6.22417 10 6.8125 10 7.5C10 8.1875 9.755 8.77583 9.265 9.265C8.77583 9.755 8.1875 10 7.5 10ZM15 10C14.3125 10 13.7242 9.755 13.235 9.265C12.745 8.77583 12.5 8.1875 12.5 7.5C12.5 6.8125 12.745 6.22417 13.235 5.735C13.7242 5.245 14.3125 5 15 5C15.6875 5 16.2762 5.245 16.7663 5.735C17.2554 6.22417 17.5 6.8125 17.5 7.5C17.5 8.1875 17.2554 8.77583 16.7663 9.265C16.2762 9.755 15.6875 10 15 10ZM22.5 10C21.8125 10 21.2237 9.755 20.7337 9.265C20.2446 8.77583 20 8.1875 20 7.5C20 6.8125 20.2446 6.22417 20.7337 5.735C21.2237 5.245 21.8125 5 22.5 5C23.1875 5 23.7763 5.245 24.2663 5.735C24.7554 6.22417 25 6.8125 25 7.5C25 8.1875 24.7554 8.77583 24.2663 9.265C23.7763 9.755 23.1875 10 22.5 10Z" fill="#EEF0F4"/>
</g>
</svg>
