<svg width="30" height="30" viewBox="0 0 30 30" fill="none" xmlns="http://www.w3.org/2000/svg">
<mask id="mask0_1320_27132" style="mask-type:alpha" maskUnits="userSpaceOnUse" x="0" y="0" width="30" height="30">
<rect width="30" height="30" fill="#D9D9D9"/>
</mask>
<g mask="url(#mask0_1320_27132)">
<path d="M15 20C16.5625 20 17.8908 19.4533 18.985 18.36C20.0783 17.2658 20.625 15.9375 20.625 14.375C20.625 12.8125 20.0783 11.4842 18.985 10.39C17.8908 9.29667 16.5625 8.75 15 8.75C13.4375 8.75 12.1092 9.29667 11.015 10.39C9.92167 11.4842 9.375 12.8125 9.375 14.375C9.375 15.9375 9.92167 17.2658 11.015 18.36C12.1092 19.4533 13.4375 20 15 20ZM15 17.75C14.0625 17.75 13.2658 17.4217 12.61 16.765C11.9533 16.1092 11.625 15.3125 11.625 14.375C11.625 13.4375 11.9533 12.6404 12.61 11.9837C13.2658 11.3279 14.0625 11 15 11C15.9375 11 16.7346 11.3279 17.3912 11.9837C18.0471 12.6404 18.375 13.4375 18.375 14.375C18.375 15.3125 18.0471 16.1092 17.3912 16.765C16.7346 17.4217 15.9375 17.75 15 17.75ZM15 23.75C12.1042 23.75 9.45833 22.9846 7.0625 21.4538C4.66667 19.9221 2.85417 17.8542 1.625 15.25C1.5625 15.1458 1.52083 15.0154 1.5 14.8588C1.47917 14.7029 1.46875 14.5417 1.46875 14.375C1.46875 14.2083 1.47917 14.0467 1.5 13.89C1.52083 13.7342 1.5625 13.6042 1.625 13.5C2.85417 10.8958 4.66667 8.82833 7.0625 7.2975C9.45833 5.76583 12.1042 5 15 5C17.8958 5 20.5417 5.76583 22.9375 7.2975C25.3333 8.82833 27.1458 10.8958 28.375 13.5C28.4375 13.6042 28.4792 13.7342 28.5 13.89C28.5208 14.0467 28.5313 14.2083 28.5313 14.375C28.5313 14.5417 28.5208 14.7029 28.5 14.8588C28.4792 15.0154 28.4375 15.1458 28.375 15.25C27.1458 17.8542 25.3333 19.9221 22.9375 21.4538C20.5417 22.9846 17.8958 23.75 15 23.75ZM15 21.25C17.3542 21.25 19.5158 20.63 21.485 19.39C23.4533 18.1508 24.9583 16.4792 26 14.375C24.9583 12.2708 23.4533 10.5988 21.485 9.35875C19.5158 8.11958 17.3542 7.5 15 7.5C12.6458 7.5 10.4842 8.11958 8.515 9.35875C6.54667 10.5988 5.04167 12.2708 4 14.375C5.04167 16.4792 6.54667 18.1508 8.515 19.39C10.4842 20.63 12.6458 21.25 15 21.25Z" fill="#EEF0F4"/>
</g>
</svg>
