<svg width="30" height="30" viewBox="0 0 30 30" fill="none" xmlns="http://www.w3.org/2000/svg">
<mask id="mask0_1337_32010" style="mask-type:alpha" maskUnits="userSpaceOnUse" x="0" y="0" width="30" height="30">
<rect width="30" height="30" fill="#D9D9D9"/>
</mask>
<g mask="url(#mask0_1337_32010)">
<path d="M15 25C14.6458 25 14.3492 24.88 14.11 24.64C13.87 24.4008 13.75 24.1042 13.75 23.75V9.78125L7.65625 15.875C7.40625 16.125 7.10917 16.25 6.765 16.25C6.42167 16.25 6.125 16.125 5.875 15.875C5.625 15.625 5.5 15.3333 5.5 15C5.5 14.6667 5.625 14.375 5.875 14.125L14.125 5.875C14.25 5.75 14.3854 5.66125 14.5312 5.60875C14.6771 5.55708 14.8333 5.53125 15 5.53125C15.1667 5.53125 15.3283 5.55708 15.485 5.60875C15.6408 5.66125 15.7708 5.75 15.875 5.875L24.125 14.125C24.375 14.375 24.5 14.6667 24.5 15C24.5 15.3333 24.375 15.625 24.125 15.875C23.875 16.125 23.5779 16.25 23.2337 16.25C22.8904 16.25 22.5937 16.125 22.3437 15.875L16.25 9.78125V23.75C16.25 24.1042 16.1304 24.4008 15.8912 24.64C15.6512 24.88 15.3542 25 15 25Z" fill="#EEF0F4"/>
</g>
</svg>
