<svg width="30" height="30" viewBox="0 0 30 30" fill="none" xmlns="http://www.w3.org/2000/svg">
<mask id="mask0_1337_32011" style="mask-type:alpha" maskUnits="userSpaceOnUse" x="0" y="0" width="30" height="30">
<rect width="30" height="30" fill="#D9D9D9"/>
</mask>
<g mask="url(#mask0_1337_32011)">
<path d="M15 24.4688C14.8333 24.4688 14.6771 24.4425 14.5312 24.39C14.3854 24.3383 14.25 24.25 14.125 24.125L5.875 15.875C5.625 15.625 5.5 15.3279 5.5 14.9837C5.5 14.6404 5.625 14.3437 5.875 14.0937C6.125 13.8437 6.41667 13.7188 6.75 13.7188C7.08333 13.7188 7.375 13.8437 7.625 14.0937L13.75 20.2187V6.21875C13.75 5.86458 13.87 5.57292 14.11 5.34375C14.3492 5.11458 14.6458 5 15 5C15.3542 5 15.6512 5.11958 15.8912 5.35875C16.1304 5.59875 16.25 5.89583 16.25 6.25V20.2187L22.375 14.0937C22.625 13.8437 22.9167 13.7188 23.25 13.7188C23.5833 13.7188 23.875 13.8437 24.125 14.0937C24.375 14.3437 24.5 14.6404 24.5 14.9837C24.5 15.3279 24.375 15.625 24.125 15.875L15.875 24.125C15.75 24.25 15.6146 24.3383 15.4687 24.39C15.3229 24.4425 15.1667 24.4688 15 24.4688Z" fill="#EEF0F4"/>
</g>
</svg>
