<svg width="30" height="30" viewBox="0 0 30 30" fill="none" xmlns="http://www.w3.org/2000/svg">
<mask id="mask0_1304_28025" style="mask-type:alpha" maskUnits="userSpaceOnUse" x="0" y="0" width="30" height="30">
<rect width="30" height="30" fill="#D9D9D9"/>
</mask>
<g mask="url(#mask0_1304_28025)">
<path d="M15 21.25C15.3542 21.25 15.6513 21.13 15.8913 20.89C16.1304 20.6508 16.25 20.3542 16.25 20V14.9688C16.25 14.6146 16.1304 14.3229 15.8913 14.0938C15.6513 13.8646 15.3542 13.75 15 13.75C14.6458 13.75 14.3492 13.8696 14.11 14.1087C13.87 14.3487 13.75 14.6458 13.75 15V20.0312C13.75 20.3854 13.87 20.6771 14.11 20.9062C14.3492 21.1354 14.6458 21.25 15 21.25ZM15 11.25C15.3542 11.25 15.6513 11.13 15.8913 10.89C16.1304 10.6508 16.25 10.3542 16.25 10C16.25 9.64583 16.1304 9.34875 15.8913 9.10875C15.6513 8.86958 15.3542 8.75 15 8.75C14.6458 8.75 14.3492 8.86958 14.11 9.10875C13.87 9.34875 13.75 9.64583 13.75 10C13.75 10.3542 13.87 10.6508 14.11 10.89C14.3492 11.13 14.6458 11.25 15 11.25ZM15 27.5C13.2708 27.5 11.6458 27.1717 10.125 26.515C8.60417 25.8592 7.28125 24.9688 6.15625 23.8438C5.03125 22.7188 4.14083 21.3958 3.485 19.875C2.82833 18.3542 2.5 16.7292 2.5 15C2.5 13.2708 2.82833 11.6458 3.485 10.125C4.14083 8.60417 5.03125 7.28125 6.15625 6.15625C7.28125 5.03125 8.60417 4.14042 10.125 3.48375C11.6458 2.82792 13.2708 2.5 15 2.5C16.7292 2.5 18.3542 2.82792 19.875 3.48375C21.3958 4.14042 22.7188 5.03125 23.8438 6.15625C24.9688 7.28125 25.8592 8.60417 26.515 10.125C27.1717 11.6458 27.5 13.2708 27.5 15C27.5 16.7292 27.1717 18.3542 26.515 19.875C25.8592 21.3958 24.9688 22.7188 23.8438 23.8438C22.7188 24.9688 21.3958 25.8592 19.875 26.515C18.3542 27.1717 16.7292 27.5 15 27.5Z" fill="#EEF0F4"/>
</g>
</svg>
