<svg width="30" height="30" viewBox="0 0 30 30" fill="none" xmlns="http://www.w3.org/2000/svg">
<mask id="mask0_1436_35759" style="mask-type:alpha" maskUnits="userSpaceOnUse" x="0" y="0" width="30" height="30">
<rect width="30" height="30" fill="#D9D9D9"/>
</mask>
<g mask="url(#mask0_1436_35759)">
<path d="M12.2812 25.875C10.1354 25.2708 8.38542 24.0888 7.03125 22.3288C5.67708 20.5679 5 18.5417 5 16.25C5 15.0625 5.19792 13.9321 5.59375 12.8587C5.98958 11.7862 6.55208 10.8021 7.28125 9.90625C7.51042 9.65625 7.79167 9.52583 8.125 9.515C8.45833 9.505 8.76042 9.63542 9.03125 9.90625C9.26042 10.1354 9.38042 10.4167 9.39125 10.75C9.40125 11.0833 9.29167 11.3958 9.0625 11.6875C8.5625 12.3333 8.17708 13.0417 7.90625 13.8125C7.63542 14.5833 7.5 15.3958 7.5 16.25C7.5 17.9375 7.995 19.4429 8.985 20.7663C9.97417 22.0888 11.25 22.9896 12.8125 23.4688C13.0833 23.5521 13.3075 23.7083 13.485 23.9375C13.6617 24.1667 13.75 24.4167 13.75 24.6875C13.75 25.1042 13.6042 25.4325 13.3125 25.6725C13.0208 25.9117 12.6771 25.9792 12.2812 25.875ZM17.7188 25.875C17.3229 25.9792 16.9792 25.9062 16.6875 25.6562C16.3958 25.4062 16.25 25.0729 16.25 24.6563C16.25 24.4063 16.3388 24.1667 16.5163 23.9375C16.6929 23.7083 16.9167 23.5521 17.1875 23.4688C18.75 22.9688 20.0258 22.0625 21.015 20.75C22.005 19.4375 22.5 17.9375 22.5 16.25C22.5 14.1667 21.7708 12.3958 20.3125 10.9375C18.8542 9.47917 17.0833 8.75 15 8.75H14.9062L15.4062 9.25C15.6354 9.47917 15.75 9.77083 15.75 10.125C15.75 10.4792 15.6354 10.7708 15.4062 11C15.1771 11.2292 14.8854 11.3437 14.5312 11.3437C14.1771 11.3437 13.8854 11.2292 13.6562 11L11.0312 8.375C10.9062 8.25 10.8179 8.11458 10.7662 7.96875C10.7137 7.82292 10.6875 7.66667 10.6875 7.5C10.6875 7.33333 10.7137 7.17708 10.7662 7.03125C10.8179 6.88542 10.9062 6.75 11.0312 6.625L13.6562 4C13.8854 3.77083 14.1771 3.65625 14.5312 3.65625C14.8854 3.65625 15.1771 3.77083 15.4062 4C15.6354 4.22917 15.75 4.52083 15.75 4.875C15.75 5.22917 15.6354 5.52083 15.4062 5.75L14.9062 6.25H15C17.7917 6.25 20.1562 7.21875 22.0938 9.15625C24.0312 11.0937 25 13.4583 25 16.25C25 18.5208 24.3229 20.5417 22.9688 22.3125C21.6146 24.0833 19.8646 25.2708 17.7188 25.875Z" fill="#EEF0F4"/>
</g>
</svg>
