<svg width="30" height="30" viewBox="0 0 30 30" fill="none" xmlns="http://www.w3.org/2000/svg">
<mask id="mask0_1487_35979" style="mask-type:alpha" maskUnits="userSpaceOnUse" x="0" y="0" width="30" height="30">
<rect width="30" height="30" fill="#D9D9D9"/>
</mask>
<g mask="url(#mask0_1487_35979)">
<path d="M13.25 17.25L10.5312 14.5312C10.3021 14.3021 10.0158 14.1929 9.6725 14.2037C9.32833 14.2137 9.04167 14.3333 8.8125 14.5625C8.58333 14.7917 8.46875 15.0833 8.46875 15.4375C8.46875 15.7917 8.58333 16.0833 8.8125 16.3125L12.375 19.875C12.6042 20.1042 12.8958 20.2188 13.25 20.2188C13.6042 20.2188 13.8958 20.1042 14.125 19.875L21.2188 12.7812C21.4479 12.5521 21.5575 12.2654 21.5475 11.9212C21.5367 11.5779 21.4167 11.2917 21.1875 11.0625C20.9583 10.8333 20.6667 10.7188 20.3125 10.7188C19.9583 10.7188 19.6667 10.8333 19.4375 11.0625L13.25 17.25ZM15 27.5C13.2708 27.5 11.6458 27.1717 10.125 26.515C8.60417 25.8592 7.28125 24.9688 6.15625 23.8438C5.03125 22.7188 4.14083 21.3958 3.485 19.875C2.82833 18.3542 2.5 16.7292 2.5 15C2.5 13.2708 2.82833 11.6458 3.485 10.125C4.14083 8.60417 5.03125 7.28125 6.15625 6.15625C7.28125 5.03125 8.60417 4.14042 10.125 3.48375C11.6458 2.82792 13.2708 2.5 15 2.5C16.7292 2.5 18.3542 2.82792 19.875 3.48375C21.3958 4.14042 22.7188 5.03125 23.8438 6.15625C24.9688 7.28125 25.8592 8.60417 26.515 10.125C27.1717 11.6458 27.5 13.2708 27.5 15C27.5 16.7292 27.1717 18.3542 26.515 19.875C25.8592 21.3958 24.9688 22.7188 23.8438 23.8438C22.7188 24.9688 21.3958 25.8592 19.875 26.515C18.3542 27.1717 16.7292 27.5 15 27.5ZM15 25C17.7708 25 20.1304 24.0263 22.0788 22.0788C24.0263 20.1304 25 17.7708 25 15C25 12.2292 24.0263 9.86958 22.0788 7.92125C20.1304 5.97375 17.7708 5 15 5C12.2292 5 9.87 5.97375 7.9225 7.92125C5.97417 9.86958 5 12.2292 5 15C5 17.7708 5.97417 20.1304 7.9225 22.0788C9.87 24.0263 12.2292 25 15 25Z" fill="#EEF0F4"/>
</g>
</svg>
