<svg width="30" height="30" viewBox="0 0 30 30" fill="none" xmlns="http://www.w3.org/2000/svg">
<mask id="mask0_1476_35400" style="mask-type:alpha" maskUnits="userSpaceOnUse" x="0" y="0" width="30" height="30">
<rect width="30" height="30" fill="#D9D9D9"/>
</mask>
<g mask="url(#mask0_1476_35400)">
<path d="M7.5 23.75H11.25V16.25H18.75V23.75H22.5V12.5L15 6.875L7.5 12.5V23.75ZM7.5 26.25C6.8125 26.25 6.22417 26.0054 5.735 25.5163C5.245 25.0263 5 24.4375 5 23.75V12.5C5 12.1042 5.08875 11.7292 5.26625 11.375C5.44292 11.0208 5.6875 10.7292 6 10.5L13.5 4.875C13.7292 4.70833 13.9688 4.58333 14.2188 4.5C14.4688 4.41667 14.7292 4.375 15 4.375C15.2708 4.375 15.5312 4.41667 15.7812 4.5C16.0312 4.58333 16.2708 4.70833 16.5 4.875L24 10.5C24.3125 10.7292 24.5575 11.0208 24.735 11.375C24.9117 11.7292 25 12.1042 25 12.5V23.75C25 24.4375 24.7554 25.0263 24.2663 25.5163C23.7763 26.0054 23.1875 26.25 22.5 26.25H16.25V18.75H13.75V26.25H7.5Z" fill="#EEF0F4"/>
</g>
</svg>
