<svg width="30" height="30" viewBox="0 0 30 30" fill="none" xmlns="http://www.w3.org/2000/svg">
<mask id="mask0_1304_27559" style="mask-type:alpha" maskUnits="userSpaceOnUse" x="0" y="0" width="30" height="30">
<rect width="30" height="30" fill="#D9D9D9"/>
</mask>
<g mask="url(#mask0_1304_27559)">
<path d="M2.5 19.75V3.75C2.5 3.39583 2.62 3.09875 2.86 2.85875C3.09917 2.61958 3.39583 2.5 3.75 2.5H20C20.3542 2.5 20.6508 2.61958 20.89 2.85875C21.13 3.09875 21.25 3.39583 21.25 3.75V15C21.25 15.3542 21.13 15.6508 20.89 15.89C20.6508 16.13 20.3542 16.25 20 16.25H7.5L3.5625 20.1875C3.375 20.375 3.15083 20.4217 2.89 20.3275C2.63 20.2342 2.5 20.0417 2.5 19.75ZM8.75 22.5C8.39583 22.5 8.09875 22.38 7.85875 22.14C7.61958 21.9008 7.5 21.6042 7.5 21.25V18.75H23.75V7.5H26.25C26.6042 7.5 26.9008 7.61958 27.14 7.85875C27.38 8.09875 27.5 8.39583 27.5 8.75V26C27.5 26.2917 27.37 26.4842 27.11 26.5775C26.8492 26.6717 26.625 26.625 26.4375 26.4375L22.5 22.5H8.75Z" fill="#EEF0F4"/>
</g>
</svg>
