<svg width="30" height="30" viewBox="0 0 30 30" fill="none" xmlns="http://www.w3.org/2000/svg">
<mask id="mask0_1427_34493" style="mask-type:alpha" maskUnits="userSpaceOnUse" x="0" y="0" width="30" height="30">
<rect width="30" height="30" fill="#D9D9D9"/>
</mask>
<g mask="url(#mask0_1427_34493)">
<path d="M15 22.8438L9.81253 25.9688C9.58336 26.1146 9.34378 26.1771 9.09378 26.1562C8.84378 26.1354 8.62503 26.0521 8.43753 25.9063C8.25003 25.7604 8.10419 25.5783 8.00003 25.36C7.89586 25.1408 7.87503 24.8958 7.93753 24.625L9.31253 18.7188L4.71878 14.75C4.51044 14.5625 4.38044 14.3488 4.32878 14.1087C4.27628 13.8696 4.29169 13.6354 4.37503 13.4063C4.45836 13.1771 4.58336 12.9896 4.75003 12.8438C4.91669 12.6979 5.14586 12.6042 5.43753 12.5625L11.5 12.0312L13.8438 6.46875C13.9479 6.21875 14.1096 6.03125 14.3288 5.90625C14.5471 5.78125 14.7709 5.71875 15 5.71875C15.2292 5.71875 15.4534 5.78125 15.6725 5.90625C15.8909 6.03125 16.0521 6.21875 16.1563 6.46875L18.5 12.0312L24.5625 12.5625C24.8542 12.6042 25.0834 12.6979 25.25 12.8438C25.4167 12.9896 25.5417 13.1771 25.625 13.4063C25.7084 13.6354 25.7242 13.8696 25.6725 14.1087C25.62 14.3488 25.4896 14.5625 25.2813 14.75L20.6875 18.7188L22.0625 24.625C22.125 24.8958 22.1042 25.1408 22 25.36C21.8959 25.5783 21.75 25.7604 21.5625 25.9063C21.375 26.0521 21.1563 26.1354 20.9063 26.1562C20.6563 26.1771 20.4167 26.1146 20.1875 25.9688L15 22.8438Z" fill="#EEF0F4"/>
</g>
</svg>
