<svg width="30" height="30" viewBox="0 0 30 30" fill="none" xmlns="http://www.w3.org/2000/svg">
<mask id="mask0_1476_35407" style="mask-type:alpha" maskUnits="userSpaceOnUse" x="0" y="0" width="30" height="30">
<rect width="30" height="30" fill="#D9D9D9"/>
</mask>
<g mask="url(#mask0_1476_35407)">
<path d="M23.75 10C24.1042 10 24.4008 9.88042 24.64 9.64125C24.88 9.40125 25 9.10417 25 8.75C25 8.39583 24.88 8.09875 24.64 7.85875C24.4008 7.61958 24.1042 7.5 23.75 7.5C23.3958 7.5 23.0992 7.61958 22.86 7.85875C22.62 8.09875 22.5 8.39583 22.5 8.75C22.5 9.10417 22.62 9.40125 22.86 9.64125C23.0992 9.88042 23.3958 10 23.75 10ZM23.75 12.5C22.6875 12.5 21.7971 12.1404 21.0788 11.4213C20.3596 10.7029 20 9.8125 20 8.75C20 7.70833 20.3596 6.82292 21.0788 6.09375C21.7971 5.36458 22.6875 5 23.75 5C24.7917 5 25.6771 5.36458 26.4062 6.09375C27.1354 6.82292 27.5 7.70833 27.5 8.75C27.5 9.8125 27.1354 10.7029 26.4062 11.4213C25.6771 12.1404 24.7917 12.5 23.75 12.5ZM15 8.75C15.5208 8.75 15.9633 8.57292 16.3275 8.21875C16.6925 7.86458 16.875 7.41667 16.875 6.875C16.875 6.35417 16.6925 5.91167 16.3275 5.5475C15.9633 5.1825 15.5208 5 15 5C14.4583 5 14.0104 5.1825 13.6562 5.5475C13.3021 5.91167 13.125 6.35417 13.125 6.875C13.125 7.41667 13.3021 7.86458 13.6562 8.21875C14.0104 8.57292 14.4583 8.75 15 8.75ZM15 11.25C13.7708 11.25 12.7342 10.8279 11.89 9.98375C11.0467 9.14042 10.625 8.10417 10.625 6.875C10.625 5.66667 11.0467 4.63542 11.89 3.78125C12.7342 2.92708 13.7708 2.5 15 2.5C16.2083 2.5 17.2396 2.92708 18.0938 3.78125C18.9479 4.63542 19.375 5.66667 19.375 6.875C19.375 8.10417 18.9479 9.14042 18.0938 9.98375C17.2396 10.8279 16.2083 11.25 15 11.25ZM10 16.7188C10 17.3438 10.3333 18.0729 11 18.9062C11.6667 19.7396 13 21.0625 15 22.875C16.9583 21.1042 18.2812 19.8021 18.9688 18.9688C19.6562 18.1354 20 17.3854 20 16.7188C20 16.2396 19.8438 15.8333 19.5312 15.5C19.2188 15.1667 18.8333 15 18.375 15C18.0833 15 17.8075 15.0625 17.5475 15.1875C17.2867 15.3125 17.0729 15.4896 16.9062 15.7188L15.4062 17.5H14.5625L13.0625 15.7188C12.8958 15.4896 12.6825 15.3125 12.4225 15.1875C12.1617 15.0625 11.8958 15 11.625 15C11.1458 15 10.7554 15.1667 10.4537 15.5C10.1512 15.8333 10 16.2396 10 16.7188ZM7.5 16.7188C7.5 15.6146 7.875 14.6354 8.625 13.7812C9.375 12.9271 10.375 12.5 11.625 12.5C12.2708 12.5 12.8908 12.6458 13.485 12.9375C14.0783 13.2292 14.5833 13.625 15 14.125C15.4167 13.625 15.9167 13.2292 16.5 12.9375C17.0833 12.6458 17.7083 12.5 18.375 12.5C19.625 12.5 20.625 12.9321 21.375 13.7962C22.125 14.6612 22.5 15.6354 22.5 16.7188C22.5 17.8229 22.0992 18.9113 21.2975 19.9838C20.495 21.0571 18.8542 22.7292 16.375 25L15 26.25L13.625 25C11.1042 22.7083 9.45333 21.0312 8.6725 19.9688C7.89083 18.9062 7.5 17.8229 7.5 16.7188ZM6.25 10C6.60417 10 6.90125 9.88042 7.14125 9.64125C7.38042 9.40125 7.5 9.10417 7.5 8.75C7.5 8.39583 7.38042 8.09875 7.14125 7.85875C6.90125 7.61958 6.60417 7.5 6.25 7.5C5.89583 7.5 5.59875 7.61958 5.35875 7.85875C5.11958 8.09875 5 8.39583 5 8.75C5 9.10417 5.11958 9.40125 5.35875 9.64125C5.59875 9.88042 5.89583 10 6.25 10ZM15.0938 27.5V25H25V16.25H21.3125V13.75H25C25.6875 13.75 26.2763 13.9946 26.7663 14.4837C27.2554 14.9738 27.5 15.5625 27.5 16.25V26.25C27.5 26.6042 27.38 26.9008 27.14 27.14C26.9008 27.38 26.6042 27.5 26.25 27.5H15.0938ZM5 25H15.0938V27.5H3.75C3.39583 27.5 3.09917 27.38 2.86 27.14C2.62 26.9008 2.5 26.6042 2.5 26.25V16.25C2.5 15.5625 2.73958 14.9738 3.21875 14.4837C3.69792 13.9946 4.29167 13.75 5 13.75H8.6875V16.25H5V25ZM6.25 12.5C5.1875 12.5 4.29667 12.1404 3.5775 11.4213C2.85917 10.7029 2.5 9.8125 2.5 8.75C2.5 7.70833 2.85917 6.82292 3.5775 6.09375C4.29667 5.36458 5.1875 5 6.25 5C7.29167 5 8.17708 5.36458 8.90625 6.09375C9.63542 6.82292 10 7.70833 10 8.75C10 9.8125 9.63542 10.7029 8.90625 11.4213C8.17708 12.1404 7.29167 12.5 6.25 12.5Z" fill="#EEF0F4"/>
</g>
</svg>
