<svg width="30" height="30" viewBox="0 0 30 30" fill="none" xmlns="http://www.w3.org/2000/svg">
<mask id="mask0_1375_32543" style="mask-type:alpha" maskUnits="userSpaceOnUse" x="0" y="0" width="30" height="30">
<rect width="30" height="30" fill="#D9D9D9"/>
</mask>
<g mask="url(#mask0_1375_32543)">
<path d="M13.75 22.5C13.3958 22.5 13.0992 22.38 12.86 22.14C12.62 21.9008 12.5 21.6042 12.5 21.25C12.5 20.8958 12.62 20.5992 12.86 20.36C13.0992 20.12 13.3958 20 13.75 20H16.25C16.6042 20 16.9013 20.12 17.1413 20.36C17.3804 20.5992 17.5 20.8958 17.5 21.25C17.5 21.6042 17.3804 21.9008 17.1413 22.14C16.9013 22.38 16.6042 22.5 16.25 22.5H13.75ZM5 10C4.64583 10 4.34917 9.88042 4.11 9.64125C3.87 9.40125 3.75 9.10417 3.75 8.75C3.75 8.39583 3.87 8.09875 4.11 7.85875C4.34917 7.61958 4.64583 7.5 5 7.5H25C25.3542 7.5 25.6508 7.61958 25.89 7.85875C26.13 8.09875 26.25 8.39583 26.25 8.75C26.25 9.10417 26.13 9.40125 25.89 9.64125C25.6508 9.88042 25.3542 10 25 10H5ZM8.75 16.25C8.39583 16.25 8.09875 16.13 7.85875 15.89C7.61958 15.6508 7.5 15.3542 7.5 15C7.5 14.6458 7.61958 14.3487 7.85875 14.1087C8.09875 13.8696 8.39583 13.75 8.75 13.75H21.25C21.6042 13.75 21.9008 13.8696 22.14 14.1087C22.38 14.3487 22.5 14.6458 22.5 15C22.5 15.3542 22.38 15.6508 22.14 15.89C21.9008 16.13 21.6042 16.25 21.25 16.25H8.75Z" fill="#EEF0F4"/>
</g>
</svg>
