<svg width="30" height="30" viewBox="0 0 30 30" fill="none" xmlns="http://www.w3.org/2000/svg">
<mask id="mask0_1289_34032" style="mask-type:alpha" maskUnits="userSpaceOnUse" x="0" y="0" width="30" height="30">
<rect width="30" height="30" fill="#D9D9D9"/>
</mask>
<g mask="url(#mask0_1289_34032)">
<path d="M15 20C14.6458 20 14.3492 19.88 14.11 19.64C13.87 19.4008 13.75 19.1042 13.75 18.75V9.8125L11.4062 12.1562C11.1562 12.4062 10.8646 12.5312 10.5312 12.5312C10.1979 12.5312 9.89583 12.3958 9.625 12.125C9.375 11.875 9.25542 11.5779 9.26625 11.2337C9.27625 10.8904 9.39583 10.6042 9.625 10.375L14.125 5.875C14.25 5.75 14.3854 5.66125 14.5312 5.60875C14.6771 5.55708 14.8333 5.53125 15 5.53125C15.1667 5.53125 15.3229 5.55708 15.4688 5.60875C15.6146 5.66125 15.75 5.75 15.875 5.875L20.375 10.375C20.625 10.625 20.7446 10.9217 20.7337 11.265C20.7238 11.6092 20.6042 11.8958 20.375 12.125C20.125 12.375 19.8283 12.505 19.485 12.515C19.1408 12.5258 18.8438 12.4062 18.5938 12.1562L16.25 9.8125V18.75C16.25 19.1042 16.1304 19.4008 15.8913 19.64C15.6513 19.88 15.3542 20 15 20ZM7.5 25C6.8125 25 6.22417 24.7554 5.735 24.2662C5.245 23.7762 5 23.1875 5 22.5V20C5 19.6458 5.11958 19.3487 5.35875 19.1087C5.59875 18.8696 5.89583 18.75 6.25 18.75C6.60417 18.75 6.90125 18.8696 7.14125 19.1087C7.38042 19.3487 7.5 19.6458 7.5 20V22.5H22.5V20C22.5 19.6458 22.62 19.3487 22.86 19.1087C23.0992 18.8696 23.3958 18.75 23.75 18.75C24.1042 18.75 24.4008 18.8696 24.64 19.1087C24.88 19.3487 25 19.6458 25 20V22.5C25 23.1875 24.7554 23.7762 24.2663 24.2662C23.7763 24.7554 23.1875 25 22.5 25H7.5Z" fill="#EEF0F4"/>
</g>
</svg>
