<svg width="30" height="30" viewBox="0 0 30 30" fill="none" xmlns="http://www.w3.org/2000/svg">
<mask id="mask0_1296_26531" style="mask-type:alpha" maskUnits="userSpaceOnUse" x="0" y="0" width="30" height="30">
<rect width="30" height="30" fill="#D9D9D9"/>
</mask>
<g mask="url(#mask0_1296_26531)">
<path d="M15 23.75C14.6458 23.75 14.3492 23.63 14.11 23.39C13.87 23.1508 13.75 22.8542 13.75 22.5V16.25H7.5C7.14583 16.25 6.84875 16.13 6.60875 15.89C6.36958 15.6508 6.25 15.3542 6.25 15C6.25 14.6458 6.36958 14.3487 6.60875 14.1087C6.84875 13.8696 7.14583 13.75 7.5 13.75H13.75V7.5C13.75 7.14583 13.87 6.84875 14.11 6.60875C14.3492 6.36958 14.6458 6.25 15 6.25C15.3542 6.25 15.6513 6.36958 15.8913 6.60875C16.1304 6.84875 16.25 7.14583 16.25 7.5V13.75H22.5C22.8542 13.75 23.1508 13.8696 23.39 14.1087C23.63 14.3487 23.75 14.6458 23.75 15C23.75 15.3542 23.63 15.6508 23.39 15.89C23.1508 16.13 22.8542 16.25 22.5 16.25H16.25V22.5C16.25 22.8542 16.1304 23.1508 15.8913 23.39C15.6513 23.63 15.3542 23.75 15 23.75Z" fill="#EEF0F4"/>
</g>
</svg>
