<svg width="30" height="30" viewBox="0 0 30 30" fill="none" xmlns="http://www.w3.org/2000/svg">
<mask id="mask0_1427_34501" style="mask-type:alpha" maskUnits="userSpaceOnUse" x="0" y="0" width="30" height="30">
<rect width="30" height="30" fill="#D9D9D9"/>
</mask>
<g mask="url(#mask0_1427_34501)">
<path d="M6.21872 19.9062L9.37497 15L6.21872 10.0937C5.67705 9.26042 5.6458 8.41125 6.12497 7.54625C6.60414 6.68208 7.34372 6.25 8.34372 6.25H18.75C19.1666 6.25 19.5575 6.34375 19.9225 6.53125C20.2866 6.71875 20.5833 6.97917 20.8125 7.3125L25.2187 13.5625C25.5312 14 25.6875 14.4792 25.6875 15C25.6875 15.5208 25.5312 16 25.2187 16.4375L20.8125 22.6875C20.5833 23.0208 20.2866 23.2812 19.9225 23.4688C19.5575 23.6562 19.1666 23.75 18.75 23.75H8.34372C7.34372 23.75 6.60414 23.3175 6.12497 22.4525C5.6458 21.5883 5.67705 20.7396 6.21872 19.9062Z" fill="#EEF0F4"/>
</g>
</svg>
