<svg width="30" height="30" viewBox="0 0 30 30" fill="none" xmlns="http://www.w3.org/2000/svg">
<mask id="mask0_1304_27563" style="mask-type:alpha" maskUnits="userSpaceOnUse" x="0" y="0" width="30" height="30">
<rect width="30" height="30" fill="#D9D9D9"/>
</mask>
<g mask="url(#mask0_1304_27563)">
<path d="M6.25 26.2499C5.5625 26.2499 4.97375 26.0053 4.48375 25.5162C3.99458 25.0262 3.75 24.4374 3.75 23.7499C3.75 23.0624 3.99458 22.4737 4.48375 21.9837C4.97375 21.4945 5.5625 21.2499 6.25 21.2499C6.9375 21.2499 7.52583 21.4945 8.015 21.9837C8.505 22.4737 8.75 23.0624 8.75 23.7499C8.75 24.4374 8.505 25.0262 8.015 25.5162C7.52583 26.0053 6.9375 26.2499 6.25 26.2499ZM23.0938 26.2499C22.5938 26.2499 22.1617 26.0728 21.7975 25.7187C21.4325 25.3645 21.2188 24.927 21.1562 24.4062C20.9479 22.3645 20.4013 20.4478 19.5162 18.6562C18.6304 16.8645 17.495 15.2758 16.11 13.8899C14.7242 12.5049 13.1354 11.3695 11.3438 10.4837C9.55208 9.59868 7.63542 9.05201 5.59375 8.84368C5.07292 8.78118 4.63542 8.56243 4.28125 8.18743C3.92708 7.81243 3.75 7.36451 3.75 6.84368C3.75 6.32284 3.9325 5.89034 4.2975 5.54618C4.66167 5.20284 5.09375 5.05201 5.59375 5.09368C8.15625 5.30201 10.5625 5.94785 12.8125 7.03118C15.0625 8.11451 17.0467 9.51576 18.765 11.2349C20.4842 12.9533 21.8854 14.9374 22.9688 17.1874C24.0521 19.4374 24.6979 21.8437 24.9062 24.4062C24.9479 24.9062 24.7917 25.3383 24.4375 25.7024C24.0833 26.0674 23.6354 26.2499 23.0938 26.2499ZM15.5938 26.2499C15.1146 26.2499 14.6825 26.0778 14.2975 25.7337C13.9117 25.3903 13.6667 24.9478 13.5625 24.4062C13.1875 22.3853 12.2708 20.6458 10.8125 19.1874C9.35417 17.7291 7.61458 16.8124 5.59375 16.4374C5.05208 16.3333 4.60958 16.0833 4.26625 15.6874C3.92208 15.2916 3.75 14.8437 3.75 14.3437C3.75 13.802 3.9375 13.3645 4.3125 13.0312C4.6875 12.6978 5.11458 12.5624 5.59375 12.6249C8.67708 13.0416 11.3075 14.3383 13.485 16.5149C15.6617 18.6924 16.9583 21.3228 17.375 24.4062C17.4375 24.8853 17.2917 25.3124 16.9375 25.6874C16.5833 26.0624 16.1354 26.2499 15.5938 26.2499Z" fill="#EEF0F4"/>
</g>
</svg>
