<svg width="30" height="30" viewBox="0 0 30 30" fill="none" xmlns="http://www.w3.org/2000/svg">
<mask id="mask0_1289_34026" style="mask-type:alpha" maskUnits="userSpaceOnUse" x="0" y="0" width="30" height="30">
<rect width="30" height="30" fill="#D9D9D9"/>
</mask>
<g mask="url(#mask0_1289_34026)">
<path d="M13.5938 24.1252L5.34375 15.8752C5.21875 15.7502 5.13 15.6148 5.0775 15.469C5.02583 15.3231 5 15.1669 5 15.0002C5 14.8336 5.02583 14.6773 5.0775 14.5315C5.13 14.3856 5.21875 14.2502 5.34375 14.1252L13.5938 5.87522C13.8229 5.64606 14.1092 5.52606 14.4525 5.51523C14.7967 5.50523 15.0938 5.62522 15.3438 5.87522C15.5938 6.10439 15.7242 6.39064 15.735 6.73398C15.745 7.07814 15.625 7.37523 15.375 7.62523L9.25 13.7502H23.2188C23.5729 13.7502 23.87 13.8698 24.11 14.109C24.3492 14.349 24.4688 14.6461 24.4688 15.0002C24.4688 15.3544 24.3492 15.6511 24.11 15.8902C23.87 16.1302 23.5729 16.2502 23.2188 16.2502H9.25L15.375 22.3752C15.6042 22.6044 15.7242 22.8961 15.735 23.2502C15.745 23.6044 15.625 23.8961 15.375 24.1252C15.1458 24.3752 14.8542 24.5002 14.5 24.5002C14.1458 24.5002 13.8438 24.3752 13.5938 24.1252Z" fill="#EEF0F4"/>
</g>
</svg>
