<svg width="30" height="30" viewBox="0 0 30 30" fill="none" xmlns="http://www.w3.org/2000/svg">
<mask id="mask0_1304_27560" style="mask-type:alpha" maskUnits="userSpaceOnUse" x="0" y="0" width="30" height="30">
<rect width="30" height="30" fill="#D9D9D9"/>
</mask>
<g mask="url(#mask0_1304_27560)">
<path d="M5 25C4.3125 25 3.72417 24.7554 3.235 24.2663C2.745 23.7763 2.5 23.1875 2.5 22.5V7.5C2.5 6.8125 2.745 6.22417 3.235 5.735C3.72417 5.245 4.3125 5 5 5H25C25.6875 5 26.2763 5.245 26.7663 5.735C27.2554 6.22417 27.5 6.8125 27.5 7.5V22.5C27.5 23.1875 27.2554 23.7763 26.7663 24.2663C26.2763 24.7554 25.6875 25 25 25H5ZM15 16.0312C15.1042 16.0312 15.2133 16.0154 15.3275 15.9837C15.4425 15.9529 15.5521 15.9062 15.6562 15.8438L24.5 10.3125C24.6667 10.2083 24.7917 10.0783 24.875 9.9225C24.9583 9.76583 25 9.59375 25 9.40625C25 8.98958 24.8229 8.67708 24.4688 8.46875C24.1146 8.26042 23.75 8.27083 23.375 8.5L15 13.75L6.625 8.5C6.25 8.27083 5.88542 8.26542 5.53125 8.48375C5.17708 8.70292 5 9.01042 5 9.40625C5 9.61458 5.04167 9.79667 5.125 9.9525C5.20833 10.1092 5.33333 10.2292 5.5 10.3125L14.3438 15.8438C14.4479 15.9062 14.5575 15.9529 14.6725 15.9837C14.7867 16.0154 14.8958 16.0312 15 16.0312Z" fill="#EEF0F4"/>
</g>
</svg>
