<svg width="30" height="30" viewBox="0 0 30 30" fill="none" xmlns="http://www.w3.org/2000/svg">
<mask id="mask0_1345_30088" style="mask-type:alpha" maskUnits="userSpaceOnUse" x="0" y="0" width="30" height="30">
<rect width="30" height="30" fill="#D9D9D9"/>
</mask>
<g mask="url(#mask0_1345_30088)">
<path d="M17.5 16.25C16.4583 16.25 15.5729 15.8854 14.8438 15.1562C14.1146 14.4271 13.75 13.5417 13.75 12.5C13.75 11.4583 14.1146 10.5729 14.8438 9.84375C15.5729 9.11458 16.4583 8.75 17.5 8.75C18.5417 8.75 19.4271 9.11458 20.1562 9.84375C20.8854 10.5729 21.25 11.4583 21.25 12.5C21.25 13.5417 20.8854 14.4271 20.1562 15.1562C19.4271 15.8854 18.5417 16.25 17.5 16.25ZM8.75 20C8.0625 20 7.47417 19.755 6.985 19.265C6.495 18.7758 6.25 18.1875 6.25 17.5V7.5C6.25 6.8125 6.495 6.22417 6.985 5.735C7.47417 5.245 8.0625 5 8.75 5H26.25C26.9375 5 27.5263 5.245 28.0163 5.735C28.5054 6.22417 28.75 6.8125 28.75 7.5V17.5C28.75 18.1875 28.5054 18.7758 28.0163 19.265C27.5263 19.755 26.9375 20 26.25 20H8.75ZM11.25 17.5H23.75C23.75 16.8125 23.9946 16.2238 24.4837 15.7337C24.9737 15.2446 25.5625 15 26.25 15V10C25.5625 10 24.9737 9.755 24.4837 9.265C23.9946 8.77583 23.75 8.1875 23.75 7.5H11.25C11.25 8.1875 11.005 8.77583 10.515 9.265C10.0258 9.755 9.4375 10 8.75 10V15C9.4375 15 10.0258 15.2446 10.515 15.7337C11.005 16.2238 11.25 16.8125 11.25 17.5ZM3.75 25C3.0625 25 2.47417 24.7554 1.985 24.2663C1.495 23.7763 1.25 23.1875 1.25 22.5V10C1.25 9.64583 1.37 9.34875 1.61 9.10875C1.84917 8.86958 2.14583 8.75 2.5 8.75C2.85417 8.75 3.15125 8.86958 3.39125 9.10875C3.63042 9.34875 3.75 9.64583 3.75 10V22.5H23.75C24.1042 22.5 24.4008 22.62 24.64 22.86C24.88 23.0992 25 23.3958 25 23.75C25 24.1042 24.88 24.4008 24.64 24.64C24.4008 24.88 24.1042 25 23.75 25H3.75Z" fill="#EEF0F4"/>
</g>
</svg>
