<svg width="30" height="30" viewBox="0 0 30 30" fill="none" xmlns="http://www.w3.org/2000/svg">
<mask id="mask0_1289_33951" style="mask-type:alpha" maskUnits="userSpaceOnUse" x="0" y="0" width="30" height="30">
<rect width="30" height="30" fill="#D9D9D9"/>
</mask>
<g mask="url(#mask0_1289_33951)">
<path d="M22.5 27.5C21.4583 27.5 20.5729 27.1354 19.8438 26.4062C19.1146 25.6771 18.75 24.7917 18.75 23.75C18.75 23.6042 18.7604 23.4529 18.7812 23.2962C18.8021 23.1404 18.8333 23 18.875 22.875L10.0625 17.75C9.70833 18.0625 9.3125 18.3071 8.875 18.4837C8.4375 18.6612 7.97917 18.75 7.5 18.75C6.45833 18.75 5.57292 18.3854 4.84375 17.6562C4.11458 16.9271 3.75 16.0417 3.75 15C3.75 13.9583 4.11458 13.0729 4.84375 12.3438C5.57292 11.6146 6.45833 11.25 7.5 11.25C7.97917 11.25 8.4375 11.3383 8.875 11.515C9.3125 11.6925 9.70833 11.9375 10.0625 12.25L18.875 7.125C18.8333 7 18.8021 6.85958 18.7812 6.70375C18.7604 6.54708 18.75 6.39583 18.75 6.25C18.75 5.20833 19.1146 4.32292 19.8438 3.59375C20.5729 2.86458 21.4583 2.5 22.5 2.5C23.5417 2.5 24.4271 2.86458 25.1562 3.59375C25.8854 4.32292 26.25 5.20833 26.25 6.25C26.25 7.29167 25.8854 8.17708 25.1562 8.90625C24.4271 9.63542 23.5417 10 22.5 10C22.0208 10 21.5625 9.91125 21.125 9.73375C20.6875 9.55708 20.2917 9.3125 19.9375 9L11.125 14.125C11.1667 14.25 11.1979 14.3904 11.2188 14.5463C11.2396 14.7029 11.25 14.8542 11.25 15C11.25 15.1458 11.2396 15.2967 11.2188 15.4525C11.1979 15.6092 11.1667 15.75 11.125 15.875L19.9375 21C20.2917 20.6875 20.6875 20.4425 21.125 20.265C21.5625 20.0883 22.0208 20 22.5 20C23.5417 20 24.4271 20.3646 25.1562 21.0938C25.8854 21.8229 26.25 22.7083 26.25 23.75C26.25 24.7917 25.8854 25.6771 25.1562 26.4062C24.4271 27.1354 23.5417 27.5 22.5 27.5ZM22.5 7.5C22.8542 7.5 23.1508 7.38042 23.39 7.14125C23.63 6.90125 23.75 6.60417 23.75 6.25C23.75 5.89583 23.63 5.59875 23.39 5.35875C23.1508 5.11958 22.8542 5 22.5 5C22.1458 5 21.8492 5.11958 21.61 5.35875C21.37 5.59875 21.25 5.89583 21.25 6.25C21.25 6.60417 21.37 6.90125 21.61 7.14125C21.8492 7.38042 22.1458 7.5 22.5 7.5ZM7.5 16.25C7.85417 16.25 8.15125 16.13 8.39125 15.89C8.63042 15.6508 8.75 15.3542 8.75 15C8.75 14.6458 8.63042 14.3487 8.39125 14.1087C8.15125 13.8696 7.85417 13.75 7.5 13.75C7.14583 13.75 6.84875 13.8696 6.60875 14.1087C6.36958 14.3487 6.25 14.6458 6.25 15C6.25 15.3542 6.36958 15.6508 6.60875 15.89C6.84875 16.13 7.14583 16.25 7.5 16.25ZM22.5 25C22.8542 25 23.1508 24.88 23.39 24.64C23.63 24.4008 23.75 24.1042 23.75 23.75C23.75 23.3958 23.63 23.0992 23.39 22.86C23.1508 22.62 22.8542 22.5 22.5 22.5C22.1458 22.5 21.8492 22.62 21.61 22.86C21.37 23.0992 21.25 23.3958 21.25 23.75C21.25 24.1042 21.37 24.4008 21.61 24.64C21.8492 24.88 22.1458 25 22.5 25Z" fill="#EEF0F4"/>
</g>
</svg>
